<svg xmlns="http://www.w3.org/2000/svg" width="40" height="40" viewBox="0 0 40 40">
  <g id="_001-email_copy" data-name="001-email copy" transform="translate(-4.11 -5)">
    <path id="Path_169" data-name="Path 169" d="M154.013,149H137.735l8.139,6.976Zm0,0" transform="translate(-121.764 -131.166)" fill="#fff"/>
    <path id="Path_170" data-name="Path 170" d="M133.476,166.191a.719.719,0,0,1-.469-.174l-8.9-7.626v13.563h18.732V158.391l-8.9,7.626a.719.719,0,0,1-.469.174Zm0,0" transform="translate(-109.366 -139.755)" fill="#fff"/>
    <path id="Path_171" data-name="Path 171" d="M24.11,5a20,20,0,1,0,20,20,20,20,0,0,0-20-20ZM34.824,32.857a.714.714,0,0,1-.714.714h-20a.714.714,0,0,1-.714-.714V17.143a.714.714,0,0,1,.714-.714h20a.714.714,0,0,1,.714.714Zm0,0" transform="translate(0 0)" fill="#fff"/>
  </g>
</svg>
