<svg xmlns="http://www.w3.org/2000/svg" width="41.53" height="43.375" viewBox="0 0 41.53 43.375">
  <g id="_001-bill" data-name="001-bill" transform="translate(-0.134 0.3)">
    <path id="Path_4283" data-name="Path 4283" d="M90.017,347.48H86.574a.532.532,0,1,0,0,1.063h3.443a.532.532,0,1,0,0-1.063Zm0,0" transform="translate(-78.026 -316.698)" fill="#14334a" stroke="#14334a" stroke-width="0.6"/>
    <path id="Path_4284" data-name="Path 4284" d="M40.829,41.706h-.117a1.164,1.164,0,0,1-1.046-1.157V33.694a3.643,3.643,0,0,0-3.638-3.638H30.993V13.424a.531.531,0,0,0-.532-.532,1.975,1.975,0,0,0-1.219.4,1,1,0,0,1-1.251,0,2.053,2.053,0,0,0-2.439,0,1,1,0,0,1-1.251,0,2.052,2.052,0,0,0-2.439,0,1,1,0,0,1-1.251,0,2.416,2.416,0,0,0-.5-.278V2.207A2.209,2.209,0,0,0,17.9,0H2.64A2.209,2.209,0,0,0,.434,2.207V32.355A2.209,2.209,0,0,0,2.64,34.562H15.173v.161a3.39,3.39,0,0,0,3.386,3.386c.1,0,.195-.005.29-.013h7.508v1.036A3.643,3.643,0,0,0,30,42.77H40.667c.053,0,.107.006.162.006a.534.534,0,0,0,0-1.069ZM15.7,12.892a.531.531,0,0,0-.532.532V28.065H1.5V4.6H19.044v8.32a2.033,2.033,0,0,0-.87.374,1,1,0,0,1-1.25,0A1.976,1.976,0,0,0,15.7,12.892ZM2.64,1.063H17.9a1.145,1.145,0,0,1,1.143,1.144V3.536H1.5V2.207A1.145,1.145,0,0,1,2.64,1.063Zm0,32.436A1.145,1.145,0,0,1,1.5,32.355V29.128H15.173V33.5Zm13.6,1.224V14.113l.093.062a2.052,2.052,0,0,0,2.439,0,1,1,0,0,1,1.25,0,2.053,2.053,0,0,0,2.439,0,1,1,0,0,1,1.251,0,2.054,2.054,0,0,0,2.439,0,1,1,0,0,1,1.251,0,2.054,2.054,0,0,0,2.439,0l.094-.062V30.056H24.151a3.273,3.273,0,0,0-3.269,3.269v1.4a2.323,2.323,0,1,1-4.645,0Zm4.8,2.309a3.372,3.372,0,0,0,.913-2.309v-1.4a2.206,2.206,0,0,1,4.413,0v3.707ZM30,41.706a2.578,2.578,0,0,1-2.575-2.575V33.325a3.257,3.257,0,0,0-.859-2.206h9.467A2.578,2.578,0,0,1,38.6,33.694v6.855a2.211,2.211,0,0,0,.325,1.157Zm0,0" fill="#14334a" stroke="#14334a" stroke-width="0.6"/>
    <path id="Path_4285" data-name="Path 4285" d="M225.543,217.45a.531.531,0,0,0,.532.531h6.974a.532.532,0,0,0,0-1.063h-6.974A.531.531,0,0,0,225.543,217.45Zm0,0" transform="translate(-205.168 -197.702)" fill="#14334a" stroke="#14334a" stroke-width="0.6"/>
    <path id="Path_4286" data-name="Path 4286" d="M196.481,217.981h1.13a.532.532,0,1,0,0-1.063h-1.13a.532.532,0,0,0,0,1.063Zm0,0" transform="translate(-178.196 -197.702)" fill="#14334a" stroke="#14334a" stroke-width="0.6"/>
    <path id="Path_4287" data-name="Path 4287" d="M233.049,250.473h-6.974a.532.532,0,0,0,0,1.063h6.974a.532.532,0,0,0,0-1.063Zm0,0" transform="translate(-205.168 -228.284)" fill="#14334a" stroke="#14334a" stroke-width="0.6"/>
    <path id="Path_4288" data-name="Path 4288" d="M196.481,251.536h1.13a.532.532,0,0,0,0-1.063h-1.13a.532.532,0,0,0,0,1.063Zm0,0" transform="translate(-178.196 -228.284)" fill="#14334a" stroke="#14334a" stroke-width="0.6"/>
    <path id="Path_4289" data-name="Path 4289" d="M233.049,284.023h-6.974a.532.532,0,0,0,0,1.063h6.974a.532.532,0,0,0,0-1.063Zm0,0" transform="translate(-205.168 -258.863)" fill="#14334a" stroke="#14334a" stroke-width="0.6"/>
    <path id="Path_4290" data-name="Path 4290" d="M198.142,284.555a.532.532,0,0,0-.532-.532h-1.13a.532.532,0,0,0,0,1.063h1.13A.532.532,0,0,0,198.142,284.555Zm0,0" transform="translate(-178.196 -258.863)" fill="#14334a" stroke="#14334a" stroke-width="0.6"/>
    <path id="Path_4291" data-name="Path 4291" d="M196.481,184.43h4.99a.532.532,0,0,0,0-1.063h-4.99a.532.532,0,0,0,0,1.063Zm0,0" transform="translate(-178.196 -167.123)" fill="#14334a" stroke="#14334a" stroke-width="0.6"/>
    <path id="Path_4292" data-name="Path 4292" d="M323.915,369.844a.67.67,0,0,1,.669.669.532.532,0,0,0,1.063,0,1.735,1.735,0,0,0-1.2-1.648v-.212a.532.532,0,0,0-1.063,0v.212a1.732,1.732,0,0,0,.532,3.38.669.669,0,1,1,.009,1.337h-.018a.669.669,0,0,1-.66-.668.532.532,0,0,0-1.063,0,1.734,1.734,0,0,0,1.2,1.647v.267a.532.532,0,0,0,1.063,0v-.267a1.732,1.732,0,0,0-.532-3.38.669.669,0,1,1,0-1.337Zm0,0" transform="translate(-293.247 -335.511)" fill="#14334a" stroke="#14334a" stroke-width="0.6"/>
    <path id="Path_4293" data-name="Path 4293" d="M379.309,430.09h-1.988a.532.532,0,0,0,0,1.063h1.988a.532.532,0,0,0,0-1.063Zm0,0" transform="translate(-343.016 -391.99)" fill="#14334a" stroke="#14334a" stroke-width="0.6"/>
    <path id="Path_4294" data-name="Path 4294" d="M379.309,402.98h-1.988a.532.532,0,0,0,0,1.063h1.988a.532.532,0,0,0,0-1.063Zm0,0" transform="translate(-343.016 -367.282)" fill="#14334a" stroke="#14334a" stroke-width="0.6"/>
    <path id="Path_4295" data-name="Path 4295" d="M379.309,375.867h-1.988a.532.532,0,1,0,0,1.063h1.988a.532.532,0,0,0,0-1.063Zm0,0" transform="translate(-343.016 -342.57)" fill="#14334a" stroke="#14334a" stroke-width="0.6"/>
  </g>
</svg>
