<svg xmlns="http://www.w3.org/2000/svg" width="40" height="40" viewBox="0 0 40 40">
  <path id="_003-linkedin" data-name="003-linkedin" d="M20,0A20,20,0,1,0,40,20,20,20,0,0,0,20,0ZM14.188,30.234H9.317V15.58h4.871ZM11.753,13.579h-.034a2.539,2.539,0,1,1,.064-5.063,2.54,2.54,0,1,1-.032,5.063Zm20,16.655h-4.87v-7.84c0-1.97-.7-3.314-2.467-3.314a2.669,2.669,0,0,0-2.5,1.781,3.332,3.332,0,0,0-.16,1.189v8.184h-4.87s.064-13.281,0-14.654h4.871v2.076a4.837,4.837,0,0,1,4.389-2.422c3.2,0,5.608,2.095,5.608,6.6Zm0,0" fill="#14334a"/>
</svg>
