<svg xmlns="http://www.w3.org/2000/svg" width="46.2" height="46.2" viewBox="0 0 46.2 46.2">
  <g id="_005-project-management" data-name="005-project-management" transform="translate(-4.207 -4.661)">
    <path id="Path_4273" data-name="Path 4273" d="M119.914,101.424a.827.827,0,0,1-.131.03,3.233,3.233,0,0,1-1.265-.032c-.406-.188-.179-.757-.292-1.15a4.827,4.827,0,0,0-2.614-3.228,13.79,13.79,0,0,1-3.763-2.287,10.613,10.613,0,0,1-3.524-9.016,10.72,10.72,0,0,1,4.983-8.252.652.652,0,0,1,.082.083c.243.386.67.772.673,1.16s-.606.556-.938.828a9.365,9.365,0,0,0,.416,14.59,13.882,13.882,0,0,0,2.472,1.359,6.437,6.437,0,0,1,3.818,4.9A8.8,8.8,0,0,1,119.914,101.424Z" transform="translate(-91.614 -64.191)" fill="#14334a" stroke="#14334a" stroke-width="0.2"/>
    <path id="Path_4274" data-name="Path 4274" d="M23,39.763c.073.049.162.106.247.167,1.61,1.149,3.216,2.3,4.832,3.443.225.159.309.276.1.513a4.012,4.012,0,0,0-.5.7c-.151.271-.279.221-.492.068-1.616-1.167-3.234-2.329-4.867-3.473-.265-.186-.241-.31-.07-.522.191-.236.354-.495.538-.737C22.835,39.861,22.86,39.752,23,39.763Z" transform="translate(-15.643 -30.739)" fill="#14334a" stroke="#14334a" stroke-width="0.2"/>
    <path id="Path_4275" data-name="Path 4275" d="M77.707,4.764c.127-.022.127.121.149.207.494,1.913.98,3.829,1.475,5.742.051.2-.015.278-.2.321-.34.08-.683.156-1.015.262-.216.069-.267-.038-.309-.2q-.727-2.85-1.454-5.7c-.025-.1-.12-.243.079-.3Z" transform="translate(-63.406 0)" fill="#14334a" stroke="#14334a" stroke-width="0.2"/>
    <path id="Path_4276" data-name="Path 4276" d="M11.651,105.529a.157.157,0,0,1-.212-.117,1.155,1.155,0,0,1-.03-.133c-.07-.4-.389-.856-.216-1.169.161-.29.708-.247,1.087-.342,1.575-.4,3.154-.78,4.725-1.189.253-.066.355-.041.393.223.03.209.1.413.149.619.147.6.146.594-.42.734q-2.63.652-5.259,1.307C11.8,105.479,11.724,105.506,11.651,105.529Z" transform="translate(-6.004 -86.104)" fill="#14334a" stroke="#14334a" stroke-width="0.2"/>
    <path id="Path_4277" data-name="Path 4277" d="M309.924,275.988c.1.075.17.128.24.187,1.393,1.16,2.781,2.325,4.181,3.476.2.168.209.276.034.46-.272.285-.485.781-.791.84s-.614-.418-.915-.666c-1.163-.96-2.315-1.933-3.482-2.888-.208-.17-.274-.277-.057-.491s.412-.489.617-.734C309.8,276.107,309.866,276.049,309.924,275.988Z" transform="translate(-268.432 -238.854)" fill="#14334a" stroke="#14334a" stroke-width="0.2"/>
    <path id="Path_4278" data-name="Path 4278" d="M280.212,296.175c0-.792.012-1.583-.006-2.375-.006-.279.072-.36.357-.363,1.2-.015,1.2-.025,1.2,1.158,0,1.294-.008,2.588.006,3.882,0,.293-.031.46-.384.417-.374-.045-.866.153-1.1-.072s-.06-.719-.069-1.094C280.2,297.21,280.212,296.692,280.212,296.175Z" transform="translate(-242.889 -254.349)" fill="#14334a" stroke="#14334a" stroke-width="0.2"/>
    <path id="Path_4279" data-name="Path 4279" d="M321.539,242.4c.777,0,1.554.019,2.33-.009.335-.012.417.1.387.408a4.266,4.266,0,0,0,0,.776c.024.285-.049.393-.366.39q-2.353-.026-4.705,0c-.31,0-.379-.1-.38-.39,0-1.174-.015-1.174,1.136-1.174Z" transform="translate(-277.042 -209.22)" fill="#14334a" stroke="#14334a" stroke-width="0.2"/>
    <path id="Path_4280" data-name="Path 4280" d="M190.991,287.965c0-.363-.143-.851.037-1.057.215-.246.716-.041,1.089-.083.3-.034.434.045.414.385-.03.53-.024,1.064,0,1.6.012.288-.09.354-.365.357C190.971,289.178,190.971,289.187,190.991,287.965Z" transform="translate(-164.328 -248.323)" fill="#14334a" stroke="#14334a" stroke-width="0.2"/>
    <path id="Path_4281" data-name="Path 4281" d="M4.307,31.3a1.19,1.19,0,0,1,.892-.586c.647-.113,1.285-.279,1.932-.4.266-.048.243-.135.119-.312q-.591-.846-1.169-1.7a.82.82,0,0,1,.106-1.265Q7.2,26.017,8.222,25.006a.8.8,0,0,1,1.23-.119q.874.59,1.735,1.2c.2.141.267.11.313-.13.135-.7.3-1.4.439-2.107a.772.772,0,0,1,.746-.709c.233-.011.25-.107.265-.3A14.517,14.517,0,0,1,25.284,9.552a12.942,12.942,0,0,1,3.222-.093.922.922,0,0,0,.7-.215c.576-.454,1.168-.886,1.755-1.325.631-.471.982-.42,1.464.219q.744.985,1.48,1.976c.234.316.5.571.935.462s.555-.455.611-.846c.125-.874.244-1.749.385-2.62a.792.792,0,0,1,1.042-.745c1.347.193,2.694.39,4.043.573.813.11,1.05.423.926,1.243s-.233,1.659-.357,2.488a.786.786,0,0,0,1.33.764q1.038-.785,2.084-1.561a.829.829,0,0,1,1.373.19q1.259,1.665,2.5,3.341a.807.807,0,0,1-.191,1.337q-1.016.777-2.048,1.534c-.336.247-.585.531-.454.98.125.426.477.525.87.575.846.108,1.689.235,2.533.358a.84.84,0,0,1,.8,1.1q-.3,2.042-.59,4.087c-.1.723-.407.957-1.122.853-.859-.125-1.718-.243-2.577-.368a.817.817,0,0,0-.908.33.8.8,0,0,0,.114.991q.787,1.037,1.563,2.082c.444.6.394.961-.2,1.4q-1.65,1.241-3.307,2.474a.824.824,0,0,1-1.369-.195q-.786-1.038-1.562-2.083a.827.827,0,0,0-.916-.41.848.848,0,0,0-.594.814c-.12.859-.244,1.718-.365,2.577-.092.656-.381.9-1.027.817q-2.113-.281-4.221-.6c-.669-.1-.875-.388-.792-1.052.1-.787.216-1.571.326-2.356.012-.089.031-.177.043-.266A.8.8,0,0,0,31.44,27.6c-.644.488-1.292.971-1.938,1.456-.735.552-1.044.509-1.592-.222q-1.186-1.58-2.372-3.16c-.457-.612-.4-.976.2-1.432.669-.5,1.336-1.011,2.012-1.507A.861.861,0,0,0,28.2,21.8c-.1-.4-.425-.537-.811-.587-.845-.109-1.689-.232-2.532-.36-.737-.112-.959-.393-.859-1.133q.284-2.09.606-4.175a.8.8,0,0,1,1.038-.762c.889.124,1.778.249,2.664.389a.8.8,0,0,0,.893-.353.762.762,0,0,0-.091-.916q-.782-1.041-1.56-2.084a1.1,1.1,0,0,1-.323-.718c.012-.23-.15-.173-.276-.169a12.741,12.741,0,0,0-6.791,2.151,12.356,12.356,0,0,0-5.622,8.8A12.568,12.568,0,0,0,19.77,34.366a7.879,7.879,0,0,1,2.287,2.115,4.981,4.981,0,0,1,.757,2.457c.022,1.033.007,2.067.013,3.1a1.544,1.544,0,0,0,1.7,1.7q2.9.015,5.8,0a1.523,1.523,0,0,0,1.668-1.677c0-.9-.008-1.8,0-2.7a5.245,5.245,0,0,1,2.288-4.443,17.192,17.192,0,0,0,1.577-1.186c.152-.138.266-.167.387.028a1.533,1.533,0,0,0,.178.2c.674.751.679.758-.106,1.371-.377.294-.776.561-1.166.838a3.715,3.715,0,0,0-1.63,3.135c-.014.914-.009,1.828,0,2.741A2.988,2.988,0,0,1,32.2,44.7a.5.5,0,0,0-.209.5c0,1.288.016,2.577,0,3.865a3.035,3.035,0,0,1-2.278,2.976,1.949,1.949,0,0,1-.309.034c-1.251.078-2.5.013-3.755.035a2.957,2.957,0,0,1-2.941-3.08c-.022-1.213-.009-2.426,0-3.639a.834.834,0,0,0-.338-.734,3.1,3.1,0,0,1-1.189-2.462c-.021-.567,0-1.135-.008-1.781a5.765,5.765,0,0,0-.74.691,1.034,1.034,0,0,1-1.585.157c-.478-.31-.928-.658-1.4-.97-.235-.154-.345-.1-.4.167-.1.529-.226,1.054-.336,1.582-.171.821-.471,1.064-1.292,1.067q-1.19.005-2.38,0A1.069,1.069,0,0,1,11.783,42.1c-.111-.5-.211-1-.321-1.493s-.131-.5-.567-.217c-.477.31-.923.666-1.407.966a.93.93,0,0,1-1.3-.122c-.722-.7-1.434-1.4-2.127-2.129a.93.93,0,0,1-.113-1.3c.322-.505.7-.975,1.013-1.484.215-.345.2-.385-.186-.466-.572-.118-1.142-.244-1.712-.371a.883.883,0,0,1-.755-.671Q4.307,33.053,4.307,31.3ZM29.38,52.153a.065.065,0,0,1,.02-.081l-3.92.006a.162.162,0,0,0,.036.075ZM28.244,16.7c-.653-.082-1.3-.175-1.953-.284-.217-.037-.291.018-.319.232-.109.83-.23,1.659-.353,2.487-.03.2,0,.289.236.315.579.064,1.154.168,1.732.248a2.3,2.3,0,0,1,1.153,4.212c-.466.351-.925.712-1.4,1.045-.225.156-.249.269-.076.489.473.6.935,1.206,1.374,1.83.193.275.322.318.606.1a11.172,11.172,0,0,1,1.817-1.309,2.14,2.14,0,0,1,2.329.193,2.318,2.318,0,0,1,.911,2.418c-.081.562-.162,1.125-.246,1.687-.028.184-.017.3.226.325q1.2.146,2.4.348c.3.05.391-.056.423-.332.07-.609.148-1.218.252-1.822a2.192,2.192,0,0,1,1.765-1.916,2.221,2.221,0,0,1,2.4.936c.372.487.745.975,1.1,1.475.137.192.231.191.411.051.649-.5,1.306-1,1.976-1.479.228-.163.182-.269.038-.451-.371-.469-.728-.95-1.08-1.434a2.305,2.305,0,0,1,2.289-3.7c.547.084,1.1.131,1.641.244.334.07.4-.063.437-.342.1-.786.2-1.572.333-2.354.035-.215.007-.287-.216-.314-.579-.069-1.154-.168-1.732-.244a2.326,2.326,0,0,1-2.117-1.728,2.293,2.293,0,0,1,.975-2.512c.482-.355.952-.726,1.439-1.073.179-.128.185-.218.054-.387-.512-.663-1.021-1.329-1.507-2.011-.159-.223-.258-.148-.418-.027-.536.407-1.067.822-1.624,1.2a2.27,2.27,0,0,1-3.547-2.112c.068-.669.174-1.335.274-2,.032-.211.011-.314-.245-.344-.831-.1-1.66-.219-2.487-.35-.23-.036-.28.045-.305.248-.076.608-.173,1.214-.259,1.821a2.294,2.294,0,0,1-4.15,1.1c-.388-.494-.763-1-1.131-1.508-.115-.159-.187-.225-.377-.077q-.99.774-2.01,1.508c-.2.146-.186.247-.047.424.37.47.724.953,1.082,1.432A2.3,2.3,0,0,1,28.244,16.7ZM12.7,27.087a1.6,1.6,0,0,1-2.4.246c-.443-.3-.889-.886-1.329-.813s-.773.693-1.169,1.055a.3.3,0,0,0-.051.482c.312.42.6.859.892,1.291a1.508,1.508,0,0,1,.245,1.279,1.712,1.712,0,0,1-1.6,1.218c-.48.085-1.138.071-1.376.371s-.071.943-.081,1.435a.4.4,0,0,1,0,.045c-.025.193.034.285.251.322.515.088,1.023.212,1.533.328a1.527,1.527,0,0,1,1,2.474c-.281.424-.567.844-.87,1.252a.279.279,0,0,0,.045.448c.341.314.671.642.984.984.159.174.271.163.449.033.435-.317.876-.627,1.33-.915a1.521,1.521,0,0,1,2.379.966c.126.523.24,1.049.333,1.578.038.213.1.306.333.3.418-.019.838-.014,1.257,0,.213.006.309-.045.348-.282.083-.515.208-1.024.327-1.533a1.518,1.518,0,0,1,2.448-.984q.656.43,1.29.893a.261.261,0,0,0,.413-.04c.317-.338.653-.659.981-.987.523-.522.523-.522.143-1.146-.023-.038-.05-.075-.073-.113-.579-.968-1.626-1.385-2.448-2.112a5.183,5.183,0,0,1-.928,1.227,4.571,4.571,0,1,1-4-7.8c.224-.05.325-.091.232-.366a13.02,13.02,0,0,1-.506-2.205A5.124,5.124,0,0,1,12.7,27.087Zm4.222,7.361a.464.464,0,0,0-.082-.654A11.968,11.968,0,0,1,14.539,30.5a.7.7,0,0,0-.947-.432A3.045,3.045,0,0,0,11.2,33.3a3.086,3.086,0,0,0,3.237,2.785A2.936,2.936,0,0,0,16.926,34.448Zm7.786,13.879c-.127,0-.328-.094-.354.148-.134,1.214.393,2.12,1.609,2.144.866.017,1.733,0,2.6,0,1.376,0,1.937-.6,1.9-1.987-.006-.266-.093-.32-.336-.317-.911.012-1.823,0-2.734,0S25.608,48.319,24.712,48.327Zm.78-3.052c-.37.008-.874-.17-1.073.078-.185.231-.036.716-.071,1.086-.029.312.1.367.379.365,1.527-.012,3.055,0,4.582-.007.371,0,.877.125,1.078-.065.24-.226.04-.736.08-1.12.029-.282-.074-.354-.349-.348-.9.017-1.8.006-2.7.006C26.779,45.272,26.135,45.261,25.492,45.276Z" transform="translate(0 -1.391)" fill="#14334a" stroke="#14334a" stroke-width="0.2"/>
    <path id="Path_4282" data-name="Path 4282" d="M240.164,71.651a6.216,6.216,0,1,1-6.171-6.252A6.222,6.222,0,0,1,240.164,71.651Zm-6.186-4.7a4.664,4.664,0,1,0,4.631,4.669A4.7,4.7,0,0,0,233.978,66.954Z" transform="translate(-196.883 -53.432)" fill="#14334a" stroke="#14334a" stroke-width="0.2"/>
  </g>
</svg>
