<svg xmlns="http://www.w3.org/2000/svg" width="72" height="72" viewBox="0 0 72 72">
  <g id="Group_3167" data-name="Group 3167" transform="translate(-16557 -1884)">
    <g id="Ellipse_25" data-name="Ellipse 25" transform="translate(16557 1884)" fill="none" stroke="#14334a" stroke-width="4">
      <circle cx="36" cy="36" r="36" stroke="none"/>
      <circle cx="36" cy="36" r="34" fill="none"/>
    </g>
    <g id="Group_3167-2" data-name="Group 3167" transform="translate(-1.711 -1.541)">
      <path id="Path_4341" data-name="Path 4341" d="M-4.931,0h-3.81V-14.687l-4.548,1.411v-3.1l7.95-2.848h.409ZM13.816-14.093a4.465,4.465,0,0,1-.7,2.479,5.029,5.029,0,0,1-1.925,1.727,5.567,5.567,0,0,1,2.215,1.852,4.751,4.751,0,0,1,.817,2.775,5.031,5.031,0,0,1-1.74,4.041A7.059,7.059,0,0,1,7.752.264a7.091,7.091,0,0,1-4.746-1.49A5.019,5.019,0,0,1,1.252-5.26,4.782,4.782,0,0,1,2.07-8.042a5.466,5.466,0,0,1,2.2-1.846,4.978,4.978,0,0,1-1.918-1.727,4.5,4.5,0,0,1-.692-2.479A4.975,4.975,0,0,1,3.3-18a6.436,6.436,0,0,1,4.443-1.457,6.479,6.479,0,0,1,4.436,1.444A4.956,4.956,0,0,1,13.816-14.093ZM10.4-5.537a2.764,2.764,0,0,0-.725-2,2.585,2.585,0,0,0-1.951-.751,2.581,2.581,0,0,0-1.938.745,2.759,2.759,0,0,0-.725,2.01A2.757,2.757,0,0,0,5.774-3.56a2.593,2.593,0,0,0,1.978.751A2.587,2.587,0,0,0,9.7-3.533,2.752,2.752,0,0,0,10.4-5.537Zm-.4-8.372a2.637,2.637,0,0,0-.593-1.8,2.1,2.1,0,0,0-1.674-.679,2.12,2.12,0,0,0-1.661.659,2.621,2.621,0,0,0-.593,1.819,2.755,2.755,0,0,0,.593,1.846,2.076,2.076,0,0,0,1.674.7,2.056,2.056,0,0,0,1.668-.7A2.775,2.775,0,0,0,10.006-13.909Z" transform="translate(16585 1931)" fill="#14334a"/>
      <path id="Path_4342" data-name="Path 4342" d="M1.78-10.745H6.539V-7.3H1.78v5.379H-1.846V-7.3H-6.618v-3.441h4.772V-15.9H1.78Z" transform="translate(16611 1931)" fill="#14334a"/>
    </g>
  </g>
</svg>
