<svg xmlns="http://www.w3.org/2000/svg" width="132" height="132" viewBox="0 0 132 132">
  <g id="Group_3344" data-name="Group 3344" transform="translate(-627 -241)">
    <g id="Group_3057" data-name="Group 3057" transform="translate(-231.324 89.676)">
      <line id="Line_8" data-name="Line 8" x2="47.648" y2="47.648" transform="translate(900.5 193.5)" fill="none" stroke="#ef5f5f" stroke-linecap="round" stroke-width="5"/>
      <line id="Line_9" data-name="Line 9" x1="47.648" y2="47.648" transform="translate(900.5 193.5)" fill="none" stroke="#ef5f5f" stroke-linecap="round" stroke-width="5"/>
    </g>
    <g id="Path_788" data-name="Path 788" transform="translate(627 241)" fill="none">
      <path d="M66,0A66,66,0,1,1,0,66,66,66,0,0,1,66,0Z" stroke="none"/>
      <path d="M 66 4 C 57.62828063964844 4 49.50911712646484 5.638717651367188 41.86801910400391 8.870620727539062 C 38.19513702392578 10.42411804199219 34.65232086181641 12.34713745117188 31.33799743652344 14.58625793457031 C 28.05413818359375 16.80477905273438 24.96600341796875 19.35276031494141 22.15937805175781 22.15937805175781 C 19.35276031494141 24.96600341796875 16.80477905273438 28.05413818359375 14.58625793457031 31.33799743652344 C 12.34713745117188 34.65232086181641 10.42411804199219 38.19513702392578 8.870620727539062 41.86801910400391 C 5.638717651367188 49.50911712646484 4 57.62828063964844 4 66 C 4 74.3717041015625 5.638717651367188 82.49087524414062 8.870620727539062 90.1319580078125 C 10.42411804199219 93.80485534667969 12.34713745117188 97.34767913818359 14.58625793457031 100.6620025634766 C 16.80480194091797 103.9458618164062 19.35276031494141 107.0339965820312 22.15937805175781 109.8406219482422 C 24.96600341796875 112.6472396850586 28.05413818359375 115.195198059082 31.33799743652344 117.4137420654297 C 34.65232086181641 119.6528625488281 38.19513702392578 121.5758590698242 41.86801910400391 123.1293792724609 C 49.50911712646484 126.3612823486328 57.62828063964844 128 66 128 C 74.3717041015625 128 82.49087524414062 126.3612823486328 90.1319580078125 123.1293792724609 C 93.80485534667969 121.5758590698242 97.34767913818359 119.6528625488281 100.6620025634766 117.4137420654297 C 103.9458618164062 115.195198059082 107.0339965820312 112.6472396850586 109.8406219482422 109.8406219482422 C 112.6472396850586 107.0339965820312 115.195198059082 103.9458618164062 117.4137420654297 100.6620025634766 C 119.6528625488281 97.34767913818359 121.5758590698242 93.80485534667969 123.1293792724609 90.1319580078125 C 126.3612823486328 82.49087524414062 128 74.3717041015625 128 66 C 128 57.62828063964844 126.3612823486328 49.50911712646484 123.1293792724609 41.86801910400391 C 121.5758590698242 38.19513702392578 119.6528625488281 34.65232086181641 117.4137420654297 31.33799743652344 C 115.195198059082 28.05413818359375 112.6472396850586 24.96600341796875 109.8406219482422 22.15937805175781 C 107.0339965820312 19.35276031494141 103.9458618164062 16.80480194091797 100.6620025634766 14.58625793457031 C 97.34767913818359 12.34713745117188 93.80485534667969 10.42411804199219 90.1319580078125 8.870620727539062 C 82.49087524414062 5.638717651367188 74.3717041015625 4 66 4 M 66 0 C 102.4507827758789 0 132 29.54920196533203 132 66 C 132 102.4507827758789 102.4507827758789 132 66 132 C 29.54920196533203 132 0 102.4507827758789 0 66 C 0 29.54920196533203 29.54920196533203 0 66 0 Z" stroke="none" fill="#ef5f5f"/>
    </g>
  </g>
</svg>
