<svg xmlns="http://www.w3.org/2000/svg" width="115" height="115" viewBox="0 0 115 115">
  <path id="fi-rr-play-alt" d="M91.042,115H23.958A23.987,23.987,0,0,1,0,91.042V23.958A23.987,23.987,0,0,1,23.958,0H91.042A23.987,23.987,0,0,1,115,23.958V91.042A23.987,23.987,0,0,1,91.042,115ZM23.958,9.583A14.375,14.375,0,0,0,9.583,23.958V91.042a14.375,14.375,0,0,0,14.375,14.375H91.042a14.375,14.375,0,0,0,14.375-14.375V23.958A14.375,14.375,0,0,0,91.042,9.583Zm20.805,71.9a11.346,11.346,0,0,1-5.683-1.548A11.083,11.083,0,0,1,33.5,70.251v-25.5a11.2,11.2,0,0,1,16.771-9.722l25.29,12.626A11.193,11.193,0,0,1,75.8,67.222L50.039,80.1A10.541,10.541,0,0,1,44.764,81.482Zm-.12-38.333a1.5,1.5,0,0,0-.752.2,1.567,1.567,0,0,0-.8,1.4v25.5a1.615,1.615,0,0,0,2.4,1.4l25.76-12.88a1.5,1.5,0,0,0,.575-1.275,1.557,1.557,0,0,0-.81-1.4L45.736,43.475a2.214,2.214,0,0,0-1.092-.326Z" fill="#fff" opacity="0.801"/>
</svg>
