<svg xmlns="http://www.w3.org/2000/svg" xmlns:xlink="http://www.w3.org/1999/xlink" width="594" height="244" viewBox="0 0 594 244">
  <defs>
    <clipPath id="clip-path">
      <path id="Rectangle_85" data-name="Rectangle 85" d="M0,0H494A100,100,0,0,1,594,100V244a0,0,0,0,1,0,0H0a0,0,0,0,1,0,0V0A0,0,0,0,1,0,0Z" fill="#14334a"/>
    </clipPath>
  </defs>
  <g id="Mask_Group_15" data-name="Mask Group 15" clip-path="url(#clip-path)">
    <g id="Group_104" data-name="Group 104" transform="translate(0 -122.859)" opacity="0.051">
      <path id="Path_32" data-name="Path 32" d="M444,687.251H580.164a267.8,267.8,0,0,0,71.794-9.436l-1.216-12.355H444Z" transform="translate(-264.669 -197.534)" fill="#7d91a0"/>
      <rect id="Rectangle_20" data-name="Rectangle 20" width="206.766" height="21.781" transform="translate(179.276 378.898)" fill="#7d91a0"/>
      <rect id="Rectangle_21" data-name="Rectangle 21" width="206.766" height="21.791" transform="translate(179.276 422.232)" fill="#7d91a0"/>
      <path id="Path_36" data-name="Path 36" d="M540.752,543.8l-51.607-82.428L475.1,438.855v46.221l14.1,22.51L511.835,543.8l13.552,21.625h28.9ZM870.509,372.628v146.61c7.89-23.684,18.7-48.258,18.62-72.856C889.252,421.43,878.445,396.669,870.509,372.628ZM781.84,248.243l-12.428,19.9-12.318,19.722L744.4,308.161,731.755,328.4l-13.176,21.1-13.794,22.011-14.591,23.406-53.8,86.1,14.639,22.54,49-78.357,18.436-29.512,15.558-24.881,14.506-23.192,13.576-21.584,13.358-21.37,12.875-20.577,12.838-20.526Q791.934,255.457,781.84,248.243ZM724.963,513.773V677.358c1.5-.58,2.974-1.16,4.461-1.771q10.952-4.467,21.239-9.617V472.916ZM779.5,419.849l-6.9,10.98V651.3a255.425,255.425,0,0,0,25.689-18.928V389.951Zm61.7-106.112-15.015,23.986-7.108,11.387V607.518a251.471,251.471,0,0,0,25.713-34.294V319.253Q843.1,316.464,841.194,313.737ZM475.1,345.579v3.531h2.2ZM411.51,208.86l.532.855,1.451-.855ZM475.1,345.579v3.531h2.2Zm0,0v3.531h2.2ZM598.959,543.8,489.144,368.13l-11.9-19.019-2.153-3.531V392.39l14.1,22.551,80.5,128.863,13.515,21.625h29.279ZM295.13,208.86V695.289h25.713V208.86Z" transform="translate(-295.13 -208.737)" fill="#537289"/>
      <path id="Path_37" data-name="Path 37" d="M708.139,234.436l-12.362,19.681-5.33,8.473-6.766,10.747-5.744,9.129-6.645,10.542-12.168,19.466L646.653,332.3,633.984,352.44l-12.837,20.408-53.456,84.819-15.1-22.99,48.747-77.454L613.4,338.066l12.035-19.107,12.107-19.23L649.573,280.6l3.881-6.147,8.3-13.2,4.308-6.844,6.279-9.938,1.351-2.151,11.171-17.735q11.68,4.265,22.792,9.528h.073Z" transform="translate(-242.074 -208.351)" fill="#537289" opacity="0.197"/>
      <path id="Path_38" data-name="Path 38" d="M807.4,300.227l-14.432,23.042-14.6,23.389-15.82,25.306-17.316,27.559-20.6,32.887-29.642,47.364L653.82,545.486,640.435,566.8H610.987l-.779-1.249L597.407,545,475.126,348.994l-13.592-21.781-3.394-5.451-10.2-16.392L444,299.028V252.31l5.974,9.559,2.3,3.688,5.914,9.456,5.391,8.637,13.6,21.77,13.629,21.792,13.6,21.781,118.46,189.536,3.286,5.277,7.471-11.967,35.482-56.912,28.548-45.754,19.567-31.351,16.659-26.709,14.991-24.045,14.431-23.114,13.665-21.914,13.52-21.668A252.535,252.535,0,0,1,807.4,300.227Z" transform="translate(-266.742 -207.672)" fill="#537289"/>
      <path id="Path_40" data-name="Path 40" d="M380.13,208.74V698.459h25.882V208.74Z" transform="translate(-277.405 -208.74)" fill="#537289"/>
      <path id="Path_41" data-name="Path 41" d="M338.13,208.74V698.459h25.882V208.74Z" transform="translate(-285.806 -208.74)" fill="#537289"/>
      <rect id="Rectangle_22" data-name="Rectangle 22" width="25.87" height="489.709" transform="translate(151.23 0)" fill="#537289"/>
    </g>
  </g>
</svg>
