<svg id="Group_427" data-name="Group 427" xmlns="http://www.w3.org/2000/svg" width="29.629" height="24.802" viewBox="0 0 29.629 24.802">
  <path id="Path_323" data-name="Path 323" d="M188.972,186.607v10.8H176.885V188.88q0-6.923,2-10.024a16.076,16.076,0,0,1,8.328-6.253l2.756,3.617a9.809,9.809,0,0,0-5.073,3.539,12.978,12.978,0,0,0-1.815,6.847Z" transform="translate(-176.885 -172.603)" fill="#fff"/>
  <path id="Path_324" data-name="Path 324" d="M199.515,186.607v10.8H187.43V188.88q0-6.923,2-10.024a16.089,16.089,0,0,1,8.328-6.253l2.756,3.617a9.8,9.8,0,0,0-5.072,3.539,12.977,12.977,0,0,0-1.817,6.847Z" transform="translate(-170.888 -172.603)" fill="#fff"/>
</svg>
