<svg xmlns="http://www.w3.org/2000/svg" width="40" height="40" viewBox="0 0 40 40">
  <g id="Group_106" data-name="Group 106" transform="translate(-2905 -5671)">
    <circle id="Ellipse_10" data-name="Ellipse 10" cx="20" cy="20" r="20" transform="translate(2905 5671)" fill="#14334a"/>
    <g id="google_business" data-name="google business" transform="translate(2912.424 5678.505)">
      <path id="Path_95" data-name="Path 95" d="M41.265,201.127H20.5a.738.738,0,0,1-.6-.836V189.278a.981.981,0,0,1,.013-.194c.019-.13.084-.188.22-.149a1.5,1.5,0,0,1,.182.065,4.868,4.868,0,0,0,4.447-.382.525.525,0,0,1,.616,0,4.893,4.893,0,0,0,5.264-.039.419.419,0,0,1,.486,0,4.918,4.918,0,0,0,5.309.013.469.469,0,0,1,.532-.006,4.887,4.887,0,0,0,4.512.4c.324-.123.389-.084.389.266V200.3A.733.733,0,0,1,41.265,201.127ZM37.24,195.4a2.175,2.175,0,1,1-.473-2.45.733.733,0,1,0,.992-1.07A3.537,3.537,0,0,0,35.5,190.9a3.642,3.642,0,1,0,3.4,3.708.741.741,0,0,0-.8-.8H36.034a.728.728,0,1,0,.013,1.452h1.225C37.3,195.326,37.259,195.365,37.24,195.4Z" transform="translate(-18.61 -176.374)" fill="#fff"/>
      <path id="Path_96" data-name="Path 96" d="M24.555,135.9a3.629,3.629,0,0,1-6.229,1.7c-.233-.246-.227-.246-.447-.007a3.619,3.619,0,0,1-5.419-.045c-.136-.149-.194-.2-.357-.013a3.616,3.616,0,0,1-5.5-.019c-.1-.117-.149-.181-.292-.019a3.479,3.479,0,0,1-3.662,1.173A3.531,3.531,0,0,1,0,135.9Z" transform="translate(0 -127.184)" fill="#fff"/>
      <path id="Path_97" data-name="Path 97" d="M2.3,7.28c.3-.758.6-1.5.888-2.236C3.778,3.565,4.374,2.087,4.964.6A.771.771,0,0,1,5.839,0H9.463C9.217,1.238,8.97,2.457,8.73,3.675c-.22,1.1-.447,2.2-.655,3.3-.045.246-.13.311-.382.311-1.7-.013-3.41-.006-5.114-.006Z" transform="translate(-2.151 -0.094)" fill="#fff"/>
      <path id="Path_98" data-name="Path 98" d="M273.563,7.273c-1.88,0-3.721-.006-5.562.006-.194,0-.175-.123-.194-.227-.35-1.731-.694-3.468-1.037-5.2-.11-.564-.22-1.121-.337-1.685-.026-.123-.019-.182.136-.175C267.755,0,268.947,0,270.134,0a.771.771,0,0,1,.758.564q.972,2.441,1.945,4.868C273.07,6.041,273.31,6.644,273.563,7.273Z" transform="translate(-249.151 -0.087)" fill="#fff"/>
      <path id="Path_99" data-name="Path 99" d="M113.3,7.186c.318-1.575.622-3.118.933-4.661.162-.817.331-1.627.486-2.444.026-.136.071-.182.214-.182.8.006,1.6.006,2.4,0,.162,0,.175.058.175.194-.006,2.3,0,4.609,0,6.91,0,.1.026.182-.136.182Z" transform="translate(-105.956 0)" fill="#fff"/>
      <path id="Path_100" data-name="Path 100" d="M201.306,3.63c0-1.141.007-2.282-.006-3.416,0-.169.032-.214.207-.214q1.176.019,2.353,0c.169,0,.214.065.24.207.421,2.133.849,4.272,1.277,6.4.045.22.2.5.084.635-.091.11-.408.032-.629.032-1.108,0-2.217-.006-3.319.006-.169,0-.214-.045-.207-.214C201.313,5.925,201.306,4.777,201.306,3.63Z" transform="translate(-188.251 -0.094)" fill="#fff"/>
    </g>
  </g>
</svg>
