<svg xmlns="http://www.w3.org/2000/svg" width="70" height="70" viewBox="0 0 70 70">
  <g id="Group_3135" data-name="Group 3135" transform="translate(186.233 -494.525)">
    <path id="Path_4308" data-name="Path 4308" d="M-129.677,562.816a6.724,6.724,0,0,1-2.562-1.826q-14.682-14.707-29.393-29.386c-.4-.4-.463-.61-.017-1.052q5.818-5.757,11.583-11.569c.172-.173.316-.375.574-.684a5.72,5.72,0,0,0,.459.625q15,15.008,30,30.009a3.475,3.475,0,0,1,.961,4.059,3.923,3.923,0,0,1-.854,1.183c-2.491,2.486-4.987,4.966-7.46,7.471a5.458,5.458,0,0,1-1.953,1.17Zm9.126-12.417q-14.269-14.265-28.531-28.539c-.347-.348-.512-.365-.867-.005q-4.345,4.395-8.742,8.739c-.4.394-.384.575,0,.962q10.3,10.255,20.562,20.54,4.015,4.016,8.035,8.027c.734.731,1.43.792,2.1.131q3.838-3.815,7.651-7.655a1.294,1.294,0,0,0,.434-1.025A1.566,1.566,0,0,0-120.551,550.4Z" transform="translate(1.537 1.709)" fill="#14334a"/>
    <path id="Path_4309" data-name="Path 4309" d="M-186.233,500.645c.257-.011.354-.24.5-.387,1.818-1.806,3.643-3.6,5.428-5.444.406-.418.6-.357.969.021,2.726,2.756,5.485,5.481,8.211,8.238.35.354.515.358.866,0a3.418,3.418,0,0,1,5.328-.042q6.694,6.682,13.377,13.376c.11.11.215.225.338.354-.142.15-.275.3-.415.436q-5.883,5.887-11.758,11.783c-.337.339-.5.377-.857.013q-6.641-6.687-13.318-13.341a3.409,3.409,0,0,1,.012-5.28c.414-.4.364-.589-.017-.965-2.9-2.862-5.78-5.75-8.665-8.629Zm17.625,3.754q-3.8,3.806-7.607,7.613a1.3,1.3,0,0,0,.006,2.005q6.039,6.06,12.091,12.108c.225.226.354.233.581.005q4.527-4.548,9.075-9.075c.23-.23.217-.361-.007-.583q-6.095-6.052-12.175-12.118a1.205,1.205,0,0,0-.96-.39A1.266,1.266,0,0,0-168.608,504.4Zm-10.945-6.817c-.267-.266-.393-.128-.581.062-.924.934-1.848,1.867-2.788,2.783-.236.229-.29.368-.027.629q3.549,3.533,7.072,7.092c.184.184.291.249.514.023,1.045-1.061,2.112-2.1,3.261-3.235C-174.614,502.461-177.09,500.028-179.553,497.582Z" fill="#14334a"/>
    <path id="Path_4310" data-name="Path 4310" d="M-142.268,537.877l-3.528,3.579c-.387-2.218-.757-4.329-1.122-6.442-.243-1.4-.454-2.81-.734-4.2-.094-.468.036-.6.463-.62.506-.024,1.138-.422,1.461-.145.3.261.261.943.349,1.443.293,1.664.577,3.33.863,4.995a.781.781,0,0,0,.216.537l3.421-3.455c.216,1.2.417,2.281.6,3.366.387,2.235.75,4.474,1.161,6.7.075.406-.055.49-.39.56-1.591.336-1.6.344-1.888-1.246C-141.688,541.314-141.958,539.676-142.268,537.877Z" transform="translate(0.99 1.124)" fill="#14334a"/>
  </g>
</svg>
