<svg xmlns="http://www.w3.org/2000/svg" width="65.121" height="64.064" viewBox="0 0 65.121 64.064">
  <g id="Group_458" data-name="Group 458" transform="translate(440.488 -300.534)">
    <path id="Path_353" data-name="Path 353" d="M-439.988,394.256a15.734,15.734,0,0,0,.517-2.273,15.9,15.9,0,0,1,11.581-11.489,16.112,16.112,0,0,1,4.4-.509q19.439,0,38.878,0a6.448,6.448,0,0,0,6.427-4.912,6.368,6.368,0,0,0-5.85-7.856c-4.526-.092-9.056-.042-13.584-.026-.528,0-.713-.09-.7-.669.047-1.482.014-1.484,1.484-1.482,4.257.006,8.515-.057,12.77.04a8.369,8.369,0,0,1,8.089,7.312c.012.082.013.165.1.2v2.129a16.934,16.934,0,0,1-.882,2.627,8.158,8.158,0,0,1-7.4,4.736c-7.136.087-14.274.032-21.411.033q-9.047,0-18.093,0a13.636,13.636,0,0,0-9.914,3.9A13.3,13.3,0,0,0-437.64,398.2a13.713,13.713,0,0,0,10.825,11.411,14.7,14.7,0,0,0,3.234.3c5.718-.007,11.436,0,17.154-.016.511,0,.717.1.639.636-.071.487.211,1.144-.115,1.429-.275.241-.911.079-1.388.079-5.426,0-10.852.022-16.278,0a15.839,15.839,0,0,1-14.363-8.194,15.069,15.069,0,0,1-1.914-5.705c-.018-.13.047-.3-.142-.374v-.626a.162.162,0,0,0,0-.251v-1.753a.162.162,0,0,0,0-.25Z" transform="translate(0 -53.3)" fill="#14334a" stroke="#14334a" stroke-width="1"/>
    <path id="Path_354" data-name="Path 354" d="M-439.988,320.3c1.624,0,3.247.005,4.871-.017.377-.005.49.089.493.482.013,1.661.027,1.66-1.617,1.661l-3.747,0Z" transform="translate(0 -16.031)" fill="#14334a" stroke="#14334a" stroke-width="1"/>
    <path id="Path_355" data-name="Path 355" d="M-439.988,345.83c1.624,0,3.249.012,4.873-.009.378,0,.529.086.486.482-.057.532.218,1.218-.109,1.564-.3.32-.986.086-1.5.092-1.249.013-2.5,0-3.748,0Z" transform="translate(0 -37.306)" fill="#14334a" stroke="#14334a" stroke-width="1"/>
    <path id="Path_356" data-name="Path 356" d="M-439.988,371.353c1.6,0,3.205.021,4.807,0,.432-.006.56.105.557.548-.01,1.6.008,1.6-1.556,1.6-1.269,0-2.539-.009-3.808-.014Z" transform="translate(0 -58.572)" fill="#14334a" stroke="#14334a" stroke-width="1"/>
    <path id="Path_357" data-name="Path 357" d="M-439.988,543.788c.168.083.145.167,0,.25Z" transform="translate(0 -202.206)" fill="#14334a" stroke="#14334a" stroke-width="1"/>
    <path id="Path_358" data-name="Path 358" d="M-439.988,555.782c.143.083.169.167,0,.251Z" transform="translate(0 -212.197)" fill="#14334a" stroke="#14334a" stroke-width="1"/>
    <path id="Path_359" data-name="Path 359" d="M-226.6,514.693a1.572,1.572,0,0,1-1.522.746c-1.46-.028-2.922.008-4.382-.019-.421-.008-.508.123-.506.521.015,3.923.009,7.845.009,11.768,0,1.274-.329,1.611-1.576,1.612q-9.14,0-18.28,0c-1.177,0-1.536-.357-1.536-1.525,0-3.923-.01-7.845.012-11.768,0-.492-.123-.619-.611-.608-1.46.034-2.921.01-4.382.013-.575,0-1.1-.106-1.334-.709s.1-1.027.532-1.4q7.759-6.719,15.514-13.441c.752-.651,1.17-.653,1.913-.013q1.587,1.369,3.172,2.74a.861.861,0,0,0,.159.049c0-.571,0-1.116,0-1.661,0-1.3.284-1.592,1.562-1.593h3.193c1.37,0,1.661.286,1.661,1.635,0,2.254.008,4.507-.008,6.76a.987.987,0,0,0,.381.85c1.746,1.489,3.469,3.005,5.209,4.5a3.947,3.947,0,0,1,.819.919Zm-27.229-1.4c1.287,0,1.57.285,1.57,1.582,0,3.9.01,7.8-.012,11.707,0,.5.139.631.625.613,1.042-.037,2.087-.035,3.13,0,.458.015.54-.149.544-.567.018-1.793-.108-3.589.07-5.379a4.236,4.236,0,0,1,4.219-3.68,4.238,4.238,0,0,1,4.194,3.709c.162,1.77.053,3.545.062,5.317,0,.45.087.621.579.6,1.021-.042,2.046-.042,3.067,0,.519.021.657-.132.654-.651-.022-3.944-.014-7.888-.011-11.832,0-1.081.338-1.415,1.419-1.419,1.009,0,2.019,0,3.2,0-1.405-1.218-2.668-2.331-3.955-3.417a1.738,1.738,0,0,1-.671-1.461c.025-2.128,0-4.257.018-6.385,0-.367-.063-.538-.473-.5a6.969,6.969,0,0,1-1.188,0c-.37-.029-.51.062-.494.47.035.9.008,1.794.012,2.691,0,.565-.062,1.1-.661,1.363-.574.255-.995-.044-1.4-.4-1.3-1.138-2.63-2.254-3.914-3.415-.365-.33-.568-.275-.9.021-2.1,1.846-4.219,3.669-6.332,5.5l-6.382,5.533Zm7.978,13.357c-.012.385.062.558.505.545,1.1-.033,2.209-.029,3.313,0,.4.01.486-.137.482-.5-.017-1.542,0-3.084-.013-4.625a3.184,3.184,0,0,0-.129-.922,2.1,2.1,0,0,0-2.173-1.434,2.086,2.086,0,0,0-1.916,1.757,24.183,24.183,0,0,0-.061,2.7C-245.844,525.106-245.826,525.878-245.851,526.648Z" transform="translate(-149.267 -165.222)" fill="#14334a" stroke="#14334a" stroke-width="1"/>
    <path id="Path_360" data-name="Path 360" d="M-384.432,301.035q4.571,0,9.141,0c1.143,0,1.49.349,1.5,1.487,0,.417.025.837-.007,1.252-.03.384.1.5.486.492,1.857-.021,3.715.012,5.572-.02a1.49,1.49,0,0,1,1.473.82c.927,1.6,1.89,3.188,2.855,4.769a2.163,2.163,0,0,1,.328,1.182c-.009,1.9,0,3.8-.005,5.7,0,1.044-.394,1.429-1.437,1.437-.48,0-.961.014-1.44,0-.265-.01-.333.078-.374.343a3.165,3.165,0,0,1-3.185,2.842,3.16,3.16,0,0,1-3.149-2.814c-.047-.293-.121-.373-.413-.372q-5.51.015-11.019,0c-.306,0-.359.1-.4.382a3.164,3.164,0,0,1-3.158,2.806,3.166,3.166,0,0,1-3.176-2.852c-.043-.276-.13-.338-.383-.333-.793.013-1.586.006-2.379,0-1.2,0-1.541-.33-1.541-1.5q0-7.074,0-14.148c0-1.11.349-1.463,1.453-1.464Q-389.065,301.031-384.432,301.035Zm-7.965,2.127c-.473,0-.639.091-.629.605.036,1.752.014,3.505.014,5.258,0,2.17.01,4.34-.009,6.51,0,.386.1.508.489.486.6-.034,1.211-.029,1.815,0a1.463,1.463,0,0,0,1.068-.363,3.04,3.04,0,0,1,4.054.1,1.072,1.072,0,0,0,.79.261c2.755,0,5.509-.016,8.264.009.492,0,.622-.124.619-.617q-.032-5.822,0-11.643c0-.525-.174-.6-.638-.6-2.629.02-5.259.01-7.888.01C-387.1,303.172-389.747,303.184-392.4,303.162ZM-373.79,315.5c0,.17-.087.487.141.475.7-.036,1.43.292,2.086-.264a2.9,2.9,0,0,1,3.745-.229,3.245,3.245,0,0,0,2.144.536c.368.015.456-.123.452-.468q-.024-2.128,0-4.256c0-.474-.167-.659-.665-.65-1.481.028-2.963.015-4.444.008-.907,0-1.289-.378-1.318-1.285-.015-.458,0-.918,0-1.377-.008-.516.17-1.224-.095-1.5-.317-.329-1.027-.056-1.562-.108-.382-.037-.5.087-.492.48.024,1.439.01,2.879.01,4.318S-373.8,314.063-373.79,315.5Zm5.911-8.954a.365.365,0,0,0-.308-.162c-1.24-.167-1.322-.1-1.322,1.119,0,.228.01.457,0,.685s.033.343.3.338c.8-.014,1.609-.005,2.507-.005Zm-20.858,11.536a1.056,1.056,0,0,0,1.031,1.1,1.064,1.064,0,0,0,1.087-1.053,1.1,1.1,0,0,0-1.037-1.058A1.089,1.089,0,0,0-388.736,318.085Zm19.21-1.01a1.108,1.108,0,0,0-1.048,1.049,1.065,1.065,0,0,0,1.014,1.063,1.054,1.054,0,0,0,1.106-1.028A1.09,1.09,0,0,0-369.527,317.075Z" transform="translate(-37.346)" fill="#14334a" stroke="#14334a" stroke-width="1"/>
  </g>
</svg>
