<svg xmlns="http://www.w3.org/2000/svg" width="54.319" height="70" viewBox="0 0 54.319 70">
  <g id="Group_3136" data-name="Group 3136" transform="translate(403.033 -223.465)">
    <path id="Path_4312" data-name="Path 4312" d="M-391.771,293.465a3.6,3.6,0,0,1-2.453-2.4,3.269,3.269,0,0,1,3.03-4.15c.836-.026,1.673-.006,2.51-.007h2.426c.091-.232-.1-.3-.191-.405a14.079,14.079,0,0,1-3.539-8.937c-.017-.439-.145-.505-.539-.511a22.877,22.877,0,0,1-4.931-.243,9.867,9.867,0,0,1-7.565-10.142,9.843,9.843,0,0,1,8.377-9.184,13.046,13.046,0,0,1,1.893-.1c2.917,0,5.834.009,8.75-.012.422,0,.521.106.52.526,0,1.672.016,1.672-1.609,1.672-2.736,0-5.472-.024-8.208.007a7.624,7.624,0,0,0-7.551,8.014,7.643,7.643,0,0,0,7.126,7.267c1.152.052,2.307,0,3.459.03.35.009.459-.126.521-.449a13.985,13.985,0,0,1,6.369-9.415,1.208,1.208,0,0,0,.487-.62q.7-1.806,1.433-3.6a2.037,2.037,0,0,0,.135-.8c0-1.412-.014-2.825.005-4.237.006-.4-.037-.671-.526-.571s-.585-.13-.578-.592c.02-1.6,0-1.585,1.55-1.6.557,0,1.318.255,1.616-.106.281-.341.1-1.08.1-1.645.007-1.139-.01-2.278.009-3.417.006-.351-.085-.491-.448-.6a7.84,7.84,0,0,1-4.737-3.72,15.88,15.88,0,0,1-1.3-2.31c-.111-.3-.3-.219-.473-.221-.814-.009-1.628-.015-2.442,0-.288.006-.431-.068-.381-.377a.309.309,0,0,0,0-.068c-.061-1.748-.061-1.748,1.658-1.748,2.51,0,5.02-.014,7.53.012.47,0,.63-.1.594-.591-.038-.514-.175-1.225.091-1.5.316-.332,1.024-.052,1.556-.112.421-.047.541.093.525.519-.022.538-.244,1.263.086,1.572.358.337,1.075.054,1.631.108.361.035.453-.1.449-.452q-.029-2.289,0-4.579c.005-.364-.1-.483-.454-.447a4.089,4.089,0,0,1-.813,0c-.593-.058-1.094-.042-.915.8.051.24-.078.327-.308.3-.112-.011-.226,0-.339,0-.474,0-1.07.168-1.39-.057-.347-.245-.11-.885-.122-1.35a.536.536,0,0,0-.33-.519,6.55,6.55,0,0,1-3.127-3.946c-.248-.8-.555-1.587-.771-2.4-.112-.421-.32-.489-.7-.487-1.621.009-1.6,0-1.605-1.669,0-.429.112-.525.525-.52,2.035.022,4.07.01,6.105.01,4.116,0,8.231.009,12.346-.012.481,0,.638.12.581.6-.06.513.214,1.22-.108,1.5-.306.263-.985.117-1.5.094a.574.574,0,0,0-.7.495c-.241.874-.545,1.731-.833,2.591a6.489,6.489,0,0,1-3.009,3.719.661.661,0,0,0-.381.691c.013,1.709.022,3.417-.006,5.125-.006.429.109.525.524.522,2.894-.019,5.789,0,8.683-.023.481,0,.593.123.587.6-.023,1.6-.007,1.676-1.611,1.576-1.092-.068-1.854.134-2.237,1.271a7.645,7.645,0,0,1-.785,1.35,7.86,7.86,0,0,1-4.706,3.66c-.363.1-.454.245-.451.6.017,1.572.023,3.144,0,4.715-.007.417.148.48.505.468.768-.024,1.538.006,2.306-.013.33-.009.508.05.463.438a4.611,4.611,0,0,0,0,.887c.046.573.024,1.055-.772.872-.289-.067-.322.122-.321.36.007,1.572-.018,3.144.015,4.715a6.14,6.14,0,0,0,.573,1.662,8.7,8.7,0,0,0,2.963,4.252,14.12,14.12,0,0,1,1.579,20.309l-.351.411h2.92c.678,0,1.357-.007,2.035,0a3.287,3.287,0,0,1,3.281,2.934,3.262,3.262,0,0,1-2.54,3.526.565.565,0,0,0-.159.1h-3.8a2.83,2.83,0,0,1-.143-1.926c.054-.393.409-.447.735-.463.7-.035,1.4-.009,2.1-.017a2.428,2.428,0,0,0,.8-.088.78.78,0,0,0,.57-.764.793.793,0,0,0-.535-.792,2.417,2.417,0,0,0-.937-.106q-14.577,0-29.154,0a3.243,3.243,0,0,0-.675.044.8.8,0,0,0-.709.793.806.806,0,0,0,.706.865,4.521,4.521,0,0,0,1.014.048h22.713c1.52,0,1.612.1,1.55,1.633a1.136,1.136,0,0,1-.212.772Zm8.765-13.779c.326.436.61.9.956,1.323.49.593.97.587,1.462-.012.33-.4.605-.85.913-1.27a3.635,3.635,0,0,1,1.767-1.428,3.062,3.062,0,0,1,3.543,1.333c.343.451.639.94,1,1.377.473.575.953.591,1.418.04.35-.414.634-.884.958-1.321,1.579-2.133,3.819-2.129,5.393.01.3.415.591.843.923,1.318.082-.2.142-.316.182-.442a12.073,12.073,0,0,0-5.12-13.771,2.256,2.256,0,0,1-1.2-1.383c-.1-.411-.273-.368-.557-.155q-1.059.795-2.15,1.545c-.27.186-.308.3-.115.616a6.768,6.768,0,0,1,.337,6.585,2.8,2.8,0,0,1-2.582,1.9,2.776,2.776,0,0,1-2.594-1.882,6.782,6.782,0,0,1,.348-6.645c.141-.231.206-.343-.058-.524-.784-.537-1.554-1.1-2.318-1.662-.219-.162-.352-.188-.423.118a2.678,2.678,0,0,1-1.439,1.612,11.912,11.912,0,0,0-5.285,11.9A3.074,3.074,0,0,1-383.006,279.686Zm13.441,7.217a1.141,1.141,0,0,0,.772-.162,12.2,12.2,0,0,0,3.01-3.3c.068-.109.274-.241.07-.4a15.735,15.735,0,0,1-1.928-2.365.789.789,0,0,0-1.334.026,14.165,14.165,0,0,0-.838,1.155c-1.685,2.4-3.987,2.391-5.67-.025-.221-.316-.428-.644-.665-.947-.59-.753-1.1-.748-1.686.021-.29.377-.538.788-.822,1.169-1.564,2.092-3.794,2.084-5.352-.019-.324-.437-.62-.9-.955-1.324a.792.792,0,0,0-1.185-.224,1.316,1.316,0,0,0-.637,1.469,12.169,12.169,0,0,0,3.666,4.658,1.3,1.3,0,0,0,.872.268c2.1-.009,4.205,0,6.307,0Zm-12.314-43.66a5.594,5.594,0,0,0,4.377,2.1c1,.018,1.99,0,2.985.005,2.867.019,4.79-1.631,5.92-4.357h-14.7A17.767,17.767,0,0,0-381.879,243.243Zm1.79-14.326a4.19,4.19,0,0,0,2.79,2.1,6.916,6.916,0,0,0,1.956.107,4.157,4.157,0,0,0,3.475-1.933,17.678,17.678,0,0,0,1.342-3.5h-10.735A24.155,24.155,0,0,0-380.089,228.917Zm1.334,30.643c-.263,0-.447.024-.4.357a4.493,4.493,0,0,1-.615,2.473c-.171.39-.165.61.226.874,1.107.745,2.182,1.539,3.253,2.336a.523.523,0,0,0,.753.027q1.658-1.241,3.365-2.412a.494.494,0,0,0,.191-.721,4.866,4.866,0,0,1-.659-2.6c.051-.362-.189-.33-.421-.329-.927,0-1.853,0-2.78,0C-376.812,259.564-377.784,259.571-378.755,259.56Zm4.519-2.183c1.624,0,1.607,0,1.608-1.672,0-.419-.1-.535-.52-.526-1.446.029-2.893.011-4.34.011-1.721,0-1.71,0-1.674,1.741.008.354.092.464.45.455.927-.026,1.854-.009,2.781-.009Zm-.574-8.185c0-1.693,0-1.671-1.68-1.671-.452,0-.508.158-.5.546.023,1.093.008,2.186.008,3.279,0,1.693,0,1.672,1.68,1.671.452,0,.514-.158.5-.546-.028-.728-.008-1.457-.008-2.186Zm-.615,19.519c-.339-.5-.569-.5-.927-.026a4.755,4.755,0,0,0,0,4.725c.358.468.588.472.926-.031a4.2,4.2,0,0,0,.615-2.338A4.193,4.193,0,0,0-375.425,268.711Z" fill="#14334a"/>
    <path id="Path_4313" data-name="Path 4313" d="M-353.083,245.348c-.129-.328-.365-.324-.527-.425a3.218,3.218,0,0,1-1.652-2.868,2.993,2.993,0,0,1,1.688-2.825c.544-.272.433-.634.482-1.042.052-.432-.125-.616-.5-.805a2.4,2.4,0,0,1-1.224-2.768c.194-.84.424-1.672.623-2.512a1.041,1.041,0,0,1,.739-.892c.393-.083.354-.316.353-.589,0-1.481.015-2.961-.012-4.441-.007-.416.09-.53.516-.529,1.665,0,1.665-.016,1.665,1.684,0,1.116.008,2.232-.005,3.348,0,.28.031.441.352.522a1.068,1.068,0,0,1,.742.892c.2.839.429,1.672.622,2.512a2.4,2.4,0,0,1-1.338,2.832c-.29.143-.442.3-.367.6.087.356-.252.8.292,1.071a3.121,3.121,0,0,1,1.861,3,3.177,3.177,0,0,1-1.949,2.951.982.982,0,0,0-.161.111c-.014.011-.013.039-.051.168.617,0,1.206.014,1.794-.006.29-.01.372.074.389.377.1,1.8.109,1.815-1.668,1.806-.434,0-.605.08-.666.571a13.357,13.357,0,0,1-11.448,11.352c-1.8.207-3.613.063-5.419.12-.255.008-.333-.067-.356-.338-.161-1.854-.169-1.848,1.63-1.854a17.53,17.53,0,0,0,5.645-.476,11.151,11.151,0,0,0,7.766-8.745c.113-.513-.017-.647-.546-.634-1.461.034-1.428.006-1.477-1.453-.019-.6.128-.8.73-.731A12.593,12.593,0,0,0-353.083,245.348Zm2.15-3.282A1.1,1.1,0,0,0-352,240.977a1.091,1.091,0,0,0-1.1,1.125,1.094,1.094,0,0,0,1.1,1.056A1.1,1.1,0,0,0-350.933,242.066Zm-.508-7.358c-.091-.371-.194-.74-.271-1.115-.037-.177-.089-.281-.295-.279s-.269.076-.308.264a9.666,9.666,0,0,1-.3,1.178c-.189.554-.085.842.5.75C-351.26,235.513-351.247,235.495-351.441,234.708Z" fill="#14334a"/>
    <path id="Path_4314" data-name="Path 4314" d="M-382.369,272.687c1.046,0,1.046,0,1.046,1.065,0,1.122,0,1.122-1.126,1.122-1.045,0-1.045,0-1.045-1.065C-383.494,272.687-383.494,272.687-382.369,272.687Z" fill="#14334a"/>
    <path id="Path_4315" data-name="Path 4315" d="M-369.44,274.874c-1.028,0-1.028,0-1.028-1.015,0-1.172,0-1.172,1.143-1.172,1.028,0,1.028,0,1.028,1.015C-368.3,274.874-368.3,274.874-369.44,274.874Z" fill="#14334a"/>
  </g>
</svg>
