<svg xmlns="http://www.w3.org/2000/svg" width="40" height="40" viewBox="0 0 40 40">
  <g id="Group_3033" data-name="Group 3033" transform="translate(-1180 -1121)">
    <circle id="Ellipse_4" data-name="Ellipse 4" cx="20" cy="20" r="20" transform="translate(1180 1121)" fill="#ffffff"/>
    <g id="_001-email" data-name="001-email" transform="translate(1239 897)">
      <path id="Path_771" data-name="Path 771" d="M297.163,301.9v8.934l-6.771-4.374Z" transform="translate(-326.163 -62.35)" fill="#14334a"/>
      <path id="Path_772" data-name="Path 772" d="M-42.229,306.455-49,310.83V301.9Z" transform="translate(0 -62.35)" fill="#14334a"/>
      <path id="Path_773" data-name="Path 773" d="M-28.115,238.068A1.236,1.236,0,0,0-29.328,237h-17.5a1.236,1.236,0,0,0-1.212,1.068l9.962,6.592Z" transform="translate(-0.922)" fill="#14334a"/>
      <path id="Path_774" data-name="Path 774" d="M-37.672,436.091a.622.622,0,0,1-.344.1.622.622,0,0,1-.344-.1l-1.769-1.171-7.847,4.985a1.234,1.234,0,0,0,1.21,1.059h17.5a1.234,1.234,0,0,0,1.21-1.059l-7.847-4.984Z" transform="translate(-0.984 -189.964)" fill="#14334a"/>
    </g>
  </g>
</svg>
