<svg xmlns="http://www.w3.org/2000/svg" width="38.077" height="38.127" viewBox="0 0 38.077 38.127">
  <g id="Group_3118" data-name="Group 3118" transform="translate(-1219.607 -371.952)">
    <path id="Path_4252" data-name="Path 4252" d="M1249.63,405.029h-8.519a3.213,3.213,0,0,1,.6,1.787,3.043,3.043,0,0,1-3.067,3.077c-3.788.01-7.576,0-11.364,0-2.4,0-4.8,0-7.207.007-.263,0-.362-.055-.332-.329s-.083-.67.063-.841.55-.066.836-.049c.268.015.333-.063.333-.331-.011-3.026,0-6.051-.014-9.077,0-.3.071-.377.37-.371.991.02,1.983.018,2.974,0,.269,0,.332.065.331.332-.01,3.026,0,6.051-.014,9.077,0,.3.074.376.371.37.856-.02.857-.006.857-.868q0-6.1-.007-12.2c0-.3.078-.374.372-.368q1.487.029,2.974,0c.272,0,.329.071.329.334-.009,4.233,0,8.467-.015,12.7,0,.34.084.417.413.407.816-.026.817-.008.817-.833,0-2.059.006-4.119-.007-6.178,0-.274.074-.331.336-.327,1,.016,2.009.018,3.012,0,.276-.005.328.077.326.337-.011,2.212,0,4.424-.015,6.636,0,.309.089.378.376.364.468-.023.938-.006,1.455-.006a3.391,3.391,0,0,1-.6-1.639,3.011,3.011,0,0,1,2.016-3.043c.241-.087.307-.182.26-.429q-1.565-8.285-3.12-16.572a1.8,1.8,0,0,0-1.838-1.5q-3.832-.007-7.665,0a.615.615,0,0,1-.516-.234q-2.41-2.729-4.838-5.443a.766.766,0,0,1-.177-.438,2.815,2.815,0,0,1,.935-2.525c1.411-1.461,2.722-3.021,4.066-4.547a.654.654,0,0,1,.548-.25q9.857.011,19.715,0c.337,0,.379.1.378.4-.012,2.821-.007,5.643-.007,8.545a6.689,6.689,0,0,1,5.276-2.824,6.473,6.473,0,0,1,5.387,2.437,6.715,6.715,0,0,1-1.267,9.734,5.476,5.476,0,0,1,.869.136,2.683,2.683,0,0,1,1.813,3.376c-.6,1.908-1.241,3.806-1.894,5.7a2.662,2.662,0,0,1-2.648,1.8q-6.9,0-13.8-.005c-.312,0-.42.035-.33.386a13.422,13.422,0,0,1,.323,1.72c.038.316.177.347.441.346q6.235-.01,12.47,0a3.049,3.049,0,1,1-2.036,5.245,3.01,3.01,0,0,1-.5-3.736Zm-5.821-20.756c.285,0,.352-.066.351-.351q-.017-5.148,0-10.3c0-.285-.066-.351-.351-.351q-8.809.014-17.618,0c-.284,0-.352.066-.351.351q.017,5.149,0,10.3c0,.285.066.352.351.351,2.936-.012,5.873-.007,8.809-.007S1240.873,384.261,1243.809,384.273Zm1.565.6a5.491,5.491,0,1,0,5.505-5.487A5.5,5.5,0,0,0,1245.374,384.871Zm-1.151.845c-.035-.285-.209-.229-.377-.229h-8.427a3.687,3.687,0,0,1,.567,1.319c.2,1.072.42,2.141.594,3.218.049.306.168.351.437.35q4.784-.012,9.569-.005H1247A6.705,6.705,0,0,1,1244.223,385.716Zm-19.614-11.407c-.128.139-.219.235-.307.334q-1.506,1.694-3.012,3.388a.96.96,0,0,0,0,1.482c.322.359.641.721.962,1.082l2.36,2.652Zm2.459,33.527c0,.842,0,.825.838.849.318.009.391-.073.39-.39-.013-3.648-.008-7.3-.008-10.945,0-.883,0-.869-.876-.886-.285-.006-.354.066-.351.351.014,1.907.007,3.813.007,5.72Zm25.031-2.82a1.83,1.83,0,1,0,1.815,1.825A1.836,1.836,0,0,0,1252.1,405.015Zm-13.4,0a1.83,1.83,0,1,0,1.795,1.845A1.837,1.837,0,0,0,1238.7,405.015Zm-16.51,2.782c0,.882,0,.869.877.886.286.006.353-.067.351-.352-.013-2.428-.007-4.856-.007-7.283,0-.927,0-.917-.915-.923-.249,0-.314.063-.312.312.013,1.309.006,2.618.006,3.928Zm10.983-4.309c0-.927,0-.917-.915-.922-.25,0-.313.065-.311.313.011,1.627.006,3.254.006,4.881,0,.94,0,.932.954.922.216,0,.274-.059.272-.274-.012-.928-.005-1.856-.005-2.783Zm19.734-9.463c-.17,0-.214.051-.212.215q.013,1.009,0,2.019c0,.167.046.216.214.214.736-.008,1.473-.006,2.209,0a.217.217,0,0,0,.251-.168c.24-.746.491-1.488.753-2.275C1255.011,394.03,1253.957,394.034,1252.9,394.026Zm-15.333,0c-.2-.007-.231.068-.2.241.129.658.257,1.317.372,1.978.03.171.091.232.268.23q1.122-.013,2.245,0c.176,0,.241-.039.238-.228-.012-.659-.015-1.319,0-1.978.005-.219-.082-.246-.263-.241-.431.01-.862,0-1.293,0C1238.484,394.03,1238.027,394.04,1237.571,394.025Zm6.587.248c.013-.212-.07-.25-.259-.247-.648.01-1.3.013-1.944,0-.211,0-.25.07-.247.259.01.648.013,1.3,0,1.944,0,.211.07.25.259.247.648-.01,1.3-.013,1.944,0,.211,0,.254-.07.246-.259-.013-.33,0-.661,0-.991S1244.139,394.589,1244.158,394.273Zm3.6-.163c-.23-.258-.786-.065-1.2-.077-.379-.01-.891-.138-1.1.053-.243.219-.066.739-.074,1.127-.009.4-.148.951.056,1.177.232.258.787.065,1.2.076.379.01.888.138,1.1-.053.249-.22.04-.74.059-1.128C1247.8,394.882,1247.955,394.335,1247.754,394.11Zm3.662,0c-.23-.259-.786-.065-1.2-.077-.379-.011-.89-.139-1.1.053-.244.219-.066.739-.074,1.127-.009.4-.149.95.055,1.177.232.259.787.065,1.2.077.379.011.887.138,1.1-.052.25-.22.039-.74.06-1.127C1251.458,394.883,1251.617,394.337,1251.416,394.11Zm-9.625,3.642c-.257.231-.065.787-.076,1.2-.01.379-.137.891.054,1.1.219.242.739.065,1.128.073.4.008.951.147,1.176-.057.257-.233.065-.787.076-1.2.01-.379.137-.889-.054-1.1-.22-.248-.74-.04-1.128-.057C1242.563,397.71,1242.015,397.551,1241.791,397.752Zm5.943,2.32c.258-.23.065-.786.077-1.2.01-.379.138-.891-.053-1.1-.219-.243-.739-.066-1.127-.074-.4-.009-.95-.148-1.177.056-.258.233-.065.787-.076,1.2-.01.379-.138.888.053,1.1.22.249.74.039,1.128.059C1246.962,400.115,1247.509,400.274,1247.734,400.073Zm1.378,0c.224.2.749.064,1.141.054s.938.174,1.164-.076c.2-.219.064-.748.055-1.14s.174-.939-.075-1.164c-.219-.2-.748-.064-1.14-.055s-.94-.174-1.164.076c-.195.218-.041.748-.041,1.14C1249.078,399.311,1248.854,399.848,1249.112,400.075Zm-10.808-2.388c-.216-.011-.289.039-.24.27.135.644.258,1.291.366,1.94.033.2.117.243.3.239.507-.01,1.014-.009,1.521,0,.165,0,.25-.017.246-.219-.013-.672-.01-1.344,0-2.016,0-.168-.048-.219-.214-.213-.342.012-.684,0-1.027,0C1238.938,397.691,1238.62,397.7,1238.3,397.687Zm-1.125-6.1c-.236-.008-.323.044-.255.29a3.883,3.883,0,0,1,.13.671c.019.211.1.273.312.269.724-.012,1.448,0,2.171,0,1,0,1,0,.96-.99-.007-.178-.046-.24-.232-.235-.52.012-1.041,0-1.562,0S1237.687,391.6,1237.179,391.584Zm15.739,6.105c-.148,0-.23.015-.227.2.01.686.008,1.372,0,2.057,0,.153.052.183.2.191a1.486,1.486,0,0,0,1.457-.847c.214-.51.367-1.046.556-1.6C1254.213,397.691,1253.565,397.695,1252.919,397.689Zm3.13-4.875c.281.01.289-.087.189-.3a1.46,1.46,0,0,0-1.332-.918c-.418-.019-.838,0-1.257,0-1,0-1,0-.959.991.007.181.051.237.234.233.533-.012,1.067,0,1.6,0C1255.033,392.809,1255.542,392.8,1256.049,392.815Zm-12.823-.005c.965,0,.957,0,.933-.98-.005-.214-.078-.248-.263-.243-.419.011-.838,0-1.258,0-.965,0-.957,0-.933.981.005.214.078.25.263.243.33-.012.661,0,.991,0Zm3.671,0c.964,0,.964,0,.917-.99a.189.189,0,0,1,0-.038c.02-.147-.039-.2-.19-.2q-1.029.01-2.058,0c-.147,0-.185.044-.2.192-.087,1.032-.091,1.031.919,1.031h.61Zm3.657,0c.943,0,.936,0,.926-.948,0-.207-.043-.288-.267-.278-.418.019-.838.005-1.258.005-.943,0-.936,0-.926.948,0,.207.043.292.268.278.316-.02.635,0,.953,0Z" transform="translate(0 0)" fill="#14334a" stroke="#14334a" stroke-width="0.2"/>
    <path id="Path_4253" data-name="Path 4253" d="M1347.322,394.427c-.038.069-.074.136-.112.2q-2.291,4.011-4.578,8.026c-.122.214-.214.261-.417.114-.243-.177-.667-.238-.727-.489-.05-.208.232-.5.375-.751,1.42-2.488,2.846-4.971,4.256-7.465.14-.248.242-.3.474-.134a6.569,6.569,0,0,0,.589.347C1347.246,394.312,1347.325,394.332,1347.322,394.427Z" transform="translate(-109.389 -19.565)" fill="#14334a" stroke="#14334a" stroke-width="0.2"/>
    <path id="Path_4254" data-name="Path 4254" d="M1504.4,456.111c.608,0,.608,0,.608.613,0,.038,0,.077,0,.114-.029.309-.022.5.418.531a1.615,1.615,0,0,1,1.414,1.554c.005.169-.015.263-.218.243a4.687,4.687,0,0,0-.571,0c-.236.005-.46.049-.481-.321-.011-.2-.224-.29-.437-.289q-.724,0-1.448,0a.458.458,0,0,0-.151.9c.708.239,1.423.458,2.126.71a1.664,1.664,0,0,1,1.1,2.091,1.648,1.648,0,0,1-1.489,1.17c-.211.014-.3.062-.266.277a.3.3,0,0,1,0,.076c-.023.286.128.723-.062.826-.266.144-.664.044-1,.053-.113,0-.163-.04-.154-.154,0-.063,0-.127,0-.19a2.305,2.305,0,0,0-.018-.756c-.1-.272-.436-.113-.66-.194a1.734,1.734,0,0,1-1.153-1.631c-.012-.737-.012-.737.712-.737.507,0,.507,0,.508.522,0,.576.118.7.682.7.407,0,.813,0,1.22,0a.457.457,0,0,0,.527-.386c.046-.284-.125-.444-.384-.529-.685-.226-1.37-.452-2.053-.686a1.686,1.686,0,0,1-1.2-1.809,1.665,1.665,0,0,1,1.6-1.464c.186-.014.246-.061.226-.24a3.538,3.538,0,0,1,0-.381C1503.79,456.111,1503.79,456.111,1504.4,456.111Z" transform="translate(-253.535 -75.507)" fill="#14334a" stroke="#14334a" stroke-width="0.2"/>
    <path id="Path_4255" data-name="Path 4255" d="M1391.711,433.948a1.829,1.829,0,1,1-1.821-1.819A1.838,1.838,0,0,1,1391.711,433.948Zm-1.814-.6a.609.609,0,1,0,.592.615A.613.613,0,0,0,1389.9,433.35Z" transform="translate(-151.22 -53.964)" fill="#14334a" stroke="#14334a" stroke-width="0.2"/>
    <path id="Path_4256" data-name="Path 4256" d="M1316.091,409.84a1.83,1.83,0,1,1,1.717,1.954A1.838,1.838,0,0,1,1316.091,409.84Zm1.851-.481a.609.609,0,1,0,.582.625A.614.614,0,0,0,1317.942,409.359Z" transform="translate(-86.578 -32.414)" fill="#14334a" stroke="#14334a" stroke-width="0.2"/>
  </g>
</svg>
