<svg xmlns="http://www.w3.org/2000/svg" width="66.465" height="66.466" viewBox="0 0 66.465 66.466">
  <g id="Group_434" data-name="Group 434" transform="translate(0.5 0.5)">
    <path id="Path_326" data-name="Path 326" d="M375.138,355.9a1.516,1.516,0,0,1-.761-1.483c.033-1.511.022-3.024.008-4.536-.033-3.561,1.769-5.908,4.862-7.425a13.525,13.525,0,0,1,4.646-1,5.872,5.872,0,0,1,.629-.1c.553,0,.834-.162.821-.806s.451-1,1.148-1.011c.894-.013,1.789-.019,2.683,0,.366.009.535-.052.515-.477-.037-.786-.018-1.576-.007-2.364,0-.293-.037-.442-.4-.487a5.551,5.551,0,0,1-5.069-5.777c0-3.365-.005-6.73.025-10.1,0-.47-.207-.452-.531-.451q-10.894.006-21.788-.006a.9.9,0,0,0-.832.442c-1.013,1.446-2.052,2.874-3.068,4.318-.345.491-.754.854-1.382.66-.65-.2-.808-.732-.8-1.367.02-1.193-.006-2.386.013-3.578.006-.352-.079-.5-.457-.47a3.79,3.79,0,0,1-3.928-4.049c.061-7.113.021-14.227.022-21.341a3.714,3.714,0,0,1,4.047-4.046c11.118,0,22.236.026,33.353-.023a3.909,3.909,0,0,1,4.059,4.071c-.076,5.047-.015,10.1-.034,15.143,0,.539.09.643.663.568,5.839-.757,10.263,1.508,12.556,6.278a9.783,9.783,0,0,1,.966,4.258c.006,3.3.024,6.6,0,9.9a5.515,5.515,0,0,1-5.016,5.561c-.334.039-.43.146-.423.465.017.809.028,1.62,0,2.427-.016.394.149.444.48.436.852-.019,1.7-.01,2.556-.005.91.005,1.31.349,1.328,1.249.009.409.185.474.518.542,1.539.313,3.145.2,4.644.765,2.982,1.125,5.088,3.027,5.664,6.309.006.031.056.055.086.082v6.647a.957.957,0,0,1-.767.767Zm-16.994-35.19c.479-.67,1-1.315,1.426-2.016a1.972,1.972,0,0,1,1.9-1q13.7.038,27.409.015c1.355,0,1.868-.5,1.869-1.834q0-10.7,0-21.4c0-1.307-.545-1.841-1.871-1.841H355.525c-1.295,0-1.855.566-1.856,1.87q0,4.281,0,8.561,0,6.453,0,12.906a1.534,1.534,0,0,0,1.715,1.741c.49.007.981-.016,1.469.006a1.1,1.1,0,0,1,1.17,1.218c.01.572,0,1.144,0,1.716Zm56.035,33.025c.479,0,.609-.113.591-.592-.04-1.042-.012-2.086-.012-3.13a5.752,5.752,0,0,0-3.981-5.756c-1.439-.558-2.98-.425-4.448-.759-.3-.068-.293.131-.292.336,0,.639.006,1.278,0,1.917-.012,1.305-.788,1.751-1.932,1.116-2.636-1.464-5.278-2.919-7.9-4.4a.911.911,0,0,0-1.036-.011q-3.994,2.255-8.016,4.46c-1.037.572-1.817.113-1.839-1.068-.012-.66-.006-1.32,0-1.98,0-.239-.011-.441-.337-.363-1.324.32-2.709.2-4.025.622a5.821,5.821,0,0,0-4.379,5.922c0,1.022.031,2.046-.013,3.066-.022.515.143.623.634.622q9.232-.025,18.463-.011Q404.916,353.72,414.179,353.732Zm-12.715-19.665a3.356,3.356,0,0,0,3.462-3.469q.018-4.886,0-9.771a8.077,8.077,0,0,0-1.294-4.405c-2.651-4.135-6.668-4.537-10.387-3.956-.315.049-.32.267-.318.519.007,1.086.018,2.172,0,3.257a3.624,3.624,0,0,1-3.587,3.644c-.7.027-1.4.009-2.107.01-.815,0-.829,0-.831.844q-.011,4.822,0,9.644a3.43,3.43,0,0,0,3.706,3.692c1.831-.008,3.661,0,5.492,0C397.548,334.072,399.506,334.088,401.464,334.067Zm-2.435,5.477c.356.007.474-.085.46-.455-.029-.785-.023-1.572,0-2.357.009-.329-.086-.437-.426-.434q-3.409.02-6.819,0c-.311,0-.4.1-.389.4.018.807.022,1.615,0,2.421-.01.333.084.433.422.426,1.1-.021,2.209-.008,3.314-.008C396.735,339.536,397.882,339.523,399.029,339.544Zm.493,2.276c1.343.745,2.687,1.487,4.027,2.238.3.17.31,0,.308-.228,0-.595-.009-1.19,0-1.785,0-.242-.076-.338-.328-.336-1.327.009-2.654,0-3.981,0Zm-7.707,0c-1.35-.107-2.658-.1-3.967-.113-.278,0-.366.088-.36.362.016.676.005,1.353.005,2.156Z" transform="translate(-351.47 -290.432)" fill="#14334a" stroke="#14334a" stroke-width="1"/>
  </g>
</svg>
