<svg xmlns="http://www.w3.org/2000/svg" width="95.511" height="112.002" viewBox="0 0 95.511 112.002">
  <g id="Group_3342" data-name="Group 3342" transform="translate(-570.372 -3630)">
    <path id="Path_68" data-name="Path 68" d="M36.175,0A36.148,36.148,0,1,0,72.3,36.122,36.213,36.213,0,0,0,36.175,0Z" transform="translate(570.372 3649.854)" fill="#ccd7e0"/>
    <path id="Path_69" data-name="Path 69" d="M176.342,255.338a56.245,56.245,0,0,1-51.389,56l0-.03a7.96,7.96,0,1,1,0-15.92v0a40.338,40.338,0,0,0,1.2-79.932c-.353-.053-1.314-.167-1.413-.169-4.789-.606-7.753-3.609-7.753-7.956a7.965,7.965,0,0,1,7.971-7.96l-.018-.032A56.245,56.245,0,0,1,176.342,255.338Z" transform="translate(489.54 3430.664)" fill="#ccd7e0" opacity="0.498"/>
  </g>
</svg>
