<svg xmlns="http://www.w3.org/2000/svg" width="44.686" height="70" viewBox="0 0 44.686 70">
  <g id="Group_3138" data-name="Group 3138" transform="translate(360.338 -182.714)">
    <path id="Path_4320" data-name="Path 4320" d="M-331.4,199.847c-.409,0-.822.03-1.228-.007a.917.917,0,0,1-.9-1.008.883.883,0,0,1,.853-.975,22.272,22.272,0,0,1,2.66.005.888.888,0,0,1,.836.993.907.907,0,0,1-.858.976c-.451.044-.91.009-1.364.009Z" fill="#14334a"/>
    <path id="Path_4321" data-name="Path 4321" d="M-354.394,252.714c-.045-.175-.214-.143-.33-.189a3.574,3.574,0,0,1-2.4-3.531q-.006-11.211,0-22.42c0-.89,0-.89-.9-.894a2.022,2.022,0,0,1-2.306-2.3q-.012-1.332,0-2.665c.007-.846.4-1.334,1.04-1.32.618.013,1,.487,1.006,1.291.01.82.043,1.643-.011,2.459-.038.582.313.458.642.49.4.038.542-.067.54-.51q-.029-6.8,0-13.6c0-.485-.207-.49-.565-.488-.377,0-.627,0-.619.524.033,2.073.014,4.146.013,6.22a4.659,4.659,0,0,1-.02.614.964.964,0,0,1-1.053.932.909.909,0,0,1-.955-.954c-.014-2.551-.033-5.1.03-7.653.026-1.054.889-1.684,2.085-1.725,1.071-.037,1.066-.037,1.073-1.134a8.136,8.136,0,0,1,.053-1.363,3.53,3.53,0,0,1,3.7-2.955q7.074-.012,14.146,0a3.294,3.294,0,0,1,.41,0c.328.039.442-.09.428-.422-.023-.569-.021-1.139,0-1.708a1.037,1.037,0,0,1,1.052-1.1,1.031,1.031,0,0,1,.989,1.088c.016.569.019,1.139,0,1.708-.012.32.08.439.418.437q4.58-.017,9.158,0c.353,0,.407-.139.406-.443-.009-2.621-.013-5.241,0-7.861,0-.38-.133-.44-.47-.439q-4.511.018-9.02,0c-.38,0-.52.089-.5.487.033.613.019,1.23.006,1.845a1.021,1.021,0,0,1-1.02,1.121,1.027,1.027,0,0,1-1.023-1.123c-.016-.98-.019-1.96,0-2.939a1.315,1.315,0,0,1,1.343-1.413c.391-.023.434-.175.431-.493q-.015-2.222,0-4.442a2.963,2.963,0,0,1,3.13-3.125q2.152-.011,4.3,0a2.949,2.949,0,0,1,3.081,3.1c.009,1.481.006,2.962,0,4.443,0,.293-.012.488.4.516a1.334,1.334,0,0,1,1.373,1.52c.007,2.871.016,5.742-.011,8.612,0,.509.113.672.635.642a5.367,5.367,0,0,1,1.964.139,3.493,3.493,0,0,1,2.489,3.24,23.829,23.829,0,0,1,0,2.391c-.038.572.178.716.693.66a5.653,5.653,0,0,1,.956,0,1.928,1.928,0,0,1,1.9,1.8c.06,2.048.063,4.1,0,6.148a1.959,1.959,0,0,1-2.05,1.8c-1.487.043-1.487.043-1.487,1.544v20.779c0,.228.006.456-.009.683a.935.935,0,0,1-.952.963.957.957,0,0,1-1.058-.857,3.89,3.89,0,0,1-.03-.749q0-17.225,0-34.449c0-1.625-.43-2.05-2.071-2.05h-27.726c.505.505.912.9,1.308,1.308,2.681,2.753,2.164,1.538,2.211,5.305.023,1.868-.011,3.737.011,5.6a2.1,2.1,0,0,1-.684,1.639c-.593.566-1.146,1.175-1.749,1.73a1.316,1.316,0,0,0-.44,1.072c.013,7.678,0,15.356.023,23.035a2.76,2.76,0,0,1-.8,2.08c-1.172,1.211-2.267,2.5-3.443,3.7-.474.487-.329.822.065,1.192a1.569,1.569,0,0,0,1.125.408q15.273,0,30.547-.006a1.484,1.484,0,0,0,1.621-1.613c.016-1.276,0-2.552,0-3.828a3.3,3.3,0,0,1,.02-.545.992.992,0,0,1,1.1-.885.928.928,0,0,1,.916.995c.013,1.5.028,3.008-.005,4.511a3.444,3.444,0,0,1-2.672,3.294c-.088.023-.179.02-.214.125Zm1.459-8.5a1.565,1.565,0,0,0,.479-1.2c-.017-7.722-.007-15.444-.021-23.167a2.3,2.3,0,0,1,.747-1.82c.634-.589,1.222-1.226,1.843-1.829a.832.832,0,0,0,.282-.652q-.016-3.622,0-7.244a.763.763,0,0,0-.253-.593c-1.279-1.265-2.556-2.533-3.813-3.82a.465.465,0,0,0-.7-.066,1.789,1.789,0,0,0-.708,1.671q.012,20.158.006,40.319v.712C-354.291,245.669-353.632,244.922-352.935,244.211Zm23.452-56.981c1.356,0,1.356,0,1.333-1.325-.014-.825-.322-1.13-1.166-1.135-1.112-.005-2.224,0-3.337,0-1.868,0-1.935.086-1.929,1.957,0,.439.134.526.537.513.884-.029,1.77-.009,2.655-.009Zm-4.106,2.05c-1.05,0-1.033,0-.99,1.072.013.338.127.416.44.414q2.8-.018,5.593,0c.283,0,.429-.061.4-.374a2.984,2.984,0,0,1,0-.681c.054-.39-.137-.442-.465-.436-.91.018-1.819.006-2.729.006Zm15.9,21.4c.039-.551-.152-.735-.675-.655a2.1,2.1,0,0,1-.476,0c-.279-.021-.407.068-.4.378q.018,2.453,0,4.905c0,.314.128.391.4.372a3.127,3.127,0,0,1,.612,0c.4.052.561-.069.538-.51-.039-.77-.011-1.543-.011-2.315C-317.7,212.129-317.739,211.4-317.687,210.677Z" fill="#14334a"/>
    <path id="Path_4322" data-name="Path 4322" d="M-324.878,241.236c0,1.775,0,3.551,0,5.326a1.785,1.785,0,0,1-1.994,2.033q-.923.008-1.844,0a1.765,1.765,0,0,1-1.975-1.985c-.011-2.823,0-5.645,0-8.468,0-.751-.01-1.5,0-2.253a1.73,1.73,0,0,1,1.928-1.948q.956-.013,1.912,0a1.748,1.748,0,0,1,1.974,1.969C-324.873,237.685-324.878,239.46-324.878,241.236Zm-2.046-.435c.073-.5-.075-.706-.641-.68-1.08.049-1.081.011-1.081,1.063,0,.295,0,.591,0,.886,0,.194.083.265.276.3,1.159.234,1.444.024,1.444-1.1A3.448,3.448,0,0,1-326.924,240.8Zm-.8,3.617c-.924,0-.924,0-.924.944,0,.271,0,.542,0,.813,0,.153-.025.355.2.36a3.608,3.608,0,0,0,1.4-.051c.308-.129.05-.663.119-.955C-326.926,244.418-326.926,244.418-327.724,244.418Zm-.249-8.441c-.522-.018-.752.109-.682.667a9.413,9.413,0,0,1,.01,1.089c0,.156-.029.348.208.349a4.06,4.06,0,0,0,1.409-.062c.27-.1.042-.623.1-.9C-326.927,235.984-326.928,236.012-327.973,235.977Z" fill="#14334a"/>
    <path id="Path_4323" data-name="Path 4323" d="M-350.86,208.736a1.115,1.115,0,0,1-.558.91.871.871,0,0,1-1.025-.046,13.522,13.522,0,0,1-1.44-1.442.9.9,0,0,1,.043-1.192.879.879,0,0,1,1.156-.3,4.939,4.939,0,0,1,1.741,1.764A1.122,1.122,0,0,1-350.86,208.736Z" fill="#14334a"/>
    <path id="Path_4324" data-name="Path 4324" d="M-350.86,215.3a1.117,1.117,0,0,1-.552.912.869.869,0,0,1-1.026-.041,13.882,13.882,0,0,1-1.441-1.439.9.9,0,0,1,.035-1.193.881.881,0,0,1,1.155-.3A4.93,4.93,0,0,1-350.945,215,1.09,1.09,0,0,1-350.86,215.3Z" fill="#14334a"/>
    <path id="Path_4325" data-name="Path 4325" d="M-354.081,210.885a1.049,1.049,0,0,1,.592-.918.962.962,0,0,1,1.087.134,16.2,16.2,0,0,1,1.292,1.3.912.912,0,0,1,.011,1.248.876.876,0,0,1-1.2.3,6,6,0,0,1-1.672-1.662A1.1,1.1,0,0,1-354.081,210.885Z" fill="#14334a"/>
  </g>
</svg>
