<svg id="Group_428" data-name="Group 428" xmlns="http://www.w3.org/2000/svg" width="29.629" height="24.803" viewBox="0 0 29.629 24.803">
  <path id="Path_321" data-name="Path 321" d="M266.769,258.724v-10.8h12.085v8.526q0,6.923-2,10.024a16.087,16.087,0,0,1-8.33,6.253l-2.755-3.617a9.791,9.791,0,0,0,5.072-3.54,12.966,12.966,0,0,0,1.817-6.846Z" transform="translate(-249.225 -247.925)" fill="#fff"/>
  <path id="Path_322" data-name="Path 322" d="M256.224,258.724v-10.8h12.087v8.526q0,6.923-2,10.024a16.077,16.077,0,0,1-8.328,6.253l-2.756-3.617a9.8,9.8,0,0,0,5.073-3.54,12.981,12.981,0,0,0,1.817-6.846Z" transform="translate(-255.222 -247.925)" fill="#fff"/>
</svg>
