<svg xmlns="http://www.w3.org/2000/svg" width="18" height="75" viewBox="0 0 18 75">
  <g id="Group_3134" data-name="Group 3134" transform="translate(227.936 -384.05)">
    <path id="Path_4305" data-name="Path 4305" d="M-227.936,426.868V396.921c0-1.9.322-2.22,2.2-2.221,1.309,0,1.331,0,1.173-1.273q-.453-3.655-.955-7.306c-.2-1.453.294-2.066,1.746-2.067q4.855,0,9.711,0c1.374,0,1.873.53,1.707,1.934-.292,2.5-.63,4.989-.967,7.48-.168,1.236-.187,1.233,1,1.234.343,0,.689-.02,1.031.013a1.378,1.378,0,0,1,1.34,1.412c.013.2,0,.405,0,.608q0,30.12,0,60.242c0,1.707-.366,2.075-2.066,2.075q-7,0-14.007,0c-1.5,0-1.923-.428-1.923-1.974Q-227.938,441.971-227.936,426.868Zm15.26-7.919c0-.553-.122-.722-.694-.718q-5.54.044-11.081,0c-.611-.005-.749.173-.748.771q.027,18.263,0,36.525c0,.614.165.763.759.759,3.665-.028,7.33-.035,10.994.005.675.007.775-.2.772-.817-.023-6.073-.014-12.147-.014-18.22C-212.689,431.152-212.7,425.051-212.676,418.949Zm-.616-16.754c.495.008.629-.138.614-.626q-.051-1.735,0-3.471c.015-.493-.132-.635-.622-.632q-5.627.029-11.254,0c-.475,0-.658.122-.643.629.033,1.128.046,2.258,0,3.384-.027.607.2.721.74.712,1.861-.028,3.722-.01,5.584-.01S-215.152,402.164-213.292,402.2Zm-8.872-15.365c-.251,0-.508-.059-.446.383q.491,3.516.931,7.039c.048.386.213.457.553.452,1.459-.014,2.918-.018,4.378,0,.4.006.55-.153.6-.538.279-2.264.566-4.526.875-6.785.066-.482-.1-.575-.536-.563-1.03.028-2.06.009-3.09.009Q-220.532,386.83-222.163,386.831Zm1.921,26.765c0,1.886,0,1.843,1.849,1.895.7.02.772-.239.766-.834-.029-2.6-.013-5.2-.013-7.8,0-1.938,0-1.918-1.937-1.9-.513,0-.693.119-.678.67.039,1.5.013,3.005.013,4.509Zm-4.944.384c0,1.5,0,1.466,1.464,1.506.606.016.753-.153.745-.758-.034-2.768-.015-5.537-.015-8.305,0-1.495,0-1.467-1.489-1.476-.558,0-.735.149-.719.729.041,1.5.014,3,.014,4.5Zm12.5-7.615c0-1.414,0-1.373-1.374-1.422-.69-.025-.855.191-.845.866.038,2.714.016,5.428.016,8.141,0,1.54,0,1.509,1.52,1.536.576.01.708-.167.694-.72-.036-1.53-.012-3.061-.012-4.591Z" transform="translate(0 0)" fill="#14334a"/>
    <path id="Path_4306" data-name="Path 4306" d="M-218.916,426.278a2.009,2.009,0,0,1-2.041-2.075,2.066,2.066,0,0,1,2.009-2.047,2.118,2.118,0,0,1,2.109,2.061A2.066,2.066,0,0,1-218.916,426.278Z" transform="translate(-0.021 0.314)" fill="#14334a"/>
  </g>
</svg>
