<svg xmlns="http://www.w3.org/2000/svg" width="38.373" height="38.373" viewBox="0 0 38.373 38.373">
  <g id="Group_3092" data-name="Group 3092" transform="translate(0.25 0.25)">
    <path id="Path_326" data-name="Path 326" d="M365.163,328.3a.877.877,0,0,1-.441-.858c.019-.874.013-1.75,0-2.624a4.472,4.472,0,0,1,2.813-4.3,7.823,7.823,0,0,1,2.688-.576,3.38,3.38,0,0,1,.364-.058c.32,0,.483-.094.475-.466s.261-.579.664-.585c.517-.008,1.035-.011,1.552,0,.212.005.31-.03.3-.276-.021-.455-.011-.912,0-1.367,0-.169-.022-.256-.23-.282a3.211,3.211,0,0,1-2.932-3.342c0-1.947,0-3.894.014-5.84,0-.272-.12-.261-.307-.261q-6.3,0-12.6,0a.522.522,0,0,0-.481.255c-.586.837-1.187,1.662-1.775,2.5-.2.284-.436.494-.8.382s-.467-.423-.461-.791c.012-.69,0-1.38.008-2.07,0-.2-.046-.289-.264-.272a2.193,2.193,0,0,1-2.273-2.342c.036-4.115.012-8.231.013-12.346a2.148,2.148,0,0,1,2.341-2.341c6.432,0,12.864.015,19.3-.013a2.261,2.261,0,0,1,2.348,2.355c-.044,2.92-.009,5.84-.02,8.76,0,.312.052.372.384.329,3.378-.438,5.938.872,7.264,3.632a5.66,5.66,0,0,1,.559,2.463c0,1.91.014,3.82,0,5.729a3.19,3.19,0,0,1-2.9,3.217c-.193.023-.249.084-.245.269.01.468.016.937,0,1.4-.009.228.086.257.278.253.493-.011.986-.006,1.478,0,.527,0,.758.2.769.723.005.237.107.274.3.313a16.749,16.749,0,0,1,2.687.443,4.641,4.641,0,0,1,3.277,3.65c0,.018.032.032.05.047v3.845a.554.554,0,0,1-.444.444Zm-9.831-20.358c.277-.387.577-.761.825-1.166a1.141,1.141,0,0,1,1.1-.576q7.928.022,15.857.009c.784,0,1.081-.292,1.081-1.061q0-6.191,0-12.382c0-.756-.315-1.065-1.083-1.065H353.816c-.749,0-1.073.327-1.074,1.082q0,2.476,0,4.953,0,3.733,0,7.466a.887.887,0,0,0,.992,1.007c.283,0,.567-.009.85,0a.634.634,0,0,1,.677.7c.006.331,0,.662,0,.993Zm32.417,19.105c.277,0,.352-.065.342-.342-.023-.6-.007-1.207-.007-1.811a3.328,3.328,0,0,0-2.3-3.33,17.387,17.387,0,0,0-2.573-.439c-.174-.039-.17.076-.169.194,0,.37,0,.739,0,1.109-.007.755-.456,1.013-1.118.646-1.525-.847-3.053-1.689-4.573-2.546a.527.527,0,0,0-.6-.006q-2.311,1.3-4.638,2.58c-.6.331-1.051.065-1.064-.618-.007-.382,0-.764,0-1.146,0-.138-.006-.255-.195-.21-.766.185-1.567.117-2.329.36a3.368,3.368,0,0,0-2.533,3.426c0,.591.018,1.184-.007,1.774-.013.3.083.361.367.36q5.341-.015,10.681-.006Q382.389,327.045,387.749,327.052Zm-7.356-11.376a1.941,1.941,0,0,0,2-2.007q.011-2.826,0-5.653a4.672,4.672,0,0,0-.748-2.549c-1.533-2.392-3.858-2.624-6.009-2.289-.182.028-.185.154-.184.3,0,.628.011,1.256,0,1.884a2.1,2.1,0,0,1-2.075,2.108c-.406.016-.813.005-1.219.006-.472,0-.48,0-.481.488q-.006,2.79,0,5.579a1.984,1.984,0,0,0,2.144,2.136c1.059,0,2.118,0,3.177,0C378.127,315.678,379.26,315.688,380.393,315.676Zm-1.409,3.169c.206,0,.274-.049.266-.263-.017-.454-.013-.909,0-1.364,0-.19-.05-.253-.246-.251q-1.972.012-3.945,0c-.18,0-.229.057-.225.23.01.467.013.934,0,1.4-.006.193.049.25.244.247.639-.012,1.278,0,1.917,0C377.657,318.84,378.32,318.832,378.984,318.844Zm.285,1.317c.777.431,1.555.86,2.33,1.295.176.1.179,0,.178-.132,0-.344-.005-.688,0-1.033,0-.14-.044-.2-.19-.195-.768.005-1.535,0-2.3,0Zm-4.458,0c-.781-.062-1.538-.058-2.295-.065-.161,0-.212.051-.208.209.009.391,0,.783,0,1.247Z" transform="translate(-351.47 -290.432)" fill="#14334a" stroke="#14334a" stroke-width="0.5"/>
  </g>
</svg>
