<svg xmlns="http://www.w3.org/2000/svg" width="48.136" height="70" viewBox="0 0 48.136 70">
  <g id="Group_3137" data-name="Group 3137" transform="translate(651.69 -141.234)">
    <path id="Path_4316" data-name="Path 4316" d="M-623.258,201.774h9.837a1.525,1.525,0,0,1,1.046.214.991.991,0,0,1,.389,1.022.983.983,0,0,1-.811.818,3.344,3.344,0,0,1-.68.032q-9.871,0-19.742,0c-.091,0-.182,0-.273,0-.767-.023-1.254-.447-1.235-1.073.018-.6.482-1.008,1.222-1.01Q-628.381,201.766-623.258,201.774Z" fill="#14334a"/>
    <path id="Path_4317" data-name="Path 4317" d="M-648.82,211.234a11.4,11.4,0,0,1-1.339-.628,3.591,3.591,0,0,1-1.512-2.638c-.021-.226-.018-.455-.018-.683q0-27.785,0-55.569a3.566,3.566,0,0,1,2.709-3.834,4.782,4.782,0,0,1,1.149-.1q9.157-.009,18.315,0a3.954,3.954,0,0,1,.545.021.969.969,0,0,1,.9,1.024.967.967,0,0,1-.847,1.007,3.9,3.9,0,0,1-.75.029c-4.487,0-8.975.011-13.462-.011-.545,0-.8.093-.721.692.083.67-.282,1.578.151,1.957.377.329,1.26.069,1.919.09a10.613,10.613,0,0,1,2.786.1,4.889,4.889,0,0,0,1.986.027c1.9-.162,3.846-.467,5.726.243a.447.447,0,0,0,.323.021c1.06-.611,2.222-.347,3.345-.394a13.992,13.992,0,0,1,1.843.009c.5.046.551-.162.548-.575-.014-2.574-.008-5.149-.007-7.723,0-2.154.916-3.062,3.079-3.062,1.07,0,2.141-.013,3.212,0a2.541,2.541,0,0,1,2.694,2.7q.03,4.032-.005,8.065c-.005.479.118.608.6.594,1.252-.039,2.506-.028,3.758,0,.357.007.483-.079.467-.446-.027-.614-.027-1.231,0-1.845.015-.372-.129-.494-.476-.446a1.656,1.656,0,0,1-.273,0c-.778-.019-1.253-.42-1.247-1.053s.479-1.023,1.266-1.027c1.617-.009,3.235-.015,4.852,0a3.516,3.516,0,0,1,3.719,3.73c.011,4.056,0,8.111,0,12.167,0,14.353-.024,28.707.024,43.061.008,2.226-.7,3.788-2.895,4.495Zm-.772-4.1c0,1.518.487,2.01,1.99,2.01H-607.7c1.543,0,2.02-.485,2.02-2.049q0-27.578,0-55.156a5.464,5.464,0,0,0-.013-.614,1.472,1.472,0,0,0-1.564-1.458c-.432-.019-.869.033-1.3-.012-.592-.063-.8.1-.791.75.034,4.556.013,9.112.022,13.669a4.844,4.844,0,0,1-.674,2.6c-.581.95-1.153,1.906-1.761,2.84a4.174,4.174,0,0,1-3.668,2q-12.2.018-24.394,0a4.226,4.226,0,0,1-3.722-2.035c-.533-.819-1.024-1.665-1.553-2.487a5.392,5.392,0,0,1-.861-3.033c.018-4.238.007-8.475.007-12.713,0-1.591,0-1.591-1.562-1.591-1.648,0-2.086.444-2.086,2.115v27.543Q-649.593,193.325-649.592,207.131Zm26.454-38.146c0,.469.051.686.61.663,1.227-.049,2.457-.036,3.685,0,.444.012.516-.147.516-.546q-.018-8.532,0-17.065c0-.474-.158-.551-.577-.543-1.228.025-2.457.032-3.685,0-.463-.013-.554.139-.551.57.018,2.844.009,5.688.009,8.532C-623.128,163.388-623.118,166.187-623.138,168.985Zm-6.91.14c-.008.371.084.525.491.517,1.274-.024,2.55-.021,3.824,0,.378.006.518-.1.514-.494q-.027-2.9,0-5.806c0-.377-.092-.512-.491-.5-1.274.024-2.55.03-3.824,0-.453-.011-.524.161-.514.553.024.933.008,1.867.008,2.8C-630.041,167.167-630.028,168.146-630.048,169.125Zm-2.085-5.869c.006-.33-.1-.421-.423-.417q-1.975.025-3.952,0c-.313,0-.435.065-.432.407q.023,2.966,0,5.93c0,.352.094.47.457.464,1.295-.02,2.59-.026,3.884,0,.429.009.471-.178.465-.525-.018-.954-.006-1.908-.006-2.863C-632.14,165.256-632.153,164.256-632.133,163.256Zm2.086-2.963c-.008.344.085.482.458.476,1.3-.02,2.6-.018,3.893,0,.35,0,.479-.093.476-.458-.016-1.64-.012-3.28,0-4.92,0-.481-.206-.712-.694-.709-1.138.007-2.277.01-3.415,0-.533,0-.722.259-.712.762.015.8,0,1.594,0,2.391C-630.041,158.653-630.028,159.473-630.047,160.293Zm-13.8-.03c-.01.379.1.515.5.508q1.911-.037,3.824,0c.393.007.505-.119.5-.5-.018-1.617-.015-3.233,0-4.849,0-.518-.216-.745-.735-.739q-1.672.02-3.346,0c-.517-.006-.745.214-.734.735.017.8,0,1.594,0,2.391C-643.839,158.624-643.823,159.444-643.846,160.263Zm27.6-.021c-.007.351.048.538.475.529,1.3-.026,2.6-.023,3.893,0,.381.006.453-.148.45-.483-.012-1.617-.016-3.234,0-4.85.006-.564-.241-.768-.783-.759-1.092.018-2.186.022-3.278,0-.572-.012-.769.246-.757.784.018.773.005,1.548.005,2.322C-616.236,158.6-616.224,159.422-616.242,160.242Zm-6.892-11.247c-.008.329.1.426.426.422q1.976-.024,3.952,0c.325,0,.43-.092.427-.422-.014-1.68-.011-3.362,0-5.042a.542.542,0,0,0-.623-.622c-1.159,0-2.317.005-3.475,0-.526,0-.72.246-.7.761.025.794.006,1.59.006,2.385C-623.128,147.314-623.115,148.155-623.134,148.995Zm-9,6.39c.013-.5-.216-.7-.693-.7q-1.708.006-3.417,0c-.476,0-.7.2-.7.7q.026,2.46,0,4.921c0,.35.087.472.455.466q1.947-.033,3.895,0c.366.006.467-.111.457-.464-.023-.82-.007-1.64-.007-2.461S-632.156,156.2-632.134,155.385Zm-6.891,7.965c.008-.365-.071-.522-.482-.514-1.3.026-2.594.024-3.89,0-.38-.006-.433.143-.451.477a4.713,4.713,0,0,0,.853,3.281,16.482,16.482,0,0,1,1.077,1.736,2.531,2.531,0,0,0,2.307,1.311c.43.011.608-.085.59-.558-.036-.932-.011-1.866-.011-2.8C-639.032,165.307-639.045,164.328-639.025,163.35Zm22.782,5.827c-.007.363.121.463.473.464a2.527,2.527,0,0,0,2.394-1.274,17.481,17.481,0,0,1,1.117-1.791,4.784,4.784,0,0,0,.841-3.287c-.018-.365-.131-.455-.477-.45q-1.945.027-3.891,0c-.366-.006-.465.116-.457.467.02.956.007,1.912.007,2.868C-616.236,167.174-616.223,168.176-616.243,169.177Zm-24.171,32.6h-1.706c-.045,0-.091,0-.136.005a1.062,1.062,0,0,0-1.065,1.028,1.03,1.03,0,0,0,1.048,1.04q1.842.04,3.684,0a1.038,1.038,0,0,0,1.064-1.026,1.032,1.032,0,0,0-1.047-1.036c-.613-.029-1.228-.007-1.842-.007Z" fill="#14334a"/>
    <path id="Path_4318" data-name="Path 4318" d="M-627.642,198.71q-7.071,0-14.141,0c-1.7,0-2.353-.649-2.354-2.348q0-7.789,0-15.578c0-1.677.677-2.344,2.371-2.344h28.281c1.683,0,2.353.671,2.354,2.361q0,7.753,0,15.509c0,1.761-.631,2.4-2.371,2.4Zm13.741-2.086c.547,0,.659-.153.657-.672q-.03-7.381,0-14.761c0-.49-.089-.647-.621-.646q-13.767.028-27.535,0c-.53,0-.624.153-.622.645q.027,7.38,0,14.761c0,.517.107.676.656.673,4.555-.025,9.11-.014,13.665-.014C-623.1,196.61-618.5,196.6-613.9,196.624Z" fill="#14334a"/>
  </g>
</svg>
