<svg xmlns="http://www.w3.org/2000/svg" width="46.311" height="46.363" viewBox="0 0 46.311 46.363">
  <g id="Group_3117" data-name="Group 3117" transform="translate(0.151 0.206)">
    <path id="Path_327" data-name="Path 327" d="M359.408,459.815c-.581,0-1.162.01-1.742,0a.375.375,0,0,0-.436.295,3.063,3.063,0,0,1-3.374,2.033,3.115,3.115,0,1,1,3.388-4.059.518.518,0,0,0,.617.426c1.114-.025,2.228-.017,3.342,0,.259,0,.344-.067.362-.334a12.292,12.292,0,0,1,2.959-7.269c.188-.223.173-.33-.025-.523q-1.251-1.213-2.468-2.46a.429.429,0,0,0-.588-.1,3.1,3.1,0,0,1-4.345-3.47,3.1,3.1,0,1,1,5.821,2.009.525.525,0,0,0,.13.742c.807.769,1.59,1.562,2.366,2.362.193.2.3.217.522.025a12.463,12.463,0,0,1,7.194-3.028c.238-.022.312-.081.31-.325-.013-1.209-.02-2.418,0-3.626.006-.31-.165-.341-.376-.423a3.114,3.114,0,1,1,4.111-3.784,3.075,3.075,0,0,1-1.985,3.8.54.54,0,0,0-.45.645c.023,1.114.015,2.229,0,3.344,0,.252.054.339.327.358a12.41,12.41,0,0,1,7.236,2.925c.235.2.353.235.586-.007.8-.839,1.629-1.656,2.461-2.466a.39.39,0,0,0,.088-.551,3.055,3.055,0,0,1,.712-3.649,3.1,3.1,0,1,1,2.175,5.4,2.865,2.865,0,0,1-1.538-.359c-.189-.1-.312-.132-.483.043q-1.269,1.294-2.566,2.562c-.168.164-.145.256,0,.418a12.377,12.377,0,0,1,3.07,7.371c.015.2.076.269.279.268,1.224-.007,2.448-.018,3.672.006.318.006.3-.209.36-.378a3.123,3.123,0,1,1,.035,2.094c-.112-.313-.238-.424-.576-.417-1.129.024-2.26.018-3.389,0-.278,0-.366.064-.388.358a12.255,12.255,0,0,1-2.925,7.138c-.206.245-.208.373.02.594.822.8,1.628,1.613,2.427,2.434a.394.394,0,0,0,.55.1,3.106,3.106,0,0,1,4.414,3.418,3.106,3.106,0,1,1-5.85-1.953.53.53,0,0,0-.142-.743c-.792-.761-1.567-1.541-2.331-2.331-.2-.209-.32-.231-.552-.032a12.251,12.251,0,0,1-7.2,3c-.315.024-.377.143-.373.431.016,1.114.017,2.229,0,3.344a.469.469,0,0,0,.384.554,3.081,3.081,0,0,1,2.06,3.321,3.118,3.118,0,0,1-6.057.564,3.084,3.084,0,0,1,1.91-3.881.5.5,0,0,0,.4-.588q-.027-1.672,0-3.344c0-.28-.068-.377-.356-.4a12.285,12.285,0,0,1-7.206-2.99c-.187-.16-.29-.154-.457.016-.825.84-1.654,1.676-2.5,2.5a.394.394,0,0,0-.093.551,3.132,3.132,0,1,1-5.08-.824,3.07,3.07,0,0,1,3.587-.649.547.547,0,0,0,.784-.128q1.137-1.192,2.328-2.333c.225-.216.2-.336.013-.556a12.28,12.28,0,0,1-2.986-7.162c-.02-.244-.09-.318-.33-.313C360.632,459.824,360.02,459.815,359.408,459.815Zm14.881-12.082A11.356,11.356,0,1,0,385.54,459.11,11.347,11.347,0,0,0,374.289,447.733Zm13.948-4.526a1.8,1.8,0,1,0,1.8,1.777A1.771,1.771,0,0,0,388.237,443.207Zm-14.091-2.236a1.8,1.8,0,0,0,1.833-1.745,1.792,1.792,0,1,0-3.584-.082A1.8,1.8,0,0,0,374.146,440.971Zm1.835,37.97a1.793,1.793,0,1,0-1.772,1.8A1.787,1.787,0,0,0,375.981,478.941ZM356.106,459.1a1.8,1.8,0,0,0-1.751-1.828,1.794,1.794,0,1,0-.069,3.587A1.8,1.8,0,0,0,356.106,459.1Zm37.977-1.828a1.793,1.793,0,1,0,1.775,1.8A1.8,1.8,0,0,0,394.082,457.268Zm-32.149,15.879a1.832,1.832,0,0,0-1.815-1.827,1.8,1.8,0,0,0-1.778,1.8,1.771,1.771,0,0,0,1.778,1.791A1.8,1.8,0,0,0,361.934,473.147Zm-1.81-26.346a1.828,1.828,0,0,0,1.811-1.829,1.8,1.8,0,0,0-1.818-1.761A1.765,1.765,0,0,0,358.343,445,1.8,1.8,0,0,0,360.124,446.8Zm29.911,26.345a1.8,1.8,0,0,0-1.758-1.824,1.828,1.828,0,0,0-1.835,1.8,1.8,1.8,0,0,0,1.793,1.786A1.768,1.768,0,0,0,390.034,473.145Z" transform="translate(-351.185 -436.061)" fill="#14334a" stroke="#14334a" stroke-width="0.3"/>
    <path id="Path_328" data-name="Path 328" d="M486.067,554.477c0,1.456-.01,2.911.006,4.367a.947.947,0,0,1-.533.92q-3.8,2.179-7.587,4.38a.952.952,0,0,1-1.062-.012q-3.764-2.192-7.545-4.353a.982.982,0,0,1-.561-.952q.02-4.367,0-8.733a.944.944,0,0,1,.533-.916q3.8-2.175,7.586-4.381a.952.952,0,0,1,1.062.007q3.766,2.189,7.546,4.351a1.016,1.016,0,0,1,.56,1.006C486.053,551.6,486.067,553.038,486.067,554.477Zm-9.323.688c0-.3-.165-.391-.368-.508q-2.894-1.666-5.785-3.336c-.12-.069-.225-.2-.408-.157q0,3.6,0,7.192a.427.427,0,0,0,.236.435c2.087,1.195,4.167,2.4,6.32,3.641C476.735,559.958,476.728,557.561,476.744,555.165Zm1.635-.448a.493.493,0,0,0-.258.52c.005,2.3,0,4.6.007,6.893,0,.084-.062.2.08.256q3.1-1.786,6.211-3.573a.464.464,0,0,0,.264-.473c-.017-.628-.006-1.256-.006-1.884v-5.37C482.521,552.333,480.455,553.533,478.379,554.717Zm3.3-6.174a.6.6,0,0,0-.714,0c-1.72,1.009-3.45,2-5.176,3-.324.187-.645.378-1,.589.788.456,1.537.871,2.265,1.32a.627.627,0,0,0,.752.009c1.146-.685,2.307-1.342,3.463-2.01l2.716-1.57C483.16,549.407,482.411,548.99,481.681,548.543Zm-3.942-2.277a.525.525,0,0,0-.625.01c-1.306.768-2.623,1.519-3.935,2.278-.744.43-1.487.863-2.291,1.329.823.475,1.582.9,2.328,1.35.194.116.315.011.449-.067,2.069-1.193,4.136-2.39,6.265-3.621C479.157,547.1,478.439,546.7,477.739,546.266Z" transform="translate(-454.43 -531.468)" fill="#14334a" stroke="#14334a" stroke-width="0.3"/>
  </g>
</svg>
