<svg xmlns="http://www.w3.org/2000/svg" width="39.2" height="39.2" viewBox="0 0 39.2 39.2">
  <g id="Group_3116" data-name="Group 3116" transform="translate(-1154.998 -269.011)">
    <path id="Path_4257" data-name="Path 4257" d="M1172.694,269.111h3.809a2.271,2.271,0,0,1,2.019,2.427c.011.483.029.5.529.5q6.292,0,12.585,0a2.479,2.479,0,0,1,2.111,1,1.512,1.512,0,0,1,.313.878c.019.148-.041.3.039.446v.533a2.084,2.084,0,0,1-1.139,1.648.485.485,0,0,0-.266.468c0,.114,0,.228,0,.343q0,8.739-.008,17.478a.944.944,0,0,0,.495.963,1.864,1.864,0,0,1,.92,1.572v.762a2.277,2.277,0,0,1-2.471,2.018q-7.693.005-15.386,0c-.1,0-.2,0-.3,0-.424.009-.458.037-.46.456,0,.838.009,1.676-.006,2.513a.706.706,0,0,0,.384.675,2.385,2.385,0,0,1,.056,4.03,2.717,2.717,0,0,1-.931.285h-.762a2.228,2.228,0,0,1-1.978-1.9,2.389,2.389,0,0,1,1.162-2.453.626.626,0,0,0,.323-.592c-.007-.862,0-1.724,0-2.587,0-.39-.04-.426-.447-.427-1.357,0-2.714,0-4.07,0q-5.82,0-11.64,0a2.48,2.48,0,0,1-2.112-1,1.511,1.511,0,0,1-.313-.878c-.019-.148.041-.3-.039-.446v-.533a2.084,2.084,0,0,1,1.139-1.648.485.485,0,0,0,.266-.467c0-.114,0-.228,0-.343q0-8.739.008-17.478a.942.942,0,0,0-.495-.963,1.873,1.873,0,0,1-.92-1.5v-.838a2.276,2.276,0,0,1,2.464-2.018q6.159-.006,12.317,0c.114,0,.228,0,.342,0,.412-.01.451-.04.45-.466a2.209,2.209,0,0,1,2.021-2.465Zm21.4,5.256v-.381a.082.082,0,0,1-.069-.011A.4.4,0,0,0,1194.1,274.367Zm-39,23.461v.381l.036,0,.033.013A.4.4,0,0,0,1155.1,297.828Zm35.572-2.353c.316,0,.39-.073.389-.389q-.016-8.988,0-17.976c0-.317-.074-.389-.39-.389q-16.072.014-32.144,0c-.316,0-.39.073-.389.389q.016,8.988,0,17.976c0,.317.074.39.39.389q8.036-.017,16.072-.008T1190.67,295.474Zm.787-20.27a3.267,3.267,0,0,0,.418-.01.754.754,0,0,0-.006-1.5,1.98,1.98,0,0,0-.266-.009q-17,0-34,0a1.563,1.563,0,0,0-.45.052.694.694,0,0,0-.523.71.718.718,0,0,0,.528.711,1.571,1.571,0,0,0,.528.047h33.768Zm-27.324,21.785q-3.293,0-6.586,0c-.556,0-.911.3-.921.747s.356.769.932.776h33.958c.682,0,1.059-.274,1.054-.767s-.376-.757-1.065-.757h-27.372Zm12.134-24.832c.632,0,.632,0,.617-.637-.013-.543-.281-.871-.783-.88q-1.5-.027-3,0a.762.762,0,0,0-.786.8c-.008.151.012.305-.005.455-.027.223.067.27.274.266.67-.012,1.341,0,2.012,0Zm-.911,33.687a.757.757,0,1,0-.767.738A.786.786,0,0,0,1175.355,305.845Z" fill="#14334a" stroke="#14334a" stroke-width="0.2"/>
    <path id="Path_4258" data-name="Path 4258" d="M1219.571,416.683c0,1.23.006,2.459,0,3.689,0,.676-.587,1.075-1.117.777a.86.86,0,0,1-.406-.84c0-1.749,0-3.5,0-5.248,0-.672,0-1.344,0-2.016,0-.575.31-.94.774-.931s.746.364.748.918C1219.574,414.249,1219.572,415.466,1219.571,416.683Z" transform="translate(-58.151 -132.106)" fill="#14334a"/>
    <path id="Path_4259" data-name="Path 4259" d="M1270.638,398.68a.808.808,0,0,1-.172.493c-.153.23-.533.365-.5.621.027.214.344.382.505.591a.734.734,0,0,1-.059,1,.752.752,0,0,1-1.005.04,2.412,2.412,0,0,1-.253-.23c-.346-.341-.344-.34-.706.012a2.12,2.12,0,0,1-.318.267.734.734,0,0,1-.939-.1.755.755,0,0,1-.083-.942c.154-.263.57-.41.538-.685-.028-.236-.373-.422-.541-.656a.713.713,0,0,1,.1-.936.758.758,0,0,1,.943-.083c.263.154.41.57.685.538.236-.028.426-.367.656-.542a.66.66,0,0,1,.753-.033A.738.738,0,0,1,1270.638,398.68Z" transform="translate(-103.35 -119.005)" fill="#14334a"/>
    <path id="Path_4260" data-name="Path 4260" d="M1526.891,540.833a1.2,1.2,0,0,1,.527-.825c.206-.179.2-.3-.005-.472a2.213,2.213,0,0,1-.4-.451.74.74,0,0,1,1.027-1.018,2.938,2.938,0,0,1,.506.455c.139.153.228.141.362,0a3,3,0,0,1,.507-.455.739.739,0,0,1,1.017,1.026,2.95,2.95,0,0,1-.455.506c-.153.139-.141.228,0,.362a3.011,3.011,0,0,1,.455.507.739.739,0,0,1-1.026,1.017,2.935,2.935,0,0,1-.506-.455c-.139-.153-.228-.141-.362,0a3.053,3.053,0,0,1-.507.454.672.672,0,0,1-.785,0A.734.734,0,0,1,1526.891,540.833Z" transform="translate(-343.46 -248.345)" fill="#14334a"/>
    <path id="Path_4261" data-name="Path 4261" d="M1219.647,552.808a.757.757,0,1,1-.754-.751A.783.783,0,0,1,1219.647,552.808Z" transform="translate(-58.231 -261.385)" fill="#14334a"/>
    <path id="Path_4262" data-name="Path 4262" d="M1299.791,413.375a4.789,4.789,0,0,1-.533-.04.762.762,0,0,1-.627-.753.719.719,0,0,1,.621-.714,16.8,16.8,0,0,1,2.547,0c.4.03.628.363.633.82q.013,1.047,0,2.095a.765.765,0,1,1-1.521.019c0-.089,0-.177,0-.288-.162.032-.23.163-.321.253q-3.64,3.631-7.274,7.268c-.62.62-.946.622-1.56.008-1.177-1.175-2.357-2.347-3.525-3.53-.194-.2-.305-.25-.527-.017-.664.7-1.353,1.375-2.045,2.048a.4.4,0,0,0-.119.49,2.26,2.26,0,0,1-1.288,2.821,2.277,2.277,0,0,1-1.929-4.118,2.091,2.091,0,0,1,1.762-.152.424.424,0,0,0,.521-.13c.853-.87,1.72-1.727,2.582-2.588.613-.612.938-.609,1.56.013q1.778,1.777,3.553,3.556c.156.157.246.222.444.022q3.461-3.487,6.942-6.953C1299.713,413.476,1299.734,413.446,1299.791,413.375Zm-16.388,7.606a.757.757,0,1,0,.746.758A.784.784,0,0,0,1283.4,420.981Z" transform="translate(-116.411 -131.832)" fill="#14334a"/>
  </g>
</svg>
