<svg xmlns="http://www.w3.org/2000/svg" width="40" height="40" viewBox="0 0 40 40">
  <g id="Group_3035" data-name="Group 3035" transform="translate(-1179 -1176)">
    <circle id="Ellipse_5" data-name="Ellipse 5" cx="20" cy="20" r="20" transform="translate(1179 1176)" fill="#ccd7e0"/>
    <path id="phone-01" d="M-44.329,147.058a6.893,6.893,0,0,0,4.155,4.147,1.523,1.523,0,0,0,1.758-.957h0a1.49,1.49,0,0,1,2.477-.558l2.238,2.233a1.59,1.59,0,0,1,0,2.153l-1.518,1.515c-1.6,1.595-5.834-.16-9.589-3.907s-5.434-7.974-3.916-9.569l1.518-1.515a1.6,1.6,0,0,1,2.158,0l2.238,2.233a1.484,1.484,0,0,1-.559,2.472h0A1.445,1.445,0,0,0-44.329,147.058Z" transform="translate(1240.281 1047.82)" fill="#14334a"/>
  </g>
</svg>
