<svg xmlns="http://www.w3.org/2000/svg" width="254.684" height="248.906" viewBox="0 0 254.684 248.906">
  <g id="Horizontal_Logo_IDML_For_Dark_BG" transform="translate(-4.3 -6.2)" opacity="0.298">
    <g id="Group_393" data-name="Group 393" transform="translate(4.3 6.2)">
      <path id="Path_294" data-name="Path 294" d="M343.9,185Z" transform="translate(-167.136 -91.933)" fill="#F7F7F8"/>
      <g id="Group_391" data-name="Group 391" transform="translate(77.451 193.472)">
        <path id="Path_295" data-name="Path 295" d="M153.1,473.987h58.245a98.252,98.252,0,0,0,30.71-4.789l-.521-6.3H153.1Z" transform="translate(-153.1 -418.657)" fill="#F7F7F8"/>
        <rect id="Rectangle_178" data-name="Rectangle 178" width="88.434" height="11.087" fill="#F7F7F8"/>
        <rect id="Rectangle_179" data-name="Rectangle 179" width="88.434" height="11.087" transform="translate(0 22.122)" fill="#F7F7F8"/>
      </g>
      <path id="Path_296" data-name="Path 296" d="M389.264,31.4Z" transform="translate(-188.869 -18.283)" fill="#F7F7F8"/>
      <g id="Group_392" data-name="Group 392" transform="translate(77.503)">
        <path id="Path_297" data-name="Path 297" d="M226.279,6.2a99.337,99.337,0,0,1,40.027,8.276l-4.789,9-.573,1.093a87.276,87.276,0,0,0-34.666-7.183H153.2V6.3" transform="translate(-153.2 -6.2)" fill="#F7F7F8"/>
        <path id="Path_298" data-name="Path 298" d="M258.29,46.452l-1.822,3.487-3.539,6.715a87.12,87.12,0,0,0-26.6-4.164H156.739l-.989-1.874-2.55-4.841V41.3h73.079A98.676,98.676,0,0,1,258.29,46.452Z" transform="translate(-153.2 -23.029)" fill="#F7F7F8"/>
      </g>
      <g id="XMLID_00000153678550687390848880000000426929789698724270_" transform="translate(0 0.104)">
        <path id="XMLID_00000054945406185405847720000006805745257629032089_" d="M110.067,177.7,87.841,135.538l-6.09-11.5v23.631l6.09,11.5,9.786,18.53,5.83,11.035H115.9ZM253.935,90.15v75.005a136.355,136.355,0,0,0,5.049-37.216A138.857,138.857,0,0,0,253.935,90.15ZM213.856,26.544l-5.361,10.2-5.257,10.046-5.465,10.358-5.465,10.358-5.674,10.774L180.7,89.525,174.4,101.5l-23.163,44.087,6.3,11.555,21.081-40.079,7.912-15.095,6.715-12.752,6.246-11.868,5.83-11.087,5.726-10.931,5.569-10.514L222.132,34.3A106.366,106.366,0,0,0,213.856,26.544Zm-26.338,135.8v83.7c.625-.312,1.3-.573,1.926-.885,3.123-1.509,6.194-3.175,9.161-4.945V141.419ZM212.607,114.3l-2.967,5.621V232.716a108,108,0,0,0,11.035-9.681V99Zm28.68-54.289L234.832,72.3l-3.071,5.83V210.282a135.473,135.473,0,0,0,11.087-17.541V62.823ZM81.8,76.3v1.822h.937ZM54.425,6.4l.208.416.625-.416ZM81.8,76.3v1.822h.937Zm0,0v1.822h.937ZM135.155,177.7,87.893,87.859l-5.1-9.733L81.855,76.3v23.943l6.09,11.555,34.666,65.9,5.83,11.035h12.6ZM4.3,6.4V255.2H15.387V6.4Z" transform="translate(-4.3 -6.4)" fill="#b2c0cb"/>
        <path id="Path_299" data-name="Path 299" d="M328.369,27.1l-5.309,9.994-2.29,4.32-2.915,5.465-2.446,4.633-2.863,5.361-5.205,9.89-5.309,10.046-5.413,10.254-5.465,10.358-22.8,43.1L261.9,128.856l20.872-39.35,5.153-9.733,5.153-9.681,5.205-9.786,5.153-9.733,1.666-3.123,3.539-6.715,1.822-3.487,2.655-5.049.573-1.093,4.789-9a94.043,94.043,0,0,1,9.733,4.841h.052C328.265,26.993,328.317,27.045,328.369,27.1Z" transform="translate(-127.818 -13.928)" fill="#b2c0cb"/>
        <path id="Path_300" data-name="Path 300" d="M308.575,74.16l-6.142,11.711-6.246,11.868L289.421,110.6l-7.391,14-8.8,16.708-12.7,24.047-17.645,33.417L237.162,209.6h-12.6l-.312-.625-5.517-10.462L166.477,98.936l-5.83-11.087L159.19,85.09l-4.372-8.328L153.1,73.535V49.8l2.55,4.841.989,1.874,2.55,4.789,2.29,4.372,5.83,11.035L173.14,87.8l5.83,11.087,50.7,96.294,1.405,2.655,3.175-6.09,15.2-28.94,12.232-23.267,8.38-15.928,7.131-13.585,6.4-12.232,6.194-11.763,5.83-11.139,5.778-10.983C303.891,67.289,306.337,70.62,308.575,74.16Z" transform="translate(-75.649 -27.21)" fill="#b2c0cb"/>
      </g>
      <g id="XMLID_00000107590409887624535220000013960712585092053426_">
        <path id="XMLID_00000178206173839091674680000008801898112009182131_" d="M4.3,6.2V255H15.387V6.2Zm50.125,0,.208.416.625-.416Z" transform="translate(-4.3 -6.2)" fill="#F7F7F8"/>
        <path id="XMLID_00000083803931267385731390000012103557509848620685_" d="M89.3,6.2V255h11.087V6.2Z" transform="translate(-45.057 -6.2)" fill="#F7F7F8"/>
        <path id="XMLID_00000146499918252463102990000002368157705728214697_" d="M47.3,6.2V255H58.387V6.2Z" transform="translate(-24.918 -6.2)" fill="#F7F7F8"/>
        <rect id="Rectangle_180" data-name="Rectangle 180" width="11.087" height="248.802" transform="translate(66.417)" fill="#F7F7F8"/>
      </g>
    </g>
  </g>
</svg>
