<svg xmlns="http://www.w3.org/2000/svg" width="35.618" height="46.125" viewBox="0 0 35.618 46.125">
  <g id="idea" transform="translate(0.021 0.025)">
    <path id="Path_4263" data-name="Path 4263" d="M39.629,38.4c.051.051.127.114.191.178l2.786,2.786c.178.178.178.28,0,.445-.293.267-.56.75-.852.763s-.572-.471-.852-.75c-.725-.725-1.425-1.45-2.15-2.15-.191-.178-.216-.305,0-.483s.432-.42.649-.636C39.451,38.5,39.489,38.4,39.629,38.4Z" transform="translate(-33.707 -33.537)" fill="#14334a"/>
    <path id="Path_4264" data-name="Path 4264" d="M215.3,41.8c1.068-1.056,2.073-2.061,3.078-3.065.14-.14.216-.153.382-.013.954.852.954.839.076,1.717-.725.725-1.463,1.45-2.175,2.188-.191.191-.293.191-.471,0C215.923,42.347,215.618,42.093,215.3,41.8Z" transform="translate(-188.886 -33.732)" fill="#14334a"/>
    <path id="Path_4265" data-name="Path 4265" d="M33.83,227.044c-.14-.165-.254-.343-.394-.483-.611-.623-.623-.623.013-1.246.789-.789,1.577-1.565,2.353-2.353.216-.216.318-.191.522.013.827.814.827.814.025,1.615-.725.725-1.45,1.463-2.188,2.188A3.015,3.015,0,0,0,33.83,227.044Z" transform="translate(-28.799 -195.302)" fill="#14334a"/>
    <path id="Path_4266" data-name="Path 4266" d="M225.693,227.429c-.076-.064-.153-.114-.216-.178l-2.824-2.824c-.165-.165-.127-.254.013-.42.84-.9.84-.9,1.692-.051.7.712,1.4,1.425,2.124,2.111.267.254.254.407-.013.623-.2.165-.382.382-.572.572A1.285,1.285,0,0,0,225.693,227.429Z" transform="translate(-195.208 -195.75)" fill="#14334a"/>
    <path id="Path_4267" data-name="Path 4267" d="M137.8,2.332c0-.687.013-1.361,0-2.048,0-.229.076-.28.293-.293,1.234-.051,1.234-.051,1.234,1.157,0,1.03-.013,2.061.013,3.091,0,.267-.076.331-.343.343-1.183.013-1.183.025-1.183-1.157C137.8,3.057,137.8,2.688,137.8,2.332Z" transform="translate(-120.767)" fill="#14334a"/>
    <path id="Path_4268" data-name="Path 4268" d="M2.272,137.8c.661,0,1.336.013,2,0,.229,0,.28.064.293.293.051,1.234.051,1.234-1.2,1.234-1.018,0-2.035-.013-3.04.013-.267,0-.331-.076-.343-.343-.013-1.183-.025-1.183,1.157-1.183C1.521,137.8,1.9,137.8,2.272,137.8Z" transform="translate(0 -120.766)" fill="#14334a"/>
    <path id="Path_4269" data-name="Path 4269" d="M253.759,139.414c-.649,0-1.3-.013-1.946.013-.28.013-.331-.089-.331-.343-.013-1.183-.025-1.183,1.157-1.183,1.018,0,2.035.013,3.04,0,.267,0,.382.025.382.343,0,1.183.013,1.183-1.157,1.183C254.522,139.414,254.14,139.414,253.759,139.414Z" transform="translate(-220.463 -120.854)" fill="#14334a"/>
    <path id="Path_4270" data-name="Path 4270" d="M52.381,76.908a18.989,18.989,0,0,0-1.833-9.2c-.489-1.012-1.124-1.925-1.577-2.961a11.842,11.842,0,0,1,8.812-16.373A11.805,11.805,0,0,1,69.7,66.149a18.687,18.687,0,0,0-2.689,9.908,27.09,27.09,0,0,1-.061,3.591,4.861,4.861,0,0,1-1.369,2.8c-.66.691-1.332,1.357-2,2.024a.994.994,0,0,0-.306.592,3.618,3.618,0,0,1-7.138-.025.969.969,0,0,0-.281-.555c-.611-.6-1.2-1.222-1.809-1.826a5.309,5.309,0,0,1-1.65-4.01C52.381,78.08,52.381,77.488,52.381,76.908ZM65.1,74.8c.379,0,.464-.111.489-.469A20.554,20.554,0,0,1,68.478,65.3a10.306,10.306,0,0,0-12.259-15,10.335,10.335,0,0,0-5.341,14.942A21,21,0,0,1,53.8,74.391c.024.321.122.395.428.395,1.809-.012,3.63-.012,5.439-.012S63.3,74.773,65.1,74.8Zm-.6,2.937c1.051,0,1.039,0,1.063-1.061.012-.358-.1-.42-.428-.42q-5.1.019-10.193.012c-1.112,0-1.1,0-1.1,1.11,0,.308.086.37.379.37,1.809-.012,3.63-.012,5.439-.012ZM54.1,80.177a.646.646,0,0,0,.746.531c3.141-.025,6.282-.012,9.423-.012.88,0,.88,0,1.124-.864.012-.049.037-.086.049-.136.1-.333.073-.494-.367-.494-3.581.025-7.162.012-10.743.012h-.416A2.749,2.749,0,0,0,54.1,80.177ZM55.632,82.2c.464.469.892.876,1.3,1.308a.519.519,0,0,0,.416.136h4.706a.493.493,0,0,0,.4-.136c.416-.432.831-.839,1.308-1.308Zm4.278,4.393c.672-.062,1.687-.666,1.76-1.456h-4A2.183,2.183,0,0,0,59.91,86.594Z" transform="translate(-41.906 -42.099)" fill="#14334a" stroke="#14334a" stroke-width="0.25"/>
    <path id="Path_4271" data-name="Path 4271" d="M151.28,80.234c-.7,0-.7,0-.776-.674a6.846,6.846,0,0,0-6.512-6.169c-.242-.013-.343-.051-.318-.318a3.571,3.571,0,0,0,0-.522c0-.75,0-.75.725-.674a8.377,8.377,0,0,1,7.5,6.843c.064.343.076.687.14,1.03s-.025.547-.432.471C151.509,80.221,151.395,80.234,151.28,80.234Z" transform="translate(-126.032 -63.018)" fill="#14334a"/>
    <path id="Path_4272" data-name="Path 4272" d="M101.761,121.224c0-1.234-.013-2.48,0-3.714a3.785,3.785,0,0,1,3.879-3.879,22.464,22.464,0,0,1,3.7.076,3.766,3.766,0,0,1,3.078,3.612q.019,1.145,0,2.29a.781.781,0,0,1-.878.878c-.941.013-1.87.013-2.811,0a.781.781,0,0,1-.878-.878v-.572a.76.76,0,1,0-1.514,0c-.013,1.475,0,2.951,0,4.426v.051a.758.758,0,0,0,.776.789.766.766,0,0,0,.75-.776c.013-.242,0-.471,0-.712a.735.735,0,0,1,.763-.789c1.018-.013,2.035-.013,3.04,0a.677.677,0,0,1,.738.661,16.182,16.182,0,0,1-.038,2.938,3.6,3.6,0,0,1-3.193,3.167,16.314,16.314,0,0,1-4.312-.025,3.713,3.713,0,0,1-3.091-3.638c-.025-1.3,0-2.595-.013-3.9Zm3.053-2.277a2.275,2.275,0,0,1,4.528-.293c.038.267.114.318.369.318,1.183.013,1.183.013,1.183-1.157v-.382a2.28,2.28,0,0,0-2.264-2.277q-1.545-.019-3.091,0a2.253,2.253,0,0,0-2.251,2.239q-.019,3.854,0,7.708a2.261,2.261,0,0,0,2.251,2.239c.6.013,1.208,0,1.806,0,.5,0,.979.025,1.475-.013a2.321,2.321,0,0,0,2.086-2.633c-.025-.369.165-.865-.076-1.094-.2-.178-.687-.038-1.056-.076-.28-.025-.382.038-.432.356a2.278,2.278,0,0,1-4.528-.382c-.013-.75,0-1.488,0-2.239S104.814,119.723,104.814,118.947Z" transform="translate(-89.308 -99.722)" fill="#14334a"/>
  </g>
</svg>
