<svg id="instagram_Black-01" data-name="instagram Black-01" xmlns="http://www.w3.org/2000/svg" width="40" height="40" viewBox="0 0 40 40">
  <path id="Path_101" data-name="Path 101" d="M211.224,196.167a6.82,6.82,0,0,0-.427-2.308,4.125,4.125,0,0,0-2.36-2.36,6.79,6.79,0,0,0-2.309-.427c-1.306-.057-1.707-.072-5.028-.072s-3.712.015-5.028.072a6.819,6.819,0,0,0-2.308.427,4.153,4.153,0,0,0-2.365,2.36,6.79,6.79,0,0,0-.427,2.308c-.057,1.306-.072,1.707-.072,5.028s.015,3.712.072,5.028a6.82,6.82,0,0,0,.427,2.308,4.105,4.105,0,0,0,2.36,2.36,6.789,6.789,0,0,0,2.308.427c1.311.057,1.707.072,5.028.072s3.712-.015,5.028-.072a6.819,6.819,0,0,0,2.308-.427,4.151,4.151,0,0,0,2.365-2.365,6.789,6.789,0,0,0,.427-2.308h0c.057-1.311.072-1.7.072-5.023S211.281,197.478,211.224,196.167Zm-3.738,5.018a6.393,6.393,0,1,1-6.391-6.391,6.4,6.4,0,0,1,6.391,6.391Zm.252-5.157a1.491,1.491,0,1,1,1.491-1.491A1.492,1.492,0,0,1,207.738,196.028Z" transform="translate(-181.085 -181.18)" fill="#14334a"/>
  <path id="Path_102" data-name="Path 102" d="M312.549,308.3a4.149,4.149,0,1,0,4.149,4.149h0A4.154,4.154,0,0,0,312.549,308.3Z" transform="translate(-292.544 -292.449)" fill="#14334a"/>
  <path id="Path_103" data-name="Path 103" d="M20,0A20,20,0,1,0,40,20,20,20,0,0,0,20,0ZM32.37,25.131a9.021,9.021,0,0,1-.576,3.018,6.362,6.362,0,0,1-3.64,3.64,8.967,8.967,0,0,1-3.018.576c-1.326.057-1.748.072-5.131.072s-3.8-.015-5.131-.072a9.021,9.021,0,0,1-3.018-.576,6.376,6.376,0,0,1-3.64-3.64,9.1,9.1,0,0,1-.576-3.018C7.584,23.8,7.568,23.383,7.568,20s.015-3.8.077-5.136a9.007,9.007,0,0,1,.581-3.018,6.376,6.376,0,0,1,3.64-3.64,8.994,8.994,0,0,1,3.018-.576c1.326-.057,1.748-.072,5.131-.072s3.8.015,5.136.077a9.021,9.021,0,0,1,3.018.576,6.376,6.376,0,0,1,3.64,3.64,8.994,8.994,0,0,1,.576,3.018c.057,1.326.062,1.748.062,5.131S32.427,23.81,32.37,25.131Z" fill="#14334a"/>
</svg>
