<svg xmlns="http://www.w3.org/2000/svg" width="122.506" height="55.162" viewBox="0 0 122.506 55.162">
  <g id="Logo_IDML_2021-02" transform="translate(-295.36 -208.369)">
    <path id="Path_224" data-name="Path 224" d="M634.93,387.17Z" transform="translate(-300.393 -158.172)" fill="#b2c0cb"/>
    <path id="Path_225" data-name="Path 225" d="M297.73,751.84v13.821h1.725V751.84Z" transform="translate(64.012 -522.305)" fill="#ccd7e0"/>
    <path id="Path_226" data-name="Path 226" d="M385.927,755.015a5.483,5.483,0,0,0-2.237-2.357,7.043,7.043,0,0,0-3.505-.818H375.54v13.821h4.645a7.059,7.059,0,0,0,3.514-.819,5.429,5.429,0,0,0,2.232-2.369,8.23,8.23,0,0,0,.776-3.725v-.018A8.119,8.119,0,0,0,385.927,755.015Zm-.982,3.748a6.753,6.753,0,0,1-.565,2.907,4.006,4.006,0,0,1-1.651,1.815,5.271,5.271,0,0,1-2.659.622h-2.806V753.391h2.806a5.307,5.307,0,0,1,2.659.618,3.977,3.977,0,0,1,1.651,1.815,6.809,6.809,0,0,1,.565,2.921Z" transform="translate(-4.82 -522.305)" fill="#ccd7e0"/>
    <path id="Path_227" data-name="Path 227" d="M542.177,751.84l-4.788,11.646h-.058l-4.79-11.646H530.55v13.821h1.615V754.982h.058l4.414,10.679h1.456l4.414-10.679h.059v10.679h1.615V751.84Z" transform="translate(-141.946 -522.305)" fill="#ccd7e0"/>
    <path id="Path_228" data-name="Path 228" d="M713.175,764.108V751.84H711.45v13.821h8.391v-1.553Z" transform="translate(-301.975 -522.305)" fill="#ccd7e0"/>
    <path id="Path_229" data-name="Path 229" d="M444.18,667.544h12.91a21.677,21.677,0,0,0,6.807-1.063l-.115-1.391h-19.6Z" transform="translate(-131.65 -404.028)" fill="#7d91a0"/>
    <rect id="Rectangle_112" data-name="Rectangle 112" width="19.604" height="2.453" transform="translate(312.53 251.252)" fill="#7d91a0"/>
    <rect id="Rectangle_113" data-name="Rectangle 113" width="19.604" height="2.454" transform="translate(312.53 256.157)" fill="#7d91a0"/>
    <path id="Path_230" data-name="Path 230" d="M680.247,233.58Z" transform="translate(-340.475 -22.302)" fill="#b2c0cb"/>
    <path id="Path_231" data-name="Path 231" d="M460.393,208.369a22.036,22.036,0,0,1,8.87,1.832l-1.059,2-.128.242a19.367,19.367,0,0,0-7.683-1.591h-16.2v-2.467" transform="translate(-131.659)" fill="#97a8b5"/>
    <path id="Path_232" data-name="Path 232" d="M467.494,244.526l-.408.771-.787,1.486a19.18,19.18,0,0,0-5.9-.923H444.984l-.218-.415-.566-1.076v-.989h16.2A22.1,22.1,0,0,1,467.494,244.526Z" transform="translate(-131.668 -30.971)" fill="#97a8b5"/>
    <path id="Path_233" data-name="Path 233" d="M318.8,246.466l-4.925-9.345-1.345-2.556v5.24l1.345,2.547,2.166,4.108,1.293,2.452h2.759Zm31.885-19.409v16.622a30.254,30.254,0,0,0,1.124-8.248A30.79,30.79,0,0,0,350.686,227.057Zm-8.872-14.1-1.186,2.257-1.179,2.236-1.211,2.3-1.207,2.3-1.258,2.392-1.313,2.5-1.393,2.654-5.138,9.766,1.4,2.556L334,233.026l1.759-3.346,1.485-2.821,1.384-2.629,1.294-2.459,1.275-2.423,1.229-2.333,1.23-2.329Q342.774,213.773,341.814,212.955Zm-5.845,30.1v18.546c.143-.066.284-.132.426-.2q1.045-.507,2.027-1.09V238.431Zm5.566-10.647-.659,1.244v25a25.122,25.122,0,0,0,2.452-2.146V229.023Zm6.354-12.032-1.429,2.719-.678,1.291v29.3a28.676,28.676,0,0,0,2.454-3.888v-28.79Q348.067,220.688,347.888,220.38Zm-35.357,3.61v.4h.209Zm-6.064-15.5.051.1.138-.1Zm6.064,15.5v.4h.209Zm0,0v.4h.209Zm11.826,22.476-10.481-19.919-1.136-2.156-.21-.4V229.3l1.346,2.557,7.687,14.609,1.29,2.452h2.794Zm-29-37.976v55.148h2.454V208.49Z" transform="translate(0 -0.107)" fill="#b2c0cb"/>
    <path id="Path_234" data-name="Path 234" d="M567.595,225.355l-1.172,2.212-.505.954-.641,1.21-.545,1.028-.63,1.192-1.154,2.192-1.183,2.232-1.207,2.267-1.217,2.3-5.059,9.553L552.85,247.9l4.622-8.722,1.143-2.157,1.141-2.152,1.148-2.166,1.141-2.154.368-.692.787-1.487.409-.771.591-1.115.128-.242,1.059-2a23.364,23.364,0,0,1,2.161,1.073h.007Z" transform="translate(-227.783 -14.049)" fill="#b2c0cb"/>
    <path id="Path_235" data-name="Path 235" d="M478.65,257.292l-1.369,2.595-1.384,2.631-1.5,2.85-1.636,3.1-1.953,3.7-2.815,5.342-3.9,7.4-1.269,2.4h-2.787l-.074-.141-1.218-2.318-11.594-22.069-1.289-2.453-.322-.614-.967-1.846-.378-.72V251.89l.566,1.076.218.415.561,1.065.511.973,1.29,2.452,1.292,2.454,1.29,2.453,11.232,21.344.311.594.7-1.341,3.367-6.41,2.707-5.153,1.859-3.527,1.579-3.008,1.421-2.708,1.368-2.6,1.3-2.468,1.286-2.444Q477.9,256.122,478.65,257.292Z" transform="translate(-131.659 -38.5)" fill="#b2c0cb"/>
    <path id="Path_236" data-name="Path 236" d="M295.36,208.37v55.148h2.454V208.37Zm11.107,0,.051.1.138-.1Z" transform="translate(0 -0.001)" fill="#ccd7e0"/>
    <path id="Path_237" data-name="Path 237" d="M380.36,208.37v55.148h2.454V208.37Z" transform="translate(-75.193 -0.001)" fill="#ccd7e0"/>
    <path id="Path_238" data-name="Path 238" d="M338.36,208.37v55.148h2.454V208.37Z" transform="translate(-38.039 -0.001)" fill="#ccd7e0"/>
    <rect id="Rectangle_114" data-name="Rectangle 114" width="2.453" height="55.147" transform="translate(310.078 208.369)" fill="#ccd7e0"/>
  </g>
</svg>
