<svg xmlns="http://www.w3.org/2000/svg" xmlns:xlink="http://www.w3.org/1999/xlink" width="84" height="111" viewBox="0 0 84 111">
  <defs>
    <clipPath id="clip-path">
      <rect id="Rectangle_90" data-name="Rectangle 90" width="84" height="111" transform="translate(113 4656)" fill="none"/>
    </clipPath>
  </defs>
  <g id="Mask_Group_17" data-name="Mask Group 17" transform="translate(-113 -4656)" clip-path="url(#clip-path)">
    <g id="Logo_IDML_2021-02" transform="translate(65.42 4623)">
      <rect id="Rectangle_4" data-name="Rectangle 4" width="178.58" height="178.58" fill="#14334a"/>
      <path id="Path_15" data-name="Path 15" d="M634.93,387.17Z" transform="translate(-529.889 -323.617)" fill="#b2c0cb"/>
      <path id="Path_16" data-name="Path 16" d="M297.73,751.84v19.8h2.47v-19.8Z" transform="translate(-248.412 -628.025)" fill="#ccd7e0"/>
      <path id="Path_17" data-name="Path 17" d="M390.418,756.388a7.852,7.852,0,0,0-3.2-3.376,10.09,10.09,0,0,0-5.02-1.172H375.54v19.8h6.653a10.111,10.111,0,0,0,5.034-1.173,7.777,7.777,0,0,0,3.2-3.393,11.789,11.789,0,0,0,1.112-5.336v-.026A11.627,11.627,0,0,0,390.418,756.388Zm-1.406,5.369a9.672,9.672,0,0,1-.81,4.164,5.737,5.737,0,0,1-2.365,2.6,7.55,7.55,0,0,1-3.809.891h-4.019v-15.35h4.019a7.6,7.6,0,0,1,3.809.886,5.7,5.7,0,0,1,2.365,2.6,9.754,9.754,0,0,1,.81,4.184Z" transform="translate(-313.364 -628.025)" fill="#ccd7e0"/>
      <path id="Path_18" data-name="Path 18" d="M547.2,751.84l-6.858,16.68h-.083L533.4,751.84H530.55v19.8h2.313v-15.3h.083l6.323,15.3h2.085l6.323-15.3h.084v15.3h2.313v-19.8Z" transform="translate(-442.758 -628.025)" fill="#ccd7e0"/>
      <path id="Path_19" data-name="Path 19" d="M713.921,769.411V751.84h-2.47v19.8h12.019v-2.224Z" transform="translate(-593.764 -628.025)" fill="#ccd7e0"/>
      <path id="Path_20" data-name="Path 20" d="M444.18,668.6h18.492a31.045,31.045,0,0,0,9.75-1.522l-.165-1.993H444.18Z" transform="translate(-370.661 -555.611)" fill="#7d91a0"/>
      <rect id="Rectangle_5" data-name="Rectangle 5" width="28.079" height="3.513" transform="translate(73.519 95.428)" fill="#7d91a0"/>
      <rect id="Rectangle_6" data-name="Rectangle 6" width="28.079" height="3.515" transform="translate(73.519 102.453)" fill="#7d91a0"/>
      <path id="Path_21" data-name="Path 21" d="M680.25,233.58Z" transform="translate(-567.712 -195.408)" fill="#b2c0cb"/>
      <path id="Path_22" data-name="Path 22" d="M467.4,208.369a31.562,31.562,0,0,1,12.7,2.624l-1.517,2.86-.184.347a27.74,27.74,0,0,0-11-2.279H444.19v-3.533" transform="translate(-370.669 -174.363)" fill="#97a8b5"/>
      <path id="Path_23" data-name="Path 23" d="M477.564,245.022l-.585,1.1-1.127,2.128a27.471,27.471,0,0,0-8.446-1.322H445.324l-.312-.595L444.2,244.8v-1.416h23.206A31.655,31.655,0,0,1,477.564,245.022Z" transform="translate(-370.677 -203.588)" fill="#97a8b5"/>
      <path id="Path_24" data-name="Path 24" d="M328.936,262.884,321.881,249.5l-1.927-3.66v7.506l1.927,3.649,3.1,5.885,1.852,3.512h3.951Zm45.669-27.8v23.808a43.335,43.335,0,0,0,1.61-11.814A44.1,44.1,0,0,0,374.6,235.084Zm-12.708-20.2-1.7,3.232-1.689,3.2-1.735,3.3-1.728,3.293-1.8,3.426-1.881,3.574-1.995,3.8L342.01,252.7l2,3.66,6.7-12.724,2.52-4.792,2.127-4.04,1.983-3.766,1.854-3.521,1.826-3.47,1.76-3.341,1.762-3.336Q363.272,216.057,361.9,214.885ZM353.525,258v26.564c.2-.094.407-.188.61-.288q1.5-.725,2.9-1.562V251.374Zm7.972-15.249-.944,1.781v35.8a36,36,0,0,0,3.512-3.074V237.9Zm9.1-17.234-2.048,3.895-.972,1.849v41.962a41.076,41.076,0,0,0,3.515-5.569V226.421Q370.853,225.962,370.6,225.521Zm-50.643,5.171v.573h.3Zm-8.686-22.2.073.139.2-.139Zm8.686,22.2v.573h.3Zm0,0v.573h.3Zm16.938,32.193-15.011-28.531-1.628-3.089-.3-.573v7.6l1.928,3.662,11.011,20.924,1.848,3.512h4ZM295.36,208.49v78.99h3.515V208.49Z" transform="translate(-246.433 -174.464)" fill="#b2c0cb"/>
      <path id="Path_25" data-name="Path 25" d="M573.969,225.833,572.29,229l-.724,1.367-.919,1.733-.78,1.472-.9,1.707-1.653,3.14-1.693,3.2-1.729,3.247-1.743,3.292L554.9,261.84l-2.051-3.708,6.62-12.493,1.638-3.09,1.634-3.082,1.644-3.1,1.634-3.085.527-.992,1.127-2.13.585-1.1.846-1.6.183-.347,1.517-2.861a33.487,33.487,0,0,1,3.1,1.537h.01Z" transform="translate(-461.373 -187.62)" fill="#b2c0cb"/>
      <path id="Path_26" data-name="Path 26" d="M493.547,259.627l-1.961,3.717-1.983,3.768-2.148,4.082-2.343,4.445-2.8,5.3-4.032,7.651-5.591,10.593-1.818,3.437h-3.993l-.106-.2-1.745-3.32-16.606-31.609-1.846-3.513-.461-.879-1.385-2.644-.542-1.031V251.89l.811,1.542.312.595.8,1.525.732,1.393,1.848,3.512,1.851,3.515,1.848,3.513,16.087,30.571.446.851,1.01-1.92,4.822-9.181,3.877-7.38,2.662-5.052,2.262-4.308,2.036-3.878,1.96-3.728,1.856-3.535,1.843-3.5Q492.466,257.951,493.547,259.627Z" transform="translate(-370.669 -210.692)" fill="#b2c0cb"/>
      <path id="Path_27" data-name="Path 27" d="M295.36,208.37v78.99h3.515V208.37Zm15.909,0,.073.139.2-.139Z" transform="translate(-246.433 -174.364)" fill="#ccd7e0"/>
      <path id="Path_28" data-name="Path 28" d="M380.36,208.37v78.99h3.515V208.37Z" transform="translate(-317.387 -174.364)" fill="#ccd7e0"/>
      <path id="Path_29" data-name="Path 29" d="M338.36,208.37v78.99h3.515V208.37Z" transform="translate(-282.328 -174.364)" fill="#ccd7e0"/>
      <rect id="Rectangle_7" data-name="Rectangle 7" width="3.513" height="78.988" transform="translate(70.008 34.006)" fill="#ccd7e0"/>
    </g>
  </g>
</svg>
