<svg xmlns="http://www.w3.org/2000/svg" width="51.247" height="69.741" viewBox="0 0 51.247 69.741">
  <path id="Path_361" data-name="Path 361" d="M-601.653,227.272a19.424,19.424,0,0,0-2.57-.451,27.457,27.457,0,0,1-11.783-5.608,47.9,47.9,0,0,1-11.094-13.3,88.914,88.914,0,0,1-5.173-10.306c-.54-1.248-.089-2.091,1.255-2.307a61.194,61.194,0,0,1,16.545-.485c2.3.255,4.573.634,6.922,1.123-.312-1.092-.683-2.1-.94-3.135a31.467,31.467,0,0,1-.439-12.093c1.137-7.987,4.275-15.255,8.055-22.288a1.4,1.4,0,0,1,2.417-.355A61.513,61.513,0,0,1-589.5,168a45.181,45.181,0,0,1,6.854,13.2c2.152,6.96,1.95,13.766-1.6,20.283a29.2,29.2,0,0,1-4.806,6.481.948.948,0,0,0-.209,1.326,29.827,29.827,0,0,1,3.461,12.946,1.472,1.472,0,0,1-.787,1.46,25.141,25.141,0,0,1-10.839,3.457c-.108.008-.231-.023-.282.119h-.817a.176.176,0,0,0-.272,0h-1.635a.176.176,0,0,0-.272,0Zm-27.372-29.157A75.47,75.47,0,0,0-622.8,209.55a39.458,39.458,0,0,0,10.043,10.619,22.252,22.252,0,0,0,17.552,3.825,20.858,20.858,0,0,0,5.154-1.712c-2.213-1.228-4.351-2.41-6.482-3.606a.794.794,0,0,0-.645-.018c-2.293.535-4.589,1.058-6.881,1.6a3.363,3.363,0,0,1-1.08.072,1.36,1.36,0,0,1-1.228-1.169,1.358,1.358,0,0,1,.871-1.453,7.013,7.013,0,0,1,.849-.238c1.41-.334,2.821-.662,4.369-1.024-1.5-.87-2.886-1.641-4.236-2.465a1.465,1.465,0,0,0-1.209-.172c-2.223.537-4.449,1.058-6.675,1.582a2.862,2.862,0,0,1-1.08.066,1.384,1.384,0,0,1-1.245-1.232,1.361,1.361,0,0,1,.947-1.406c.516-.164,1.05-.275,1.578-.4,1.163-.279,2.326-.554,3.614-.86-3.708-2.173-7.282-4.266-10.854-6.363a4.591,4.591,0,0,1-.728-.494,1.354,1.354,0,0,1-.273-1.672,1.347,1.347,0,0,1,1.575-.628,3.664,3.664,0,0,1,.731.351q5.2,3.023,10.39,6.053c.2.115.4.218.721.391-.451-1.668-.863-3.194-1.275-4.72-.324-1.2-.019-1.973.878-2.217.846-.231,1.5.3,1.805,1.478.6,2.3,1.2,4.6,1.817,6.894.061.227.041.511.3.661l4.737,2.788c-.054-.244-.078-.374-.111-.5-.4-1.533-.816-3.062-1.2-4.6a1.39,1.39,0,0,1,.886-1.693,1.416,1.416,0,0,1,1.748.907,5.153,5.153,0,0,1,.146.523c.53,1.99,1.129,3.966,1.561,5.977a2.924,2.924,0,0,0,1.668,2.162c1.737.916,3.407,1.958,5.173,2.986a28.143,28.143,0,0,0-1.2-5.436,22.262,22.262,0,0,0-12.687-13.833,37.994,37.994,0,0,0-11.125-2.906,63.741,63.741,0,0,0-15.194.182A2.366,2.366,0,0,0-629.025,198.115Zm31.847-12.8q-.906-6.19-1.819-12.38a1.445,1.445,0,0,1,1.1-1.816,1.428,1.428,0,0,1,1.679,1.368c.424,2.893.833,5.789,1.251,8.683.2,1.407.414,2.812.643,4.364.5-.67.921-1.223,1.336-1.777.626-.835,1.235-1.681,1.881-2.5a1.308,1.308,0,0,1,1.508-.5,1.332,1.332,0,0,1,.961,1.128,1.74,1.74,0,0,1-.464,1.308c-1.129,1.506-2.19,3.068-3.4,4.509a3.823,3.823,0,0,0-1,3.744,31.579,31.579,0,0,1,.566,3.629c.554-.738,1.015-1.352,1.475-1.967.584-.78,1.148-1.577,1.758-2.337a1.29,1.29,0,0,1,1.635-.431,1.307,1.307,0,0,1,.831,1.412,1.9,1.9,0,0,1-.471.962q-2.18,2.914-4.355,5.832c-.157.211-.35.394-.3.72.324,2.129.629,4.261.943,6.391.026.176.043.394.238.447s.246-.166.347-.275a27.655,27.655,0,0,0,3.987-5.406,21.342,21.342,0,0,0,2.745-8.953,26.526,26.526,0,0,0-2.081-11.949,49.021,49.021,0,0,0-7.9-12.859,67.646,67.646,0,0,0-5.066-5.493,1.193,1.193,0,0,0-.161.185c-3.419,6.711-6.254,13.618-7.044,21.2a26.066,26.066,0,0,0,2.111,14.074.994.994,0,0,0,.611.566,29.282,29.282,0,0,1,4.492,2.074,26.948,26.948,0,0,1,4.446,3.129c-.132-.9-.28-1.683-.349-2.471a1.324,1.324,0,0,0-.6-.987q-2.814-2.2-5.6-4.436a1.382,1.382,0,0,1-.344-2.03,1.414,1.414,0,0,1,2.061-.126c.653.49,1.281,1.012,1.922,1.519.587.463,1.176.924,1.892,1.487-.258-1.754-.515-3.32-.7-4.893a1.513,1.513,0,0,0-.655-1.1c-1.808-1.407-3.6-2.839-5.392-4.263a1.8,1.8,0,0,1-.823-1.119,1.337,1.337,0,0,1,.669-1.446,1.414,1.414,0,0,1,1.7.21c1.222.974,2.437,1.955,3.745,3.005A3.687,3.687,0,0,0-597.179,185.311Z" transform="translate(632.496 -157.531)" fill="#14334a"/>
</svg>
