<svg xmlns="http://www.w3.org/2000/svg" width="1022.759" height="1020.341" viewBox="0 0 1022.759 1020.341">
  <g id="Group_3340" data-name="Group 3340" opacity="0.149">
    <path id="Path_15" data-name="Path 15" d="M634.93,387.17Z" transform="translate(-320.623 133.119)" fill="#74756f"/>
    <path id="Path_21" data-name="Path 21" d="M680.24,233.58Z" transform="translate(-498.042 -160.522)" fill="#74756f"/>
    <path id="Path_24" data-name="Path 24" d="M386.81,321.178l29.934,56.956L446.5,434.567l30.574,58.062,30.457,58.033,31.74,60.363,33.137,62.983,35.146,66.973L737.223,987.468l-35.262,64.5L583.943,827.753,539.536,743.31l-37.473-71.2-34.944-66.361L434.448,543.7l-32.176-61.148-31.012-58.878-31.039-58.79Q362.583,341.824,386.81,321.178Zm892.1-112.688-1.281,2.446-3.493-2.446Z" transform="translate(-256.154 -208.49)" fill="#74756f"/>
    <path id="Path_25" data-name="Path 25" d="M552.85,252.146l29.587,55.819,12.752,24.081,16.192,30.545,13.74,25.945,15.9,30.079,29.124,55.325,29.84,56.343L730.446,587.5l30.721,58,127.683,241.1,36.135-65.342L808.337,601.13l-28.855-54.451-28.8-54.306-28.974-54.656-28.8-54.363-9.293-17.472-19.854-37.534L653.455,308.9l-14.908-28.129-3.233-6.114-26.729-50.4a590.042,590.042,0,0,0-54.542,27.08h-.172Z" transform="translate(-371.673 -178.36)" fill="#74756f"/>
    <path id="Path_26" data-name="Path 26" d="M444.19,388.222l34.563,65.488,34.941,66.39,37.857,71.924,41.288,78.329,49.3,93.469L713.186,898.64l98.51,186.65,32.028,60.566h70.352l1.864-3.552,30.748-58.5L1239.3,526.826l32.526-61.906,8.126-15.491,24.4-46.589,9.552-18.17V251.89l-14.3,27.168-5.5,10.482-14.15,26.877-12.9,24.547-32.555,61.877-32.613,61.935-32.556,61.907L885.86,1065.374l-7.863,15-17.791-33.835L775.239,884.751,706.924,754.709l-46.908-89.016-39.864-75.911L584.278,521.44l-34.534-65.692-32.7-62.284-32.467-61.673Q463.233,358.7,444.19,388.222Z" transform="translate(-444.19 -125.516)" fill="#74756f"/>
  </g>
</svg>
