<svg xmlns="http://www.w3.org/2000/svg" width="952.003" height="362.844" viewBox="0 0 952.003 362.844">
  <g id="THINK_BLUE-02" data-name="THINK BLUE-02" transform="translate(0.048 0.031)" opacity="0.796">
    <path id="Path_255" data-name="Path 255" d="M323.892,98.489c2.7-1.735,5.589-3.662,8.287-5.4a1.6,1.6,0,0,0,.578-1.542,2.23,2.23,0,0,0-1.349-.964c-4.433-.193-7.324,2.12-9.444,5.975-4.24,4.818-5.4,10.985-7.516,16.767-.578,1.542-1.349,3.084-3.084,2.505-1.735-.385-3.662-.964-4.047-3.276-.578-3.469,0-6.745.385-10.022a395.171,395.171,0,0,1,11.949-51.266C323.121,39.514,326.976,27.758,330.83,16a21.757,21.757,0,0,1,4.625-8.865,3.644,3.644,0,0,1,5.011-.578,3.38,3.38,0,0,1,1.156,4.047c-2.7,6.167-5.4,12.527-7.9,18.695-7.709,18.887-14.262,37.967-18.5,58.011a38.574,38.574,0,0,0-.771,4.625,6.126,6.126,0,0,0,.578,1.735c2.505,0,3.469-2.313,5.011-3.662a20.158,20.158,0,0,1,7.131-4.047c3.084-.964,6.553-1.349,8.673,1.156,2.891,3.276,5.589,2.7,9.058,1.735,5.589-1.735,11.178-3.084,16.96-4.625a12.431,12.431,0,0,1,4.625,0c.385,0,.964.771,1.156,1.156a1.5,1.5,0,0,1-.385,1.542,22.477,22.477,0,0,1-5.011,1.927c-4.433,1.156-8.865,2.313-13.491,3.469-5.4,1.349-10.6,3.084-14.84,6.938a14.36,14.36,0,0,1-4.818,2.505c-3.084.578-4.625-.771-5.2-3.276Z" transform="translate(284.787 5.42)" fill="#adbcc7"/>
    <path id="Path_256" data-name="Path 256" d="M73.474,184.839c5.4-8.287,10.793-16.575,16-24.862a42.021,42.021,0,0,1,6.553-7.709c.771-.771,1.735-2.313,2.891-.771.771.964.193,2.313-.385,3.469-4.24,6.36-8.673,12.72-12.913,19.08-5.2,8.095-9.829,16.382-14.455,24.669-3.662,6.553-5.4,13.684-6.745,21.007-3.084,16.575-6.167,33.149-8.865,49.917-1.542,10.022-3.662,19.851-5.975,29.68-.771,2.7-1.349,5.4-4.24,6.553-1.735.578-4.047-2.505-5.011-6.938-1.927-9.251-1.542-17.731.771-29.1,3.662-18.887,10.022-36.811,17.346-54.349a64.879,64.879,0,0,0,3.662-13.3c3.469-20.815,6.553-41.822,9.829-62.637,1.349-8.865,3.084-17.538,4.625-26.211a3.675,3.675,0,0,0-.385-2.505c-.964-1.349-2.12-.578-3.276-.193-8.865,3.662-17.538,7.324-26.4,11.178-12.72,5.589-25.247,11.371-37.967,16.96a18.789,18.789,0,0,1-4.24,1.542c-1.542.385-2.891-.385-3.855-1.927a2.829,2.829,0,0,1,.964-4.047,56.909,56.909,0,0,1,13.3-6.553c18.887-7.324,37.775-14.84,56.855-21.971,5.2-1.927,6.938-4.818,7.709-10.022,1.156-10.022,3.276-20.044,5.2-29.873.193-.964.385-1.735.578-2.7a2.658,2.658,0,0,1,2.7-1.927,2.515,2.515,0,0,1,2.313,2.505c.193,5.782.385,11.756-.771,17.538-.964,5.011-1.735,10.215-2.505,15.418a2.123,2.123,0,0,0,2.891,2.313c10.985-4.047,21.971-8.287,32.764-12.335,3.084-1.156,6.36-2.313,9.636-3.276a11.469,11.469,0,0,1,4.433.193c.771,0,.964.771.771,1.349,0,.193-.193.771-.385.771a38.522,38.522,0,0,1-4.047,1.927c-12.913,4.818-26.018,9.444-38.931,14.262-8.48,3.084-9.251,4.047-10.793,12.913-3.276,19.273-6.553,38.738-10.022,58.011-.578,3.276-1.735,6.553-1.735,10.022C70.583,185.224,70.969,186.38,73.474,184.839Z" transform="translate(0 56.871)" fill="#b3c1cc"/>
    <path id="Path_257" data-name="Path 257" d="M219.181,104.6c2.505.193,3.662-1.927,5.011-3.469A43.033,43.033,0,0,1,233.828,94c1.542-.964,2.891-.193,4.047,1.156.964,1.349,1.349,2.891.193,4.24-2.313,2.313-5.4,4.047-7.324,6.938,3.855,1.349,3.855,1.349,5.782.771,14.262-3.855,28.524-7.516,42.786-11.371,2.7-.771,5.589-2.7,8.287.193-1.156,3.084-4.433,3.084-6.938,3.662-13.491,4.047-27.175,7.9-40.666,11.564-7.9,2.12-15.8,5.2-24.091,6.167-1.735.193-2.313,1.735-2.891,3.276-1.349,4.625-2.7,9.444-4.24,14.069-.193.771-1.156,1.349-1.927,1.735s-2.505-1.542-2.12-2.505c.771-3.276,1.349-6.553,2.313-9.829,8.673-26.6,17.538-53,26.4-79.6a41.81,41.81,0,0,1,2.891-6.745c1.735-2.891,3.662-3.662,5.975-2.313,2.12,1.349,2.313,2.7,1.156,5.589-2.891,6.745-6.167,13.3-8.865,20.236-5.2,13.105-10.215,26.4-15.225,39.509C218.8,102.094,218.217,103.443,219.181,104.6Z" transform="translate(189.832 32.267)" fill="#b4c1cc"/>
    <path id="Path_258" data-name="Path 258" d="M399.156,72.88c1.156,1.542.771,2.891,0,4.24-1.927,2.891-3.855,5.589-5.782,8.287-7.324,10.407-16,19.466-25.055,28.331a30.523,30.523,0,0,1-10.793,6.938c-3.469,1.156-7.131-.964-7.324-4.625-.385-5.2-.385-10.407,1.156-15.418,5.011-16.382,9.829-32.956,14.647-49.338,4.047-14.069,7.9-28.331,11.949-42.593a48.82,48.82,0,0,1,2.313-6.938c.578-1.735,2.12-1.927,3.855-1.735a3.141,3.141,0,0,1,2.891,3.084,18.019,18.019,0,0,1-.771,6.36c-2.313,9.829-5.975,19.466-9.058,28.909-6.167,18.887-12.72,37.775-18.887,56.855-1.349,4.433-2.7,8.865-3.662,13.3a16.927,16.927,0,0,0-.193,5.4c.193,1.349,1.156,2.313,2.505,1.735a31.623,31.623,0,0,0,5.589-3.084c8.48-5.782,14.455-14.069,21.007-21.778,3.276-4.047,6.36-8.287,9.636-12.335C394.723,76.156,396.458,73.651,399.156,72.88Z" transform="translate(324.582 0)" fill="#b4c2cc"/>
    <path id="Path_259" data-name="Path 259" d="M73.292,144.973c2.12.193,3.084-1.542,4.625-2.7,2.313-1.542,4.433-3.276,6.745-4.818,2.505-1.542,5.4-1.735,7.709.385,4.24,3.662,8.48,2.505,12.913.385l13.3-6.36a1.432,1.432,0,0,1,2.12.771,1.966,1.966,0,0,1-.385,1.735c-5.975,4.818-12.142,9.444-20.429,9.636-3.469.193-6.745.193-9.636-2.313-1.735-1.542-3.469-.771-5.011.385-4.818,3.662-9.829,7.516-13.876,11.949-.964,1.156-2.313,2.313-4.047,1.156a3.661,3.661,0,0,1-1.349-4.047c.578-4.24,1.156-8.48,2.12-12.72,4.818-20.815,8.673-42.015,14.647-62.637,1.349-4.433,2.313-9.058,5.589-12.527a3.307,3.307,0,0,1,3.084-1.542c1.927.193,3.662,2.12,3.276,3.662a40.363,40.363,0,0,1-1.542,4.433c-7.324,17.346-11.756,35.462-16.382,53.578-1.735,6.553-2.891,13.105-4.24,19.658A5,5,0,0,1,73.292,144.973Z" transform="translate(61.084 57.228)" fill="#b5c2cd"/>
    <path id="Path_260" data-name="Path 260" d="M399.543,48.7c2.313.578,3.855-1.156,5.2-2.505C411.3,40.6,418.238,35.4,424.02,29.041c1.927-1.927,3.855-4.047,6.36-5.2,2.505-1.349,5.011.193,4.818,3.084a12.1,12.1,0,0,1-.578,3.662c-.193,1.156-.964,2.313-1.156,3.469-.771,4.24,1.542,6.36,5.782,5.589a84.354,84.354,0,0,0,22.549-7.709,94.361,94.361,0,0,1,10.022-4.625,1.375,1.375,0,0,1,1.927,1.156,1.849,1.849,0,0,1-.385,1.735,6.024,6.024,0,0,1-2.12,1.735A196.661,196.661,0,0,1,446.183,43.5c-4.433,1.735-9.058,1.349-13.684.964a5.692,5.692,0,0,1-4.433-3.084,50.177,50.177,0,0,1-2.891-5.4c-2.505-.385-3.662,1.156-5.011,2.505-6.167,5.589-12.335,11.178-18.5,16.575a25.848,25.848,0,0,1-5.4,3.469,4.619,4.619,0,0,1-6.553-4.818,23.306,23.306,0,0,1,.964-3.469c1.927-6.167,5.011-11.756,8.287-17.346a12.267,12.267,0,0,1,3.855-3.855,3.644,3.644,0,0,1,5.011.578c1.542,1.349,1.542,3.084-.193,4.818a39.766,39.766,0,0,0-8.48,11.949A1.859,1.859,0,0,0,399.543,48.7Z" transform="translate(361.391 21.675)" fill="#b5c2cd"/>
    <path id="Path_261" data-name="Path 261" d="M159.633,94.8c3.469-2.505,6.745-5.2,10.407-7.709A31.623,31.623,0,0,1,175.629,84c2.505-1.156,4.625-.385,6.36,1.927,1.542,1.927,2.7,4.047,4.24,6.167,4.625,5.975,10.022,7.516,16.96,4.625a95.812,95.812,0,0,0,20.622-11.949c3.469-2.7,6.938-5.011,10.6-7.324a2.135,2.135,0,0,1,3.276.578c.578.964,0,1.735-.771,2.313-8.865,7.131-17.731,14.069-28.138,19.08-5.2,2.7-10.6,2.891-16.189,2.505-3.662-.193-6.167-2.7-8.673-5.011-1.349-1.156-2.313-2.891-3.469-4.24-3.662-4.24-4.433-4.24-8.866-.193-5.2,4.625-10.6,9.444-15.8,14.069a37.761,37.761,0,0,1-5.4,3.662,3.667,3.667,0,0,1-5.589-2.7,5.335,5.335,0,0,1-.193-1.735c1.349-8.673,4.047-16.575,10.793-22.742a2.922,2.922,0,0,1,1.542-.771,6.28,6.28,0,0,1,2.505.771,2.753,2.753,0,0,1,1.156,3.276,69.238,69.238,0,0,1-3.276,6.553C156.549,95.374,157.513,95.567,159.633,94.8Z" transform="translate(134.129 71.364)" fill="#b5c2cd"/>
    <path id="Path_262" data-name="Path 262" d="M463.745,29.083c8.866-.964,16.96-4.818,25.055-8.095a37.49,37.49,0,0,1,4.24-1.542c.385-.193,1.156.385,1.542.771a2.657,2.657,0,0,1,0,1.735,2.038,2.038,0,0,1-1.156,1.349C483.4,28.7,473,33.13,461.432,33.708h-4.625c-7.131-.385-10.407-6.745-6.36-13.105A17.305,17.305,0,0,1,457,14.243a6.448,6.448,0,0,1,6.938.193,7.522,7.522,0,0,1,2.7,8.095,26.924,26.924,0,0,1-1.735,3.276C464.323,26.77,463.166,27.348,463.745,29.083Z" transform="translate(416.103 12.382)" fill="#b5c2cd"/>
    <path id="Path_263" data-name="Path 263" d="M109.1,105.381a19.672,19.672,0,0,1,4.625-12.72c.771-1.156,2.12-.964,3.469-.578,1.542.578,2.891,1.735,2.505,3.469-.578,2.313-1.927,4.433-2.891,6.745-.385.964-1.349,2.313-.193,3.276.964.964,2.313.193,3.469,0,9.444-3.084,17.924-7.9,26.211-13.3,3.276-2.12,5.975-2.7,6.36-1.156.578,2.7-1.735,3.662-3.469,4.818-8.865,5.589-17.731,10.985-27.56,14.647a16.92,16.92,0,0,1-4.433,1.349C111.8,112.512,109.1,110.006,109.1,105.381Z" transform="translate(101.211 83.714)" fill="#b7c4ce"/>
    <path id="Path_264" data-name="Path 264" d="M120.143,79.706c1.349-.193,3.469,1.735,3.662,3.469.193,3.276-3.084,8.673-6.553,10.215-1.349.578-4.24-1.156-4.047-2.7.771-4.24,2.505-8.095,5.975-10.793A1.737,1.737,0,0,1,120.143,79.706Z" transform="translate(105.008 73.927)" fill="#b9c6d0"/>
    <path id="Path_265" data-name="Path 265" d="M491.933,23.8a3.352,3.352,0,0,1-2.313-2.7,5.679,5.679,0,0,1,4.433-5.975,3.374,3.374,0,0,1,3.276,1.156,3.217,3.217,0,0,1,.193,3.469C496.173,22.64,494.053,24.181,491.933,23.8Z" transform="translate(454.02 14.008)" fill="#c0cbd4"/>
    <path id="Path_266" data-name="Path 266" d="M454.911,16.7c.193.385.578,1.156.385,1.349a1.951,1.951,0,0,1-1.349.771.616.616,0,0,1-.385-1.156A2.951,2.951,0,0,1,454.911,16.7Z" transform="translate(420.311 15.515)" fill="#ced7de"/>
  </g>
</svg>
