<svg xmlns="http://www.w3.org/2000/svg" width="40" height="40" viewBox="0 0 40 40">
  <g id="Group_3095" data-name="Group 3095" transform="translate(-907 -5796.327)">
    <circle id="Ellipse_22" data-name="Ellipse 22" cx="20" cy="20" r="20" transform="translate(907 5796.327)" fill="#14334a"/>
    <path id="Path_4296" data-name="Path 4296" d="M132.125,246.189c-1.392.064-1.361.059-1.519.072l.824-2.354s-2.573.946-3.225,1.116a5.162,5.162,0,0,0-6.08-.489,4.211,4.211,0,0,0-2.024,4.33,11.23,11.23,0,0,1-7.276-4.1l-.61-.733-.456.838a5.061,5.061,0,0,0-.539,3.407,4.894,4.894,0,0,0,.474,1.33l-.524-.2-.062.875a4.669,4.669,0,0,0,.792,2.775,4.933,4.933,0,0,0,.617.76l-.271-.041.33,1a4.874,4.874,0,0,0,2.505,2.9c-1.168.5-2.112.812-3.663,1.322L110,259.47l1.311.717a13.758,13.758,0,0,0,4.011,1.46c3.879.608,8.247.113,11.187-2.535,2.477-2.23,3.289-5.4,3.12-8.7a2.063,2.063,0,0,1,.385-1.343c.549-.733,2.108-2.87,2.111-2.875Zm-3.147,2.1a3.359,3.359,0,0,0-.643,2.186c.17,3.33-.736,5.913-2.693,7.676-2.287,2.06-5.975,2.868-10.119,2.218a10.034,10.034,0,0,1-2.168-.644,34.387,34.387,0,0,0,3.927-1.614l2.264-1.072-2.5-.16a3.536,3.536,0,0,1-2.808-1.6,4.472,4.472,0,0,0,.952-.159l2.384-.664-2.4-.589a3.58,3.58,0,0,1-2.187-1.521,3.666,3.666,0,0,1-.474-1.046,5.991,5.991,0,0,0,.975.156l2.225.22-1.763-1.375a3.711,3.711,0,0,1-1.406-3.911,12.9,12.9,0,0,0,9.089,3.912,7.666,7.666,0,0,0-.133-1.1,2.976,2.976,0,0,1,1.308-3.563,3.872,3.872,0,0,1,4.568.378,1.16,1.16,0,0,0,1.065.285,8.972,8.972,0,0,0,.877-.267l-.559,1.6h.714l-.49.656Zm0,0" transform="translate(805.938 5564.039)" fill="#fff"/>
  </g>
</svg>
