<?xml version="1.0" encoding="utf-8"?>
<!-- Generator: Adobe Illustrator 26.0.3, SVG Export Plug-In . SVG Version: 6.00 Build 0)  -->
<svg version="1.1" id="Layer_1" xmlns="http://www.w3.org/2000/svg" xmlns:xlink="http://www.w3.org/1999/xlink" x="0px" y="0px"
	 viewBox="0 0 1080 1080" style="enable-background:new 0 0 1080 1080;" xml:space="preserve">
<style type="text/css">
	.st0{fill:none;stroke:#000000;stroke-width:0.7193;stroke-linecap:round;stroke-linejoin:round;stroke-miterlimit:10;}
	.st1{opacity:0.2;enable-background:new    ;}
</style>
<g>
	<g>
		<line class="st0" x1="82.7" y1="442" x2="81.9" y2="444.6"/>
		<line class="st0" x1="88.1" y1="442" x2="81.9" y2="460.7"/>
		<line class="st0" x1="93.4" y1="442" x2="81.9" y2="476.7"/>
		<line class="st0" x1="98.7" y1="442" x2="81.9" y2="492.7"/>
		<line class="st0" x1="104.1" y1="442" x2="81.9" y2="508.8"/>
		<line class="st0" x1="109.4" y1="442" x2="81.9" y2="524.8"/>
		<line class="st0" x1="112.9" y1="447.6" x2="81.9" y2="540.8"/>
		<line class="st0" x1="112.9" y1="463.6" x2="81.9" y2="556.8"/>
		<line class="st0" x1="112.9" y1="479.7" x2="81.9" y2="572.9"/>
		<line class="st0" x1="112.9" y1="495.7" x2="81.9" y2="588.9"/>
		<line class="st0" x1="112.9" y1="511.7" x2="81.9" y2="604.9"/>
		<line class="st0" x1="112.9" y1="527.7" x2="81.9" y2="620.9"/>
		<line class="st0" x1="112.9" y1="543.8" x2="81.9" y2="637"/>
		<line class="st0" x1="112.9" y1="559.8" x2="86.9" y2="638"/>
		<line class="st0" x1="112.9" y1="575.8" x2="92.2" y2="638"/>
		<line class="st0" x1="112.9" y1="591.8" x2="97.5" y2="638"/>
		<line class="st0" x1="112.9" y1="607.9" x2="102.8" y2="638"/>
		<line class="st0" x1="112.9" y1="623.9" x2="108.2" y2="638"/>
	</g>
	<g>
		<line class="st0" x1="447.7" y1="442" x2="446.9" y2="444.6"/>
		<line class="st0" x1="453.1" y1="442" x2="446.9" y2="460.7"/>
		<line class="st0" x1="458.4" y1="442" x2="446.9" y2="476.7"/>
		<line class="st0" x1="463.7" y1="442" x2="446.9" y2="492.7"/>
		<line class="st0" x1="469.1" y1="442" x2="446.9" y2="508.8"/>
		<line class="st0" x1="474.4" y1="442" x2="446.9" y2="524.8"/>
		<line class="st0" x1="477.9" y1="447.6" x2="446.9" y2="540.8"/>
		<line class="st0" x1="477.9" y1="463.6" x2="446.9" y2="556.8"/>
		<line class="st0" x1="477.9" y1="479.7" x2="446.9" y2="572.9"/>
		<line class="st0" x1="477.9" y1="495.7" x2="446.9" y2="588.9"/>
		<line class="st0" x1="477.9" y1="511.7" x2="446.9" y2="604.9"/>
		<line class="st0" x1="477.9" y1="527.7" x2="446.9" y2="620.9"/>
		<line class="st0" x1="477.9" y1="543.8" x2="446.9" y2="637"/>
		<line class="st0" x1="477.9" y1="559.8" x2="451.9" y2="638"/>
		<line class="st0" x1="477.9" y1="575.8" x2="457.2" y2="638"/>
		<line class="st0" x1="477.9" y1="591.8" x2="462.5" y2="638"/>
		<line class="st0" x1="477.9" y1="607.9" x2="467.8" y2="638"/>
		<line class="st0" x1="477.9" y1="623.9" x2="473.2" y2="638"/>
	</g>
	<g>
		<line class="st0" x1="647.7" y1="442" x2="646.9" y2="444.6"/>
		<line class="st0" x1="653.1" y1="442" x2="646.9" y2="460.7"/>
		<line class="st0" x1="658.4" y1="442" x2="646.9" y2="476.7"/>
		<line class="st0" x1="663.7" y1="442" x2="646.9" y2="492.7"/>
		<line class="st0" x1="669.1" y1="442" x2="646.9" y2="508.8"/>
		<line class="st0" x1="674.4" y1="442" x2="646.9" y2="524.8"/>
		<line class="st0" x1="677.9" y1="447.6" x2="646.9" y2="540.8"/>
		<line class="st0" x1="677.9" y1="463.6" x2="646.9" y2="556.8"/>
		<line class="st0" x1="677.9" y1="479.7" x2="646.9" y2="572.9"/>
		<line class="st0" x1="677.9" y1="495.7" x2="646.9" y2="588.9"/>
		<line class="st0" x1="677.9" y1="511.7" x2="646.9" y2="604.9"/>
		<line class="st0" x1="677.9" y1="527.7" x2="646.9" y2="620.9"/>
		<line class="st0" x1="677.9" y1="543.8" x2="646.9" y2="637"/>
		<line class="st0" x1="677.9" y1="559.8" x2="651.9" y2="638"/>
		<line class="st0" x1="677.9" y1="575.8" x2="657.2" y2="638"/>
		<line class="st0" x1="677.9" y1="591.8" x2="662.5" y2="638"/>
		<line class="st0" x1="677.9" y1="607.9" x2="667.8" y2="638"/>
		<line class="st0" x1="677.9" y1="623.9" x2="673.2" y2="638"/>
	</g>
	<rect x="80.9" y="442" class="st1" width="31" height="196"/>
	<rect x="446.9" y="442" class="st1" width="31" height="196"/>
	<rect x="646.9" y="442" class="st1" width="31" height="196"/>
	<g>
		<path d="M81.9,559.6h31h45.7c10.7,0,19.6,8.9,19.6,19.6s-8.9,19.6-19.6,19.6h-45.7h-31h-0.3V638h77c32.4,0,58.8-26.4,58.8-58.8
			c0-18.9-8.9-35.6-22.5-46.3c6-9.4,9.4-20.4,9.4-32.1c0-32.4-26.4-58.8-58.8-58.8h-32.6h-31v39.2h31h35.2c9.3,0,17,8.9,17,19.6
			c0,10.7-7.7,19.6-17,19.6h-35.2h-31V559.6z"/>
		<path d="M417,553c0,47-38.1,84.9-84.9,84.9c-47,0-84.9-37.9-84.9-84.9V442h39.2v111c0,25.3,20.4,45.7,45.7,45.7
			s45.7-20.4,45.7-45.7V442H417L417,553L417,553z"/>
		<path d="M518.7,442h-71.8v39.2h71.8c32.4,0,58.8,26.4,58.8,58.8s-26.4,58.8-58.8,58.8h-71.8V638h71.8c54.1,0,98-43.9,98-98
			S572.8,442,518.7,442z"/>
		<path d="M718.5,442h-71.8v39.2h71.8c32.4,0,58.8,26.4,58.8,58.8s-26.4,58.8-58.8,58.8h-71.8V638h71.8c54.1,0,98-43.9,98-98
			C816.4,485.9,772.5,442,718.5,442z"/>
		<path d="M854.7,442h144.2l-86.2,156.7h81.8v39.2H846.4l86.2-156.7h-77.8V442H854.7z"/>
	</g>
</g>
</svg>
