<?xml version="1.0" encoding="utf-8"?>
<!-- Generator: Adobe Illustrator 26.0.3, SVG Export Plug-In . SVG Version: 6.00 Build 0)  -->
<svg version="1.1" id="Layer_1" xmlns="http://www.w3.org/2000/svg" xmlns:xlink="http://www.w3.org/1999/xlink" x="0px" y="0px"
	 viewBox="0 0 1080 1080" style="enable-background:new 0 0 1080 1080;" xml:space="preserve">
<style type="text/css">
	.st0{fill:#FFFFFF;}
</style>
<g id="KhBQPO.tif">
	<g>
		<path class="st0" d="M267.4,799c-13.6,0-27.3,0-40.9,0c0.1-0.8-0.1-1.9,0.3-2.4c3.4-3.2,7.1-6,10.3-9.4c3.2-3.4,7.7-5.8,7.6-11.9
			c-0.3-18.2,0-36.3-0.1-54.5c0-1.8-0.4-3.7-0.7-5.9c-12.6,5.4-24.4,10.6-36.7,15.9c1.8,2.1,3.3,4.5,5.3,5.9
			c2.7,1.9,2.8,4.3,2.8,7.2c-0.1,6.3,0,12.7-0.1,19c0,1.3,0,3-0.7,3.7c-3.5,3.7-7,7.8-13.2,6.3c-1.9-0.5-4-0.1-6-0.1
			c-4.8-0.1-9.2-4.1-9.3-9c-0.1-26.2-0.1-52.3,0-78.5c0-4.8,2.8-7.4,7.8-7.7c4.3-0.2,8.7-0.2,13,0c6.8,0.3,10.2,6.8,7.1,12.9
			c-1,2-1.3,4.5-2.1,7.9c11.4-4.8,21.5-9,32.3-13.6c0.6-7.1,2.6-15.1-5.5-20.9c-2.4-1.7-4.4-4.2-6.4-6.3c-4.6-4.9-9.9-7.3-17-6.7
			c-9.8,0.8-19.7,0.7-29.4,0c-7.8-0.6-13.7,1.6-18.6,7.7c-2.4,3-5.8,5.1-8.3,8c-1.8,2.2-4,5.1-4.1,7.6c-0.3,33.7-0.2,67.3-0.1,101
			c0,1.2,0.1,2.8,0.9,3.6c4.8,5,9.8,9.7,14.6,14.6c1.6,1.7,2.9,3.7,4.4,5.5c-7,0-14,0-21,0c0-172.7,0-345.3,0-518
			c257.7,0,515.3,0,773,0c0,172.7,0,345.3,0,518c-11.7,0-23.3,0-35,0c-0.2-1.6-0.1-3.3-0.5-4.9c-0.8-3-2.6-6-2.6-9
			c-0.3-16.5-0.2-33-0.1-49.5c0-2.8,0.5-5.7,1.6-8.2c3.4-8.4,7.2-16.7,10.7-25c1.3-3.1,2.1-6.4,3.5-9.5c3.6-8.2,7.2-16.4,11.1-24.5
			c1.9-3.9,4.3-7.6,6.4-11.5c0.9-1.6,1.6-3.4,2.9-6.1c-12.2,0-23,0.2-33.8-0.1c-4.8-0.1-5.3,2-4.4,5.8c0.5,2,1.5,4.2,1,6
			c-2.1,7-4.5,13.9-7.3,20.6c-1.9,4.6-4.4,8.8-7.4,14.5c-1.8-5.2-3-9-4.5-12.6c-1.5-3.6-3.7-6.8-4.8-10.5c-2-6.5-8-12.3-3.7-20
			c0.4-0.7-0.1-1.9-0.1-3.3c-12.4,0-24.5,0-38.1,0c1.3,2.6,2.1,4.4,3.1,6.1c1.1,1.9,2.8,3.5,3.6,5.5c2.3,5.4,4.1,10.9,6.3,16.3
			c1.4,3.4,3.2,6.6,4.7,9.9c2.2,5,4.2,10,6.4,15c2.5,6,5.3,11.9,7.6,18c1.7,4.5,4.1,9.2,4.2,13.9c0.5,16.3,0.3,32.6,0.1,49
			c-0.1,3.3-1.7,6.5-2.4,9.8c-0.3,1.4-0.3,2.9-0.4,4.4c-14.6,0-29.3,0-43.9,0c1.7-8.7,3.5-17.5,5.2-26.2c0.3-1.4,0.2-2.9,0.3-4.8
			c-20,8.7-40,3.1-60.4,5.2c0-12.4-0.1-24,0.2-35.6c0-0.7,2.4-2,3.6-2.1c7.8-0.2,15.6-0.1,23.5-0.1c1.5,0,2.9,0.5,4.3,0.9
			c2.7,0.7,5.4,1.5,8.9,2.5c0-10.8,0.1-20.5-0.2-30.1c0-0.8-2.4-2.3-3.4-2.1c-2.3,0.3-4.6,2.1-6.9,2.2c-9.9,0.3-19.8,0.1-30.2,0.1
			c0-9.8-0.1-19.1,0.2-28.4c0-1,2.2-2.8,3.4-2.8c5.8-0.3,11.7-0.4,17.5-0.1c8.7,0.5,17.6-1.8,25.9,2.3c1.3,0.6,3.2,0.1,5,0.1
			c-0.1-1.7-0.1-2.8-0.3-3.9c-1.6-7-3.6-13.9-4.8-21c-0.6-3.3-1.9-4.1-4.8-4.1c-24.1,0.1-48.2,0-72.4,0c-4,0-4.8,1.7-3.6,5.3
			c1.2,3.6,2.6,7.4,2.6,11.2c0.2,29.5,0.4,59,0,88.4c-0.2,14.4,2.4,29.1-3.5,43c-12.3,0-24.6,0-37,0c0.1-0.9-0.1-2.2,0.4-2.8
			c3.3-3.2,7.1-5.9,10-9.4c2.5-3.1,6.8-5,6.7-10.1c-0.2-13.2,0-26.3-0.2-39.5c0-1.6-1.2-3.5-2.4-4.9c-2.9-3.4-6.1-6.5-9.3-9.8
			c2.5-2.7,4.2-5.5,6.6-7c4.2-2.7,5.4-6.2,5.2-10.9c-0.2-10-0.4-20,0.1-30c0.2-3.8-1.6-6.2-3.6-8.5c-2.6-3.1-6.1-5.4-8.7-8.5
			c-4.6-5.5-10.1-7.2-17.3-6.9c-19,0.6-37.9,0.2-56.9,0.2c-1.9,0-3.8,0.3-7,0.6c6.3,9.7,3.9,19.6,4,29.2c0.2,32.3,0.1,64.7,0,97
			c0,6,1.3,12.2-2.5,17.8c-0.5,0.8,0,2.2,0,3.4c-8,0-16,0-24,0c0-1.5,0.1-3-0.1-4.4c-0.8-4.8-2.4-9.5-2.4-14.3
			c-0.2-36.1-0.2-72.3,0-108.4c0-5.8,1.6-11.6,2.4-17.4c0.1-0.9,0-1.9,0-3c-11.5,0-22.6,0-34.3,0c1.3,4.1,3.2,7.6,3.2,11.1
			c0.3,16.3,0.2,32.6,0.1,48.9c0,1.3-0.8,2.6-1.7,5c-6.7-12.4-12.9-23.4-18.7-34.6c-4.4-8.4-8.2-17.1-12.4-25.6c-1-2-2.8-5-4.4-5.1
			c-8.7-0.5-17.5-0.2-27.4-0.2c0.8,2.7,1.3,4.6,1.9,6.5c0.6,2,1.8,4,1.8,6c0.1,41,0.1,81.9,0,122.9c0,1.9-0.6,3.9-1,5.8
			c-0.5,2.3-1.2,4.5-1.9,6.7c-7,0-14,0-21,0c2.1-10.3,4.1-20.5,6.1-30.5c-6.9,1.6-12.7,3.9-18.6,4.1c-13.7,0.6-27.5,0.2-42,0.2
			c0-12-0.1-23.4,0.1-34.9c0-0.9,1.6-2.5,2.3-2.4c10.5,0.8,21.2-2.5,31.4,2c1.8,0.8,4.1,0.4,6.3,0.5c0-10.8,0-21.1,0-30.4
			c-13.3,0.7-26.4,1.4-40.2,2.1c0-10.6-0.1-20.2,0.2-29.8c0-0.8,2.6-2.2,4-2.3c7.1-0.2,14.3-0.3,21.5-0.1c7,0.2,14.2-1.4,21,2.2
			c1.4,0.7,3.4,0.1,5.7,0.1c-2.1-9.8-4.2-19.1-6.2-28.6c-26.8,0-53.4,0-80.5,0c0.3,2,0.3,3.6,0.7,5.1c0.7,2.7,2.5,5.4,2.5,8.1
			c0.2,40.5,0.1,81,0.1,121.5c0,2.1-0.5,4.3-1,6.4c-0.5,2.2-1.4,4.4-2.1,6.6c-7.7,0-15.3,0-23,0c1.2-8.8,2.4-17.5,3.7-26.3
			c0.2-1.6,0.7-3.1,1.2-5.1c-7.5,2.5-13.7,5.7-21.2,5.3c-10.6-0.6-21.3-0.2-31.9-0.2c-8.1,0-8.1,0-8.1-8.4c0-31.5,0-63,0.2-94.4
			c0-6,1.2-11.9,1.9-18.4c-11.2,0-23.3,0-35.9,0c0.3,1.8,0.4,3.5,0.9,5c0.6,2.1,2.2,4.1,2.2,6.1c0.1,41.6,0.1,83.3,0.1,124.9
			c0,1.6-0.3,3.3-0.8,4.9C268.9,794.7,268.1,796.8,267.4,799z M391.9,420.3c1.8,0.9,3.6,2.4,5.5,2.4c4.3,0.1,8.4,0.3,11.5,3.7
			c3.7,3.3,7.3,6.5,11.1,9.8c-5,6.4-10.5,13.4-15.5,19.7c-2,0.4-4.5,0.1-5.9,1.3c-5.1,4-8.9,9.2-9.7,15.8c-1,8.8-1.9,17.7-2.4,26.6
			c-0.7,11.3-5.5,22.2-3.5,33.9c0.4,2.5-0.5,5.3-0.8,8c-4.9-2.6-12.4-0.2-17.1,5.6c2.2-0.3,3.8-0.4,5.3-0.6c3-0.5,6.4-2.1,8.8-1.2
			c2.6,1,6.2,4.5,6.1,6.8c-0.2,5.5,0.5,10.6,2.5,15.4c3.1,7.4,5.9,15.2,10.4,21.7c3.1,4.6,2.5,6-1.9,7.8c-0.8,0.3-1.5,1.7-1.6,2.6
			c0,0.6,1.1,1.8,1.7,1.9c1.1,0.1,2.5-0.3,3.3-1c0.8-0.6,1-2,1.4-3c0.2,0.4,0.5,0.8,0.7,1.2c1.8-0.5,3.6-1.3,5.4-1.4
			c2.4-0.2,4.9,0,7.3,0.4c1.7,0.3,3.3,1.4,5.2,2.2c0.4-3.6-0.2-6.9,1.2-8.2c1.4-1.3,4.8-0.4,7-1.1c3.5-1.1,6.9-2.7,10.2-4.2
			c1.6-0.7,3.1-1.7,4.6-2.5c-0.6-1.5-1.2-2.7-1.9-4.4c3,0,5.4,0,7.8,0c0.8,4.3,5.8,11.5,7.9,10.8c2.2-0.8,3.8-3.3,6-5.4
			c2.2,1.4,1,8.9,7.4,5.2c-0.1-1.5-0.2-3.1-0.3-5c1.5,0.1,3.2-0.3,3.6,0.3c3.5,4.3,8.1,2.5,12.4,2.6c5.8,0.2,11.6,0,17.5,0.1
			c1.1,0,2.2,0.4,3.3,0.7c-2.1,1.5-4.2,2-6.3,2.1c-5.1,0.2-10.3,0-15.4,0.4c-2.3,0.2-4.6,1.7-6.8,2.6c0,0.7,0,1.5,0,2.2
			c2.6,0.8,6.8,2.9,7.6,2.1c3.3-3.7,6-1.7,8.9-0.3c0.8-1.4,1.5-2.7,2.7-4.9c1.1,2.6,1.7,4.2,2.5,6.2c2.3-1.9,4.4-3.5,6.8-5.5
			c0.6,3.2,1.1,5.7,1.5,8.2c2.6-5,5.1-9.1,10.9-8.7c1.9,0.1,4.5,1.4,5.2,2.9c1.2,2.4,0.4,4.8-3,5.5c-0.9,0.2-1.6,1.5-3.3,3.1
			c4.1,0,6.7,0,7.9,0c2.5-3,4.3-5.1,6.6-7.7c-0.1-0.2-0.6-1.3-0.6-1.3c5.6-2.8,11-5.2,16.1-8.1c2.8-1.7,4.9-3.3,7.9-0.3
			c1.7,1.6,4.4,3.2,6.6,3.1c4.1-0.1,8.2-1.5,12.2-2.3c0.7-0.1,1.4,0.3,2.8,0.5c-1.3,1.6-2.2,2.7-3.2,3.9c1.8,0.6,3.1,1,3.8,1.2
			c-0.5,2.9-0.8,5.4-1.4,8.8c5.3-2.8,5.8-3.5,5.7-7.4c-0.2-5.8-0.2-5.8,6-3.6c-2.8,8.3,6,3.4,7.5,7.5c3.3-5.8-2.4-7.1-3.8-9.7
			c3.9-2,7.5-3.8,10.9-5.6c-2.2-2.4-4-4.4-5.7-6.3c0.2-0.4,0.3-0.9,0.5-1.3c2.8,0,5.6,0.3,8.3-0.1c2.7-0.4,5.5-2.8,7.8-2.3
			c3.9,0.9,8.6-2.9,11.9,1.8c0.3,0.5,2,0.5,2.7,0.1c3.5-1.8,7-3.7,9.3-5c2.2,2.5,3.9,4.3,5.7,6.3c3.1-3.3,4.8-5.3,6.7-7.1
			c4.6-4.3,9-4.3,12.1,1.1c2.5,4.4,5.7,5.2,10.1,5.5c3.8,0.2,7.6,1.6,11.4,2.5c0.1,0.6,0.3,1.3,0.4,1.9c-1.9,1.8-3.7,3.5-5.5,5.2
			c6.5,3.3,15.3,1.4,19.7-4c1.3-1.6,3.7-2.4,5.6-3.5c-0.8,0.9-1.9,1.8-2.4,2.9c-0.4,0.9,0,2,0,3.1c2.6-0.2,5.3-0.4,7.9-0.6
			c0.1-0.4,0.1-0.7,0.2-1.1c-1.9-1.4-3.9-2.7-5.8-4.1c1.2-1.5,2.3-3,4.6-6c-7.6,1.8-11.9-1.3-14.3-6.8c-1.4,0.6-2.3,0.9-3.1,1.3
			c-9.1,4.3-9.4,4.4-16.9-3c-3.1-3.1-5-7.5-8.2-10.4c-4.2-3.9,0.5-12.7-8.6-13.1c3.3-4.3,3.8-9.2,2.5-13.2c-1.1-3.2-1.8-6.6-2.4-9.9
			c-0.5-3.2-0.6-6.5-0.9-10.4c-3.9,2.6-4.8,0.5-4.6-2.3c0.1-1.7,1.2-3.2,1.6-4.9c0.3-1.5,0.8-3.3,0.3-4.6c-0.7-1.9-2.3-3.5-3.7-5.5
			c-0.6,0.2-1.6,0.6-3,1.1c0.4-1.5,0.6-2.7,0.9-3.9c-1.7-0.6-3.1-1-4.4-1.4c-0.2-5.8-4.2-8.6-8.5-6.3c-2.8-5.3-5.1-5.9-14.1-3.7
			c2.2,1.8,4.4,3.6,6.4,5.2c-2.3,3.9-4.2,7-6,10.1c-2.2-3-1.9-5,1.6-9.3c-1.6-1.4-3.1-2.8-5-4.4c-1.4,2.2-3.6,4.1-3.7,6.2
			c-0.4,4,0.2,8.2,0.7,12.3c0.1,0.9,1.8,1.5,2.8,2.2c3.5,5.5,9.2,5.5,12,0.1c3.1-1,6.1-2.1,9.6-3.2c-2.8,8-3.1,16.9,0.7,25.8
			c-0.5,0.1-1,0.1-1.6,0.2c-0.9-0.9-1.8-1.9-2.1-2.2c-2.6,4.2-5,8.4-7.8,12.1c-1.4,1.9-3.6,3.5-5.7,4.5c-2.8,1.3-6.1,1.5-8.9,2.8
			c-3.1,1.4-5.7,4.2-9.3,0.9c-0.3-0.3-1.7,0.9-2.5,0.9c-3.6-0.1-8.9,0.9-10.4-1c-2.2-2.8-4.1-3.2-6.9-3.3c-5.3-0.2-10.9,0.5-15.8-1
			c-6.2-1.9-11.8-1.8-17.9-0.3c-3.9,1-8,0.9-12.2,1.3c0-2.3-0.4-3.8,0.1-5c1.4-3.8,3.3-7.4,4.6-11.2c0.4-1.3-0.7-3-1.1-4.5
			c-1.2,0.9-2.6,1.7-3.6,2.8c-0.6,0.7-0.7,1.8-1,2.7c-0.5-0.1-0.9-0.1-1.4-0.2c-0.2-4.4-0.4-8.7-0.7-13.1c0.5-0.2,1.1-0.4,1.6-0.6
			c2,1.7,4,3.3,6.5,5.4c0.2-5.6,3.9-5.7,7.7-5.6c6.3,0.2,12.6,0.3,18.9,0.5c2.9,0.8,5.8,1.9,8.8,2.5c6.4,1.3,12.9,2.4,19.4,3.6
			c1.9-6.7,1.3-19.9-1.7-23.4c0.8,7.5-1.3,13.7-7.8,16.4c-3.3,1.4-8.1,1.9-10.9-1.3c-2.9,0.9-5.4,1.6-7.9,2.4
			c0.9-2.3,0.2-3.4-2.4-3.3c-2.8,0.1-5.7,0.4-8.4-0.2c-1.5-0.3-3.3-2.1-3.9-3.6c-1-2.6-1.3-5.5-1.9-8.3l-0.1,0.1
			c0.7-1.4,2-2.9,1.9-4.1c-0.6-4.6,3-5.4,5.7-7.1c1.2-0.7,2.7-0.9,4-1.4c-7.1-3-11.3-7.2-9.4-14.7c1.5-6.2,3.9-12.2,6.1-18.3
			c0.1-0.4,1.6-0.3,2.5-0.5c0.4,2.7,0.8,5,1.2,7.2c0.4,0,0.8,0,1.2,0c0.6-2.1,1.1-4.1,1.7-6.2c0.5,0,1,0,1.5,0
			c0.3,5.1,0.7,10.3,1,15.4c2.7-3.7,3.9-7.6,5.7-11.3c1-2,2.9-3.5,4.4-5.2c1.3,1.4,2.6,2.8,4,4.3c0.5,0.5,1,1.1,1.9,2.2
			c1.4-5.7,4.7-7.5,9.6-6.3c0.4,1.9,0.8,3.6,1.2,5.3c0.4-0.1,0.8-0.1,1.2-0.2c0-24.6,0-49.1,0-72.7c-5,0-9.2,0-13.7,0
			c-0.3-0.9-0.6-2.4-1-3.6c-5.4,1-10.5,2-16.1,3c0-1.3,0-2.8,0-4.2l-0.2,0.1c5,0.1,2.7-3.9,2.5-5.7c-0.9-9.1,5.1-10.3,11.6-8.7
			c0.2,1.9,0.5,3.8,0.8,6.2c10.8-3.4,6.5,6.3,8.5,9.6c3-1,5.3-1.7,7.2-2.4c-0.7-3.9-1.8-7.6-2-11.4c-0.1-1.2,1.7-2.7,2.9-3.8
			c1-1,2.3-1.8,3.4-2.7c-0.3-0.5-0.6-0.9-0.9-1.4c-1.8-0.1-4.1-1-5.3-0.2c-4.8,3.1-8.9,1.2-13.8,0c-4.7-1.2-9.5-3.7-14.8-2.5
			c-0.7,0.2-1.9-0.2-2.3-0.7c-3.5-4.4-4.4-1.6-4.7,0.6c-9,0-17.5,0-26,0c0.3-0.6,0.6-1.1,0.9-1.7c-0.8-1.8-1.2-4.2-2.6-5.3
			c-1.1-0.9-3.4-0.5-5.9-0.7c0.4-2.7,0.9-5.8,1.3-9c-0.4-0.3-0.8-0.6-1.2-0.9c-0.9,1.3-2.4,2.5-2.5,3.9c-0.4,3.3,0,6.7-0.3,10
			c-0.1,1.2-1,3-2,3.4c-8,3.6-16.7,1.1-24.9,2.4c-0.2,0-0.6-0.6-0.9-0.9c1.4-0.9,2.7-1.8,4-2.6c-0.1-0.6-0.3-1.2-0.4-1.8
			c-1.9,0.4-4.2,0.2-5.5,1.3c-6.5,5.6-14.2,5.2-21.6,3.9c-6.2-1.1-11.6,0-14.7,4.1c0.8,3.3,2,5.7,2,8c0,30.5-0.1,61-0.2,91.5
			c0,4.8,0.4,9.6-3.5,13.3c0,0,0.1-0.1,0.1-0.1c-4.7-1.3-9.4-2.6-14.5-3.9c0.8-1.9,1.6-3.1,1.6-4.3c0-1.7,0-4.3-1-4.9
			c-4.4-2.6-2.9-5.9-1.8-9.4c0.7-2.1,1-4.2,1.5-6.4c-0.4-0.1-0.8-0.1-1.2-0.2c-1.4,1.9-2.7,3.7-4.1,5.6l0.2,0.2
			c0.3-3.2-0.1-6.6,1-9.5c2.2-5.7-0.6-10.7-6.7-10.7c-0.9,0-1.9-0.3-3-0.5c0.3-3.4,1.5-5.5,5-5.7c2-0.1,4-0.4,5.8-1.2
			c2.2-1,4-1.5,1.5-5.2c-4.5-6.7-7.4-14.5-11.1-22.2c-1-0.1-2.4-0.2-3.1-0.3c-1.8,2.4-3.4,4.2-4.5,6.1c-1,1.7-2.3,3.9-2,5.6
			c1.3,7.7,3.3,15.2,4.6,22.9c0.4,2.3,1.5,6-2.3,6.5c-2.1,0.3-4.5-1.3-6.7-2.1c-2.7-1-5.4-2.2-8-3.3c2.1-2.7,4.2-5.4,6.2-8.1
			c-1.9-1.5-3.5-2.7-5.7-4.4c0.3,2.1,0.6,3.5,0.8,5.3c-6.4,0.4-12.4,0.8-18.5,1.1c-1.3-3.9-2.6-7.8-3.9-12c-8.4,3.2-1.4,12.9-7.5,17
			c2.5-0.5,4.9-1.3,5.9-3C387.7,420,389.3,419.3,391.9,420.3z M668.2,386.5c-2.5-1.3-4.7-2.4-7.1-3.6c-7.2,8.9-15.6,16.2-29.2,13.3
			c-0.4-2.6-0.8-5.4-1.2-8.1c-2.5,2-3.9,4.3-5.1,6.7c-3.6,7.5-10.7,14.5-20.2,13.6c-0.9-0.1-1.9,0.3-3.1,0.5
			c0.2,1.7,0.4,3.1,0.7,5.7c3.2-0.9,6-1.3,8.5-2.5c5.7-2.7,11.4-4.7,18-4.5c15,0.3,29.9,0.1,44.9,0.1c1.6,0,3.2-0.2,4.8-0.2
			c-1.9-1.2-3.7-1.2-5.5-1.2c-14.8,0-29.6,0.1-44.4,0c-2.1,0-4.2-0.6-6.2-1c0.1-0.6,0.1-1.3,0.2-1.9c13.4-2.7,27.3,0,41.7-2.2
			c-5.7-2.2-11.4,0.7-17.3-3.4c4.2-0.7,6.9-1.1,9.6-1.5c-0.3-0.3-0.6-0.6-0.9-0.9c1.6-2.6,3.3-5.1,4.9-7.7c0.7,0.2,1.4,0.5,2.1,0.7
			c-0.2,2.3-0.4,4.6-0.6,7c5.7,1,12,2.3,18.3,3.3c2.5,0.4,4.5,0.1,6-3c1.1-2.4,4.2-3.8,6.2-5.4c2.1,3,3.3,6.1,4.7,6.2
			c5.4,0.4,10.9-0.2,16.3-0.4c0-0.5,0-1-0.1-1.5c-5.3-0.4-10.7-0.7-15.9-1.1c-0.2-8.7,4.1-14.5,12.8-18.3c-0.8-2.4-1.5-4.9-2.4-7.8
			c-1.6,0.3-3.2,0.7-4.5,0.9c-0.4,3.8-0.7,6.9-1.1,10.1c-2.1-0.5-3.5-0.8-4.9-1.1c-1.6,8.4-10.1,2.1-13.9,6.9
			c3.4,0.6,6.3,1.1,9.1,1.6c0,0.4-0.1,0.9-0.1,1.3c-8.9,1.8-17.6,6.4-27.6,2.6C666.8,388.6,667.5,387.6,668.2,386.5z M547.6,312.8
			c-0.8-7.1-3.8-10.1-9.2-8.9c-1.9,0.4-4.3,2.7-4.8,4.6c-0.6,2,0.2,5,1.4,6.8c1.3,1.9,3.9,3,7.1,5.2c-6.3,3.2-11.2,5.6-16.5,8.3
			c6.3,3.2,7.2,3.5,20-1.1c3.2-1.2,5.6-4.8,9.6-8.3c-5.5-1-11.4,1.6-12.1-5.5C544.5,313.5,545.9,313.1,547.6,312.8z M709.6,521.6
			c0,0.6,0,1.2,0,1.7c3.1,0.5,6.2,0.9,10.5,1.6c-2.5,1.9-3.6,2.7-5.2,4c2.3,0.9,3.8,1.5,5.3,2c-0.2,0.6-0.3,1.3-0.5,1.9
			c-2.2-0.5-4.4-1-7.1-1.6c-3.2,0.8-7.4,1.8-12.7,3.1c8.1,3.6,16.3-1.6,23.1,4c-3.8,0.5-7.6,1-11.4,1.5c0,0.3,0.1,0.6,0.1,0.9
			c7.6,0,15.2,0,22.9,0c0-0.3,0.1-0.6,0.1-0.9c-1.6-0.6-3.1-1.3-5.1-2.1c1.1-1.5,1.9-2.6,2.4-3.3c-0.7-1.6-1.6-3-1.8-4.5
			c-1-7.9-2.1-8.9-9.8-8.8C716.8,521.1,713.2,521.4,709.6,521.6z M703,459.7c-3.3-5.1-8.7-7.8-12-7c-4.4,1.1-8.9,1.9-13.4,2.2
			c-4,0.2-9.5-7.2-8.2-11c0.5-1.6,2.5-2.7,4-3.8c1.3-0.9,3.8-1.3,4-2.2c0.8-3.7,3.4-3.5,6-3.8c0.9-0.1,1.8-0.7,2.7-1.1
			c-0.1-0.6-0.3-1.1-0.4-1.7c-2.7,0.5-5.6,0.6-8.1,1.6c-3,1.1-5.6,3.2-8.5,4.1c-2.8,0.8-3.4,2.1-3.1,4.6c0.2,2.3,0.3,4.6,0.4,6.7
			c-1.8,0.6-3.1,1.1-4.7,1.6c2.7,1.8,5.4,3,7.1,5c4.9,5.6,11.2,6.6,17.6,4.9c5-1.4,9.5-3.4,14.3,0.3
			C701,460.4,702.1,459.8,703,459.7z M516.3,303.5c15.8-0.8,28.4-10.5,43-15.8c-2.7-1.7-5.7-3.3-8.2-2.8c-4.6,0.9-8.9,4.1-13.5,4.6
			C528.1,290.9,522.8,297.8,516.3,303.5z M374.1,585.7c3.1,4.7,6,9.1,8.8,13.5c3.2,5.1,4.4,5.3,9.4,1.3c-3.2-2.4-5.1-5-1.5-8.7
			c0.6-0.6-0.1-3.1-0.9-4.2C387.7,584.6,379.1,583.6,374.1,585.7z M593.4,487.1c0.5-2.1,0.9-3.8,1.2-5.2c1.8-0.4,4.1-0.3,4.4-1.1
			c0.6-1.3-0.1-3.2-0.2-5.2c-5.8,0.8-10.9,1.5-16.5,2.3c0.5,2.9,0.2,6.4,1.4,7.1C586.3,486.4,589.7,486.4,593.4,487.1z M731.9,421.8
			c0-0.5,0-1,0-1.5c-12.1,0-24.3-0.1-36.4,0.2c-1.2,0-2.3,2.7-3.4,4.1C705.7,420.1,719.1,424.5,731.9,421.8z M705,553.6
			c0.5,0.7,1,1.4,1.5,2.2c2.5-1.7,5-3.4,7.6-5.2c0.6,2,1.2,3.6,1.8,5.6c4.1-2.5,7.5-4.7,11.1-6.9c-2.1-2.2-3.3-3.6-4.9-5.2
			c-1.9,2.2-3.7,4.1-5.8,6.5c-0.8-2.1-1.5-3.6-2.3-5.5C710.9,548.1,707.9,550.9,705,553.6z M626.8,412.3c0,0.2-0.1,0.5-0.1,0.8
			c15.4,0,30.9,0,46.3,0c0-0.2,0-0.5,0-0.8C657.6,412.3,642.2,412.3,626.8,412.3z M732,454.8c-2.2,1.8-3.8,3.1-5.3,4.4
			c1.7,0.4,3.3,0.8,5,1.3c0.4,0.1,0.7,0.7,1.2,0.8c2.8,0.8,5.6,1.4,8.3,2.1c0.4-0.8,0.8-1.6,1.1-2.4
			C738,460.1,732.5,460.8,732,454.8z M341.9,564.4c4.3-0.2,7.9-0.4,11.4-0.6c0-0.4,0-0.8,0-1.2c-1.6-0.6-3.3-1.2-5.4-1.9
			c1.2-1.3,2-2.3,3.4-3.9c-2.3-0.3-3.8-0.5-4.8-0.7C345.1,558.8,343.9,560.9,341.9,564.4z M722.5,411.9c3.9,6.1,4.6,6,12.6-0.6
			C731.3,411.5,727.3,411.7,722.5,411.9z M467.2,594.1c0.3,5.4,2.9,6.7,8.6,4.1C474.6,592.6,473,591.8,467.2,594.1z M704.5,461.2
			c0,0.5,0,1,0,1.5c5.9,0,11.8,0,17.7,0c0-0.5,0-1,0-1.5C716.3,461.2,710.4,461.2,704.5,461.2z M571.7,484.7
			c0.6-0.1,1.2-0.2,1.8-0.2c-0.2-3-0.4-6-0.6-9c-1.4,0.2-3.4-0.1-4.1,0.8C565,480.8,572.1,481.3,571.7,484.7z M350.5,430.3
			c0.5,0.6,1.1,1.2,1.6,1.8c2.4-1.3,4.8-2.7,7.5-4.2c-1.8-2.3-2.9-3.7-4.3-5.6C353.5,425.4,352,427.8,350.5,430.3z M737.1,479.5
			c0-0.3,0-0.5,0-0.8c-5.5,0-11.1,0-16.6,0c0,0.3,0,0.5,0,0.8C726,479.5,731.5,479.5,737.1,479.5z M370.9,425.3
			c-2.5,1-4.8,2-7.1,2.9c1,0.8,1.9,2,3.1,2.3C369.9,431.2,371.7,430.1,370.9,425.3z M701.9,523.4c0-0.3,0.1-0.6,0.1-1
			c-4.6,0-9.1,0-13.7,0c0,0.3,0,0.6,0,1C692.8,523.4,697.4,523.4,701.9,523.4z M683.1,543.5c0-0.4,0-0.8,0-1.2c-3.9,0-7.7,0-11.6,0
			c0,0.4,0,0.8,0,1.2C675.4,543.5,679.3,543.5,683.1,543.5z"/>
		<path d="M608.9,799c0-1.1-0.5-2.6,0-3.4c3.9-5.5,2.5-11.8,2.5-17.8c0.1-32.3,0.2-64.7,0-97c-0.1-9.6,2.3-19.5-4-29.2
			c3.2-0.3,5.1-0.6,7-0.6c19,0,38,0.4,56.9-0.2c7.3-0.2,12.7,1.4,17.3,6.9c2.6,3.1,6.1,5.4,8.7,8.5c2,2.3,3.8,4.7,3.6,8.5
			c-0.4,10-0.3,20-0.1,30c0.1,4.7-1,8.2-5.2,10.9c-2.4,1.5-4.1,4.3-6.6,7c3.2,3.3,6.4,6.4,9.3,9.8c1.2,1.3,2.3,3.2,2.4,4.9
			c0.2,13.2,0,26.3,0.2,39.5c0.1,5.1-4.2,7-6.7,10.1c-2.8,3.5-6.7,6.2-10,9.4c-0.5,0.5-0.3,1.8-0.4,2.8
			C658.8,799,633.9,799,608.9,799z M641.1,699.1c0,4.8-0.1,9.6,0.1,14.5c0.1,1.4,0.8,3.9,1.7,4.1c1.7,0.4,3.9-0.1,5.5-0.9
			c4.4-2.3,8.4-5.4,12.9-7.4c8.9-4,13.4-13.4,9.8-22.4c-1.2-3-2.4-6.8-6.6-7.3c-5.5-0.6-11-1-16.6-1.5c-4.7-0.4-6.7,2.2-6.8,6.5
			C641.1,689.4,641.1,694.2,641.1,699.1z M653.7,773c2.8,0,5.7,0.1,8.5,0c1.2-0.1,2.7-0.3,3.5-1.1c4-3.6,7.1-7.8,6-13.8
			c-0.4-2.4-0.5-5.1,0-7.5c1-5.4-2.6-8.4-5.6-11.5c-0.8-0.9-3.5-0.8-4.9-0.2c-3.6,1.5-6.9,3.6-10.3,5.5c-2.4,1.4-5,2.7-7.2,4.4
			c-3.9,3.1-2.4,7.7-2.4,11.6C641.2,775.2,640,772.8,653.7,773z"/>
		<path d="M490.1,799c0.6-2.2,1.3-4.5,1.9-6.7c0.5-1.9,1-3.9,1-5.8c0.1-41,0.1-81.9,0-122.9c0-2-1.2-4-1.8-6
			c-0.6-1.9-1.1-3.8-1.9-6.5c9.8,0,18.6-0.3,27.4,0.2c1.6,0.1,3.4,3.1,4.4,5.1c4.3,8.5,8.1,17.2,12.4,25.6
			c5.8,11.2,12,22.2,18.7,34.6c0.8-2.4,1.7-3.7,1.7-5c0.1-16.3,0.2-32.6-0.1-48.9c-0.1-3.5-2-7-3.2-11.1c11.6,0,22.8,0,34.3,0
			c0,1.1,0.1,2.1,0,3c-0.8,5.8-2.4,11.6-2.4,17.4c-0.2,36.1-0.2,72.3,0,108.4c0,4.8,1.6,9.5,2.4,14.3c0.2,1.4,0.1,2.9,0.1,4.4
			c-9.3,0-18.6,0-28,0c-4.3-9.8-8.6-19.6-13.1-29.3c-3.4-7.3-7.2-14.4-10.8-21.6c-3.3-6.7-6.5-13.5-9.7-20.3c-1.4,1.6-2,3.1-2,4.6
			c1.3,22.2-3.7,44.7,3.6,66.6C513.4,799,501.7,799,490.1,799z"/>
		<path d="M174.5,799c-1.5-1.8-2.8-3.8-4.4-5.5c-4.8-4.9-9.8-9.7-14.6-14.6c-0.7-0.8-0.9-2.4-0.9-3.6c0-33.7-0.1-67.3,0.1-101
			c0-2.6,2.2-5.4,4.1-7.6c2.4-2.9,5.9-5.1,8.3-8c4.9-6.1,10.8-8.3,18.6-7.7c9.8,0.7,19.7,0.7,29.4,0c7.2-0.6,12.4,1.8,17,6.7
			c2.1,2.2,4,4.6,6.4,6.3c8.1,5.8,6.1,13.8,5.5,20.9c-10.8,4.5-20.9,8.8-32.3,13.6c0.9-3.4,1.1-5.8,2.1-7.9
			c3.1-6.1-0.3-12.6-7.1-12.9c-4.3-0.2-8.7-0.2-13,0c-5,0.2-7.7,2.9-7.8,7.7c-0.1,26.2-0.1,52.3,0,78.5c0,4.8,4.4,8.9,9.3,9
			c2,0,4.1-0.4,6,0.1c6.2,1.6,9.6-2.5,13.2-6.3c0.7-0.8,0.7-2.5,0.7-3.7c0.1-6.3,0-12.7,0.1-19c0-2.8-0.1-5.2-2.8-7.2
			c-2-1.5-3.4-3.8-5.3-5.9c12.3-5.3,24.1-10.4,36.7-15.9c0.3,2.2,0.7,4.1,0.7,5.9c0,18.2-0.3,36.3,0.1,54.5
			c0.1,6.1-4.4,8.5-7.6,11.9c-3.2,3.4-6.9,6.2-10.3,9.4c-0.4,0.4-0.2,1.6-0.3,2.4C209.1,799,191.8,799,174.5,799z"/>
		<path d="M380.2,799c0.7-2.2,1.6-4.4,2.1-6.6c0.5-2.1,1-4.3,1-6.4c0.1-40.5,0.1-81-0.1-121.5c0-2.7-1.7-5.4-2.5-8.1
			c-0.4-1.5-0.5-3.2-0.7-5.1c27.1,0,53.7,0,80.5,0c2.1,9.5,4.1,18.8,6.2,28.6c-2.2,0-4.3,0.6-5.7-0.1c-6.7-3.6-13.9-1.9-21-2.2
			c-7.1-0.2-14.3-0.2-21.5,0.1c-1.4,0-4,1.4-4,2.3c-0.3,9.6-0.2,19.2-0.2,29.8c13.8-0.7,26.9-1.4,40.2-2.1c0,9.3,0,19.6,0,30.4
			c-2.2-0.1-4.5,0.3-6.3-0.5c-10.3-4.4-21-1.2-31.4-2c-0.8-0.1-2.3,1.6-2.3,2.4c-0.2,11.4-0.1,22.9-0.1,34.9c14.5,0,28.3,0.4,42-0.2
			c5.9-0.2,11.7-2.5,18.6-4.1c-2,9.9-4.1,20.2-6.1,30.5C439.5,799,409.8,799,380.2,799z"/>
		<path d="M720.8,799c5.9-14,3.3-28.7,3.5-43c0.3-29.5,0.2-59,0-88.4c0-3.7-1.4-7.6-2.6-11.2c-1.2-3.6-0.3-5.3,3.6-5.3
			c24.1,0,48.2,0,72.4,0c2.9,0,4.2,0.8,4.8,4.1c1.2,7.1,3.2,14,4.8,21c0.3,1.1,0.2,2.3,0.3,3.9c-1.8,0-3.7,0.5-5-0.1
			c-8.4-4.1-17.3-1.8-25.9-2.3c-5.8-0.3-11.6-0.2-17.5,0.1c-1.2,0.1-3.4,1.8-3.4,2.8c-0.3,9.3-0.2,18.6-0.2,28.4
			c10.4,0,20.3,0.1,30.2-0.1c2.3-0.1,4.5-1.9,6.9-2.2c1.1-0.1,3.4,1.3,3.4,2.1c0.2,9.6,0.2,19.2,0.2,30.1c-3.5-1-6.2-1.8-8.9-2.5
			c-1.4-0.4-2.9-0.8-4.3-0.9c-7.8-0.1-15.6-0.1-23.5,0.1c-1.3,0-3.6,1.3-3.6,2.1c-0.2,11.6-0.2,23.2-0.2,35.6
			c20.4-2.1,40.4,3.5,60.4-5.2c-0.1,1.9,0,3.4-0.3,4.8c-1.7,8.8-3.4,17.5-5.2,26.2C780.7,799,750.7,799,720.8,799z"/>
		<path d="M854.6,799c0.1-1.5,0.1-3,0.4-4.4c0.7-3.3,2.4-6.5,2.4-9.8c0.3-16.3,0.4-32.7-0.1-49c-0.1-4.7-2.5-9.4-4.2-13.9
			c-2.3-6.1-5.1-12-7.6-18c-2.1-5-4.2-10-6.4-15c-1.5-3.3-3.3-6.5-4.7-9.9c-2.2-5.4-4.1-10.9-6.3-16.3c-0.8-2-2.5-3.6-3.6-5.5
			c-1-1.7-1.8-3.6-3.1-6.1c13.6,0,25.8,0,38.1,0c0.1,1.4,0.5,2.6,0.1,3.3c-4.4,7.7,1.7,13.5,3.7,20c1.1,3.6,3.4,6.9,4.8,10.5
			c1.5,3.6,2.6,7.4,4.5,12.6c2.9-5.7,5.5-9.9,7.4-14.5c2.8-6.7,5.2-13.6,7.3-20.6c0.5-1.7-0.6-4-1-6c-0.9-3.8-0.3-5.9,4.4-5.8
			c10.8,0.3,21.5,0.1,33.8,0.1c-1.3,2.7-2,4.5-2.9,6.1c-2.1,3.8-4.5,7.5-6.4,11.5c-3.8,8.1-7.5,16.3-11.1,24.5
			c-1.4,3.1-2.2,6.4-3.5,9.5c-3.5,8.4-7.3,16.6-10.7,25c-1,2.5-1.5,5.5-1.6,8.2c-0.1,16.5-0.2,33,0.1,49.5c0,3,1.8,6,2.6,9
			c0.4,1.6,0.3,3.3,0.5,4.9C879.2,799,866.9,799,854.6,799z"/>
		<path d="M267.4,799c0.7-2.2,1.6-4.3,2.2-6.5c0.4-1.6,0.8-3.3,0.8-4.9c0-41.6,0.1-83.3-0.1-124.9c0-2-1.6-4-2.2-6.1
			c-0.5-1.5-0.6-3.2-0.9-5c12.6,0,24.7,0,35.9,0c-0.7,6.5-1.9,12.5-1.9,18.4c-0.2,31.5-0.1,63-0.2,94.4c0,8.4,0,8.4,8.1,8.4
			c10.6,0,21.3-0.4,31.9,0.2c7.5,0.4,13.6-2.8,21.2-5.3c-0.4,1.9-0.9,3.5-1.2,5.1c-1.3,8.8-2.5,17.5-3.7,26.3
			C327.3,799,297.3,799,267.4,799z"/>
		<path class="st0" d="M525,799c-7.3-21.9-2.2-44.4-3.6-66.6c-0.1-1.5,0.6-3,2-4.6c3.2,6.8,6.4,13.6,9.7,20.3
			c3.5,7.2,7.4,14.3,10.8,21.6c4.5,9.7,8.7,19.5,13.1,29.3C546.3,799,535.7,799,525,799z"/>
		<path d="M570.7,507.2c-6.3-0.2-12.6-0.3-18.9-0.5c-3.8-0.1-7.5,0-7.7,5.6c-2.5-2.1-4.5-3.7-6.5-5.4c-0.5,0.2-1.1,0.4-1.6,0.6
			c0.2,4.4,0.4,8.7,0.7,13.1c0.5,0.1,0.9,0.1,1.4,0.2c0.3-0.9,0.4-2.1,1-2.7c1-1.1,2.4-1.9,3.6-2.8c0.4,1.5,1.5,3.3,1.1,4.5
			c-1.2,3.8-3.2,7.4-4.6,11.2c-0.4,1.2-0.1,2.6-0.1,5c4.2-0.4,8.3-0.3,12.2-1.3c6.1-1.6,11.7-1.6,17.9,0.3c4.9,1.5,10.5,0.8,15.8,1
			c2.8,0.1,4.7,0.6,6.9,3.3c1.5,1.9,6.8,0.9,10.4,1c0.9,0,2.2-1.2,2.5-0.9c3.5,3.3,6.2,0.5,9.3-0.9c2.8-1.3,6.1-1.5,8.9-2.8
			c2.2-1,4.3-2.6,5.7-4.5c2.8-3.8,5.1-7.9,7.8-12.1c0.3,0.3,1.2,1.3,2.1,2.2c0.5-0.1,1-0.1,1.6-0.2c-3.8-8.9-3.4-17.8-0.7-25.8
			c-3.5,1.2-6.5,2.2-9.6,3.2c-4,0-8-0.1-12-0.1c-1-0.7-2.7-1.4-2.8-2.2c-0.5-4.1-1.1-8.2-0.7-12.3c0.2-2.1,2.3-3.9,3.7-6.2
			c1.8,1.6,3.4,3,5,4.4c-3.5,4.3-3.8,6.3-1.6,9.3c1.8-3,3.7-6.2,6-10.1c-2-1.6-4.2-3.4-6.4-5.2c9.1-2.2,11.3-1.6,14.1,3.7
			c4.4-2.4,8.3,0.4,8.5,6.3c1.3,0.4,2.7,0.9,4.4,1.4c-0.3,1.2-0.5,2.3-0.9,3.9c1.4-0.5,2.4-0.9,3-1.1c1.4,2,2.9,3.6,3.7,5.5
			c0.5,1.3,0,3.1-0.3,4.6c-0.4,1.7-1.5,3.2-1.6,4.9c-0.2,2.8,0.7,4.9,4.6,2.3c0.3,3.9,0.4,7.2,0.9,10.4c0.5,3.3,1.2,6.7,2.4,9.9
			c1.4,4,0.8,8.9-2.5,13.2c9.1,0.4,4.4,9.2,8.6,13.1c3.2,3,5.1,7.4,8.2,10.4c7.6,7.4,7.8,7.2,16.9,3c0.9-0.4,1.8-0.8,3.1-1.3
			c2.5,5.6,6.8,8.7,14.3,6.8c-2.3,3-3.5,4.5-4.6,6l0.1-0.1c-1.9,1.2-4.3,1.9-5.6,3.5c-4.4,5.4-13.3,7.3-19.7,4
			c1.8-1.7,3.6-3.5,5.5-5.2c-0.1-0.6-0.3-1.3-0.4-1.9c-3.8-0.9-7.6-2.3-11.4-2.5c-4.4-0.3-7.6-1.1-10.1-5.5
			c-3.1-5.4-7.5-5.5-12.1-1.1c-1.9,1.8-3.6,3.8-6.7,7.1c-1.8-2-3.5-3.8-5.7-6.3c-2.3,1.3-5.7,3.2-9.3,5c-0.7,0.4-2.4,0.3-2.7-0.1
			c-3.3-4.7-8-1-11.9-1.8c-2.3-0.5-5.1,1.9-7.8,2.3c-2.7,0.4-5.5,0.1-8.3,0.1c-0.2,0.4-0.3,0.9-0.5,1.3c1.7,1.9,3.5,3.9,5.7,6.3
			c-3.5,1.8-7,3.6-10.9,5.6c1.4,2.6,7.1,3.9,3.8,9.7c-1.5-4.1-10.3,0.8-7.5-7.5c-6.2-2.2-6.2-2.2-6,3.6c0.1,3.9-0.3,4.7-5.7,7.4
			c0.5-3.4,0.9-5.9,1.4-8.8c-0.6-0.2-2-0.6-3.8-1.2c1-1.2,1.9-2.3,3.2-3.9c-1.3-0.3-2.1-0.6-2.8-0.5c-4.1,0.8-8.1,2.1-12.2,2.3
			c-2.2,0.1-4.9-1.5-6.6-3.1c-3.1-3-5.1-1.4-7.9,0.3c-5.1,3-10.5,5.3-16.1,8.1c0,0,0.5,1.1,0.6,1.3c-2.2,2.6-4,4.7-6.6,7.7
			c-1.2,0-3.8,0-7.9,0c1.7-1.6,2.4-2.9,3.3-3.1c3.4-0.7,4.2-3.2,3-5.5c-0.8-1.5-3.4-2.8-5.2-2.9c-5.8-0.4-8.3,3.7-10.9,8.7
			c-0.5-2.5-0.9-5-1.5-8.2c-2.4,2-4.5,3.6-6.8,5.5c-0.8-2-1.4-3.6-2.5-6.2c-1.2,2.1-1.9,3.4-2.7,4.9c-2.9-1.4-5.6-3.4-8.9,0.3
			c-0.7,0.9-4.9-1.3-7.6-2.1c0-0.7,0-1.5,0-2.2c2.3-0.9,4.5-2.4,6.8-2.6c5.1-0.5,10.3-0.2,15.4-0.4c2.1-0.1,4.1-0.6,6.3-2.1
			c-1.1-0.2-2.2-0.7-3.3-0.7c-5.8-0.1-11.7,0.1-17.5-0.1c-4.2-0.2-8.9,1.7-12.4-2.6c-0.5-0.6-2.1-0.2-3.6-0.3c0.1,1.9,0.2,3.5,0.3,5
			c-6.4,3.7-5.1-3.8-7.4-5.2c-2.2,2.1-3.8,4.6-6,5.4c-2.1,0.8-7.1-6.4-7.9-10.8c-2.4,0-4.8,0-7.8,0c0.7,1.7,1.2,2.9,1.9,4.4
			c-1.5,0.8-3,1.8-4.6,2.5c-3.4,1.5-6.7,3.1-10.2,4.2c-2.3,0.7-5.7-0.3-7,1.1c-1.4,1.3-0.8,4.6-1.2,8.2c-1.9-0.8-3.4-1.9-5.2-2.2
			c-2.4-0.5-4.9-0.6-7.3-0.4c-1.8,0.1-3.6,0.9-5.4,1.4c-0.2-0.4-0.5-0.8-0.7-1.2c-0.5,1-0.7,2.3-1.4,3c-0.8,0.7-2.2,1.1-3.3,1
			c-0.6,0-1.8-1.3-1.7-1.9c0.1-0.9,0.8-2.2,1.6-2.6c4.4-1.8,5-3.2,1.9-7.8c-4.5-6.5-7.3-14.3-10.4-21.7c-2-4.8-2.7-10-2.5-15.4
			c0.1-2.3-3.5-5.8-6.1-6.8c-2.4-0.9-5.8,0.7-8.8,1.2c-1.5,0.2-3,0.4-5.3,0.6c4.7-5.8,12.1-8.2,17.1-5.6c0.3-2.8,1.2-5.5,0.8-8
			c-2-11.7,2.8-22.5,3.5-33.9c0.5-8.9,1.4-17.8,2.4-26.6c0.8-6.7,4.5-11.8,9.7-15.8c1.4-1.1,3.9-0.9,5.9-1.3
			c5-6.3,10.5-13.3,15.5-19.7c-3.7-3.3-7.4-6.6-11-9.8c0,0-0.1,0.1-0.1,0.1c2.7,1.1,5.3,2.2,8,3.3c2.2,0.8,4.6,2.4,6.7,2.1
			c3.8-0.5,2.7-4.2,2.3-6.5c-1.3-7.7-3.3-15.2-4.6-22.9c-0.3-1.7,1-3.9,2-5.6c1.1-2,2.7-3.7,4.5-6.1c0.6,0.1,2.1,0.2,3.1,0.3
			c3.7,7.7,6.6,15.5,11.1,22.2c2.5,3.7,0.7,4.2-1.5,5.2c-1.8,0.8-3.8,1.1-5.8,1.2c-3.6,0.2-4.7,2.3-5,5.7c1.1,0.2,2.1,0.5,3,0.5
			c6.1,0,8.9,5,6.7,10.7c-1.1,2.9-0.7,6.3-1,9.5c-3.4,0-6.9,0.1-5.3,6.7c2.2-2.9,3.7-4.9,5.2-6.9c1.4-1.9,2.7-3.7,4.1-5.6
			c0.4,0.1,0.8,0.1,1.2,0.2c-0.5,2.1-0.8,4.3-1.5,6.4c-1.1,3.5-2.6,6.8,1.8,9.4c1,0.6,1,3.2,1,4.9c0,1.2-0.9,2.4-1.6,4.3
			c5.1,1.4,9.8,2.7,14.5,3.9c0.4,2.7,0.7,5.5,1.1,8.3c0.6,0,1.3,0,1.9,0c0-2.3,0.2-4.7-0.1-6.9c-0.1-0.5-1.9-0.8-3-1.2
			c4-3.7,3.5-8.5,3.5-13.3c0-30.5,0.2-61,0.2-91.5c0-2.4-1.1-4.7-2-8c3-4.1,8.5-5.2,14.7-4.1c7.4,1.3,15.1,1.7,21.6-3.9
			c1.3-1.1,3.6-0.9,5.5-1.3c0.1,0.6,0.3,1.2,0.4,1.8c-1.3,0.8-2.6,1.7-4,2.6c0.3,0.3,0.6,1,0.9,0.9c8.3-1.2,16.9,1.2,24.9-2.4
			c1-0.4,1.9-2.2,2-3.4c0.3-3.3-0.1-6.7,0.3-10c0.2-1.4,1.7-2.6,2.5-3.9c0.4,0.3,0.8,0.6,1.2,0.9c-0.5,3.2-0.9,6.3-1.3,9
			c2.5,0.2,4.8-0.3,5.9,0.7c1.4,1.2,1.8,3.5,2.6,5.3c-0.3,0.6-0.6,1.1-0.9,1.7c8.5,0,17,0,26,0c0.3-2.2,1.3-5.1,4.7-0.6
			c0.4,0.5,1.6,0.9,2.3,0.7c5.3-1.2,10,1.3,14.8,2.5c4.8,1.3,9,3.1,13.8,0c1.2-0.8,3.5,0.1,5.3,0.2c0.3,0.5,0.6,0.9,0.9,1.4
			c-1.1,0.9-2.4,1.7-3.4,2.7c-1.1,1.2-2.9,2.6-2.9,3.8c0.3,3.8,1.3,7.6,2,11.4c-1.9,0.6-4.2,1.4-7.2,2.4c-2-3.3,2.3-13-8.5-9.6
			c-0.3-2.4-0.6-4.3-0.8-6.2c-6.5-1.6-12.5-0.4-11.6,8.7c0.2,1.7,2.5,5.7-2.5,5.7c0-4.9,0-9.8,0-14.5c-3.5-0.2-6.4-0.4-9.3-0.4
			c-0.8,0-1.7,1-2.5,1.6c0.8,0.5,1.6,1.2,2.6,1.5c0.7,0.2,1.7-0.3,2.5-0.1c1.2,0.3,2.4,0.8,3.6,1.2c-1.1,0.7-2,1.7-3.2,2
			c-1.5,0.3-3.2,0.1-5.3,0.1c-0.2,3-0.7,5.8-0.4,8.6c0.2,1.7,1.5,4.6,2.5,4.7c2,0.2,4.2-1,6.2-1.9c1.3-0.7,2.4-1.9,3.6-2.9
			c0,1.5,0,2.9,0,4.2c5.6-1.1,10.7-2,16.1-3c0.3,1.2,0.7,2.7,1,3.6c4.5,0,8.7,0,13.7,0c0,23.6,0,48.2,0,72.7
			c-0.4,0.1-0.8,0.1-1.2,0.2c-0.4-1.7-0.8-3.4-1.2-5.3c-4.9-1.3-8.2,0.5-9.6,6.3c-0.9-1.1-1.4-1.6-1.9-2.2c-1.3-1.4-2.6-2.8-4-4.3
			c-1.5,1.7-3.4,3.2-4.4,5.2c-1.8,3.6-3,7.5-5.7,11.3c-0.3-5.1-0.7-10.3-1-15.4c-0.5,0-1,0-1.5,0c-0.6,2.1-1.1,4.1-1.7,6.2
			c-0.4,0-0.8,0-1.2,0c-0.4-2.3-0.7-4.5-1.2-7.2c-0.8,0.1-2.3,0.1-2.5,0.5c-2.2,6-4.6,12.1-6.1,18.3c-1.8,7.5,2.3,11.8,9.4,14.7
			c-1.3,0.4-2.8,0.6-4,1.4c-2.7,1.7-6.3,2.6-5.7,7.1c0.2,1.3-1.2,2.8-1.9,4.1c0-1.7,0.2-3.4-0.1-5c-0.2-1.2-1.2-2.2-1.8-3.3
			c-0.5,1-1.2,1.9-1.5,3c-0.4,1.3-0.4,2.7-0.5,3.5c-2.5-2.5-4.7-4.8-7-7.1c-1.2,1.8-3,3.5-3.6,5.5c-0.6,1.8,0,4,0.2,7.1
			c2-1.8,2.9-2.7,4.1-3.8c2.7,3.2,5.4,6,8.1,0.4c0.2-0.4,1.5-0.3,2.3-0.4c0.6,2.8,0.8,5.7,1.9,8.3c0.6,1.5,2.4,3.2,3.9,3.6
			c2.7,0.6,5.6,0.3,8.4,0.2c2.6-0.1,3.3,0.9,2.4,3.3L570.7,507.2z M412.1,576c0-0.8,0.3-1.9-0.2-2.3c-2.5-2.8-5.1-5.4-7.7-8.1
			c-3.8,3.1-4.2,6.6-0.6,9.6c3.5,0.3,6,0.5,8.6,0.7c0,1.9,0,3.8,0,5.7c4.7,0.2,8.9,0.5,13.2,0.6c1.1,0,2.4-0.1,3.3-0.7
			c1.7-1.1,3.1-2.7,4.1-3.6c-3.7-1.3-8.4-2.9-13.1-4.3c-0.8-0.2-1.8,0.4-2.7,0.7C415.4,574.8,413.8,575.4,412.1,576z M509.5,390.5
			c-2.8,4.9-5.6,9.9-8.4,14.8c-0.3,0.5-0.7,1-1.1,1.7c-1.3-1.1-2.4-2.1-3.4-3c4.7-5.6-0.7-8.7-1.9-12c-3.4,5.2-6.9,10.4-10.4,15.7
			c2.5,0.2,4.4-0.9,6.3-1.1c1.4-0.1,3,0.9,4.3,1.8c1,0.7,1.7,2.7,2.6,2.8c5.1,0.3,10.2,0.1,15.5,0.1c-0.1-2.1,0.3-3.9-0.4-4.6
			c-3.8-3.7-2.3-8.2-2.3-12.5C510.3,393,509.7,391.7,509.5,390.5c6.2,2.1,1.5,8.3,4.4,12.4c1.2-1,2.3-2.7,3.5-2.8
			c5.4-0.3,5-3.7,4.5-7.4c-0.2-1.6-0.2-3.3-0.2-5c0-6.3-0.5-6.8-6.7-5.9c-1.6,0.2-3.1,0.8-4.1,1C510.5,385.9,510,388.2,509.5,390.5z
			 M561.5,405.6c0.5,3-0.5,9.3,5.6,3.4c0.4-0.4,2.1,0.5,3.1,0.9c0.9,0.4,1.7,1.3,2.5,1.3c8.1,0.1,16.1,0.1,24.6,0.1
			c-0.4-7,2.1-13.7-4.5-18.5c-1-0.7-1-3-1.4-4.5c-0.3-1.1-0.6-2.1-0.9-3.2c-0.4,0-0.7,0.1-1.1,0.1c-0.7,2.9-1.5,5.7-2.2,8.6
			c-0.6,0-1.2-0.1-1.8-0.1c-0.7-3-1.2-6-2.2-8.8c-0.4-1.1-2-1.7-3-2.5c-1.2,1.7-2.9,3.2-3.4,5.1c-1.3,4.7-2,9.6-3.1,14.4
			c-0.2,0.9-1,1.7-1.8,3.1c-0.7-2.3-1.2-3.8-1.8-5.6c-1.6,0.9-2.8,1.6-4,2.3c0.4-3.2,2.1-5.5,2.9-8.1c0.9-2.9,1.1-6.1,1.3-9.2
			c0-0.4-1.8-1.5-2.7-1.4c-0.8,0.1-1.9,1.2-2.1,2.1c-0.4,2.1-0.2,4.3-0.4,6.5c-0.4,5.7-0.6,5.7-5.6,3.4c-1.4-0.6-3.1-0.4-4.8-0.5
			c-0.6-1.1-1.6-3.4-2.1-3.4c-4.7,0.9-4.4-3.5-5.2-4.6c-1.6,1.2-3.2,2.4-4.7,3.5c2.5,2,2.6,2-0.2,4.4c-4.3,3.7-3.7,8.6-3.1,13.3
			c0.3,2.2,2.2,4.1,3.5,6.6c3.5-4,6.5-3.8,9.2-0.6C555.3,410.9,558.3,408.3,561.5,405.6z M569.2,440.4c8.9,5.9,18.5,1.1,27.7,3.1
			c0-10.3,0-19.7,0-29.3c-6,0-11.5,0-15.8,0c-3,4.2-5.5,7.8-7.7,11c-3.7-4.2-6.5-7.4-9.1-10.5c-4.5,1.6-5.6,4.4-5.4,8.3
			c0.1,1.7-0.7,3.5-1.4,5.1c-1.9,4.9-2.5,9.8-1,15.8C560.8,441.1,566.3,446,569.2,440.4z M465.5,468.7c2.8,0,6.1,0,9.7,0
			c0.5-4.1,1-8.2,1.5-12.2c2.5,6.9-0.2,14.4,3.2,21.7c4.3-8.4,4.3-8.4,10.6-10.1c0-3,0.5-6.2-0.1-9.2c-0.5-2.5-1.8-5.8-3.7-6.7
			c-3.4-1.7-2.3-3.7-2.1-5.9c1.9-0.4,3.5-0.7,5.9-1.2c-1.4-5.6-2.8-10.8-4.2-16.3c-8.1,3.8-8.3,10.8-8,17.8
			c-2.3-0.1-3.9-0.2-5.6-0.3c-0.5,1.7-0.9,3.2-1.2,4.4c-1.4-2.4-2.7-4.5-4.2-7.1c0.9-0.2,2.2-0.2,3.1-0.8c1.7-1.2,4.4-2.6,4.6-4.3
			c0.7-5.1,0.1-10.3,0.6-15.4c0.4-4.2-1-7.1-4.3-9.3c-3.6,3.3-6.3,6.5-1.8,10.2c-2,2.2-5,4-5.1,5.9c-0.3,8.9,0.3,17.9,0.6,26.8
			C465.1,460.5,465.3,464.2,465.5,468.7z M443.4,467.8c-3.2,1.7-5.3,3.4-7.6,3.8c-5,0.9-6.4,3.8-6.4,8.4c0.1,8-0.1,16,0.1,23.9
			c0.1,3.1-1.4,6.6,2.2,9.1c0.6,0.4,0.4,3.8-0.4,4.6c-4.6,4.1-0.2,6.6,1.6,9.3c1.1,1.7,3.1,2.9,4.8,4.1c1.6,1,3.3,1.7,6,3.1
			c0-11.8,0-21.9-0.1-32c0-1.2-1-2.4-1.2-3.6c-0.3-1.8-1.1-4-0.5-5.5C445.2,485.1,444.4,477.2,443.4,467.8z M521.8,421.9
			c-4.2-4.6-7.4,5.4-11-1.6c-0.5,5.5-1,10.5-0.4,15.3c0.6,4.5-1.7,9,1.6,13.9c2.1,3.1,0.4,8.7,0.4,13.2c-0.4,0-0.9,0.1-1.3,0.1
			c-0.6-1.8-1.2-3.6-2.3-6.9c-1.2,3.4-1.8,5.4-2.5,7.4c-1.4-1.6-1.6-3.1-2-4.6c-1.1-3.9-1.7-8.1-3.7-11.5c-2.7-4.3-2-7.4,0.8-11.2
			c2-2.8,1.7-6.4-1.6-10c-0.8,3-1.4,5.3-2.1,7.6c-1.5-0.7-2.5-1.2-4.1-2c-2.6,9.3,4.6,16.7,3.9,25.1c-1.2-0.7-2.4-1.4-3.6-2.1
			c-0.6,1.5-1.6,2.9-1.6,4.4c0.1,3.8,0.3,7.6,1.1,11.3c0.7,3.7,3.5,5.2,7.1,4.2c4-1.1,7.9-2.7,13.3-4.6c1-4.5,2.4-10.7,3.8-16.9
			c0.9,2.1,1.8,4.2,3.1,7.3c2-8.3,1.7-9.3-2.6-13c-2.4-2-2.8-7.4-1.4-10.4c1-2,1.1-4.5,1.6-6.7c-0.4-0.1-0.8-0.2-1.2-0.3
			C518.6,427.3,520.2,424.6,521.8,421.9z M510.8,508.5c-2.3-2.8-12.2-2.4-14.6,1.4c-0.3,0.4-0.5,0.9-0.5,1.4c0,8.1,0,16.2,0,25.1
			c5.1-0.2,9.6-0.5,14.2-0.7c0.4,1.6,0.9,3.2,1.3,4.8c1.2-6.7,6-5,10.1-4.6c1.5-5.8-0.1-10.5-3.5-15c-2.7-3.5-1.4-7.4-1.2-11.2
			c0.5-0.2,1-0.5,1.6-0.7c0.5,1.5,1.1,3,1.6,4.4c0.6-0.4,1.2-0.8,1.9-1.2c-0.1-1.6-0.3-3.2-0.5-5.4
			C517.6,507.3,514.7,507.8,510.8,508.5z M481.1,535.3c0-5.4,0.4-10.3-0.2-15c-0.3-2.7-1.6-6.2-3.7-7.6c-5-3.3-13,1.9-13.2,7.9
			c-0.1,2.8-0.1,5.7,0,8.5c0.1,3.8,3.4,7.2,7.1,7.1C474.3,536.2,477.4,535.7,481.1,535.3z M489.3,358.9c-2.1,0.7-4.1,0.8-4.6,1.7
			c-2.4,4.5-4.5,9.2-6.3,14c-0.5,1.2,0.4,3,0.7,4.5c1.2-0.8,2.5-1.5,3.8-2.3c0.9,0.8,1.9,2.4,2.9,2.5c5.9,0.4,11.8,0.5,17.8,0.4
			c3-0.1,3.4-2.4,3.5-5c0.1-2.9-1.4-4.2-3.8-4c-3.2,0.3-7.1-1-9.5,2.8c-0.4,0.6-2,0.5-3.4,0.7C490,369.2,489.7,364.6,489.3,358.9z
			 M550.5,449.2c-0.7-0.1-1.4-0.2-2.1-0.3c-4,10.1-8.1,20.3-4.5,32c0.6-1.8,1.3-3.7,1.9-5.5c0.3,0.4,0.6,0.8,0.9,1.3
			c2.2-0.8,5-1.1,6.6-2.6c2.3-2.1,0.8-15.6-1.5-18.2c-0.7,1.6-1.4,3.1-2.2,4.6c-0.6-0.2-1.2-0.4-1.9-0.6c0.6-1.8,1.4-3.7,1.9-5.5
			C550,452.6,550.2,450.9,550.5,449.2z M552.1,420.3c-2.4,4.1-3.7,9.1-6.7,10.9c-4.9,2.8-6.9,5.8-5.8,11.5c3.5,0.2,7,0.2,10.4,0.5
			c3.3,0.3,4.2-1.3,4.4-4.3c0.3-4.9,1-9.7,1.4-14.5C556,421.5,555,419.8,552.1,420.3z M424.6,518.2c0.3-0.1,0.7-0.2,1-0.3
			c0-11,0-22.1,0-34.4c-2.5,3.8-4.7,6.4-6,9.4c-1.2,2.8-2,6.2-1.7,9.2c0.3,3.1,2.1,6,3.4,9C422.3,513.4,423.5,515.8,424.6,518.2z
			 M412.6,461.9c-2.9-0.3-5.9-0.6-8.9-0.8c-5.2-0.4-10.9,7.3-7.5,10.7c0.8-1.7,1.6-3.2,3-6c0.5,2.3,0.9,3.2,0.9,4.1
			c0,3.3,0.5,5.9,4.8,5.5c5-0.4,6.9-2.3,6.9-6.9C411.8,466.2,412.3,464,412.6,461.9z M475,388.9c-0.6-0.1-1.3-0.2-1.9-0.3
			c-2,2.3-3.9,4.6-6.1,7.2c1.1,0.5,1.9,0.7,2.6,1.1c0.7,0.4,1.4,1,2.4,1.6c-7.1,2.6-7.4,3-7.2,6.6c1.6,0.2,3.1,0.5,4.6,0.7
			c-0.3,1.6-0.7,3.1-1.1,5c2.3,0,4.5,0,8,0C475.8,403.3,475.4,396.1,475,388.9z M552.5,368c-2.9-4.7-6.5-4.7-12.7,0.7
			c1,3.6,1.8,6.8,2.7,10.2c7.1,1.8,8.5,1.1,8.6-3.7C551.1,373.1,551.9,371.1,552.5,368z M433.1,538.8c-1.2,2.7-2.1,4.9-3.2,7.4
			c3.3,4.4,7.1,8.1,14.3,6.4c-0.3-3.1,0.4-7.1-1.2-9C440.8,541.2,436.7,540.4,433.1,538.8z M511.4,570.5c3.3-3.3,6.5-4.4,10.5-2.4
			c1.8,0.9,4.8,1.5,6.2,0.6c1.6-1.1,2.2-3.9,3.7-7.1c-6.3,0-10.8-0.1-15.2,0C511.7,561.7,509.7,564.9,511.4,570.5z M536.7,568.3
			c4,0,7.8-1.2,9.7,0.2c4.2,3.1,6.1,0,8.2-2c2.2-2.2,1.6-4.3-1.8-4.6c-3.8-0.3-7.6-0.2-11.4-0.2
			C535.4,561.8,534.5,563.5,536.7,568.3z M521.6,358.7c-0.5-0.3-0.9-0.7-1.4-1c-0.5,0.3-1,0.7-1.6,0.9c-6.3,2-6.2,2-6.6,7.7
			c0,0.5-0.9,0.8-1.3,1.4c-1.9,3.2-1.1,8.7,1.7,11.1C515.5,372,518.6,365.4,521.6,358.7z M417.2,520.1c-2.1-4.7-4-8.8-6-13.2
			c-10.2,5.9-0.8,11.5-2.1,16.8c0.4,0.4,0.8,0.7,1.2,1.1C412.6,523.3,414.8,521.7,417.2,520.1z M531.4,505.2c0.2,0,0.5,0.1,0.7,0.1
			c0-18.3,0-36.5,0-54.8c-0.2,0-0.5,0-0.7,0C531.4,468.7,531.4,486.9,531.4,505.2z M581.2,562.3c-7.8,0-13.5,0-19.5,0
			c0.5,2.7,0.9,4.9,1.4,7.9c1.4-2.1,2.2-3.3,2.4-3.8c4.1,1.1,7.6,2.6,11,2.6C577.9,569,579.2,565.3,581.2,562.3z M506.5,551.6
			c0.4,0.5,0.9,1.1,1.3,1.6c3.4,0,6.8,0.2,10.2-0.1c1.1-0.1,2.9-1.5,3-2.4c0.1-1.6-0.4-4.5-1.3-4.8c-2.8-0.9-6.3-1.8-8.9-0.9
			C508.9,545.8,507.9,549.3,506.5,551.6z M494.7,565.1c1.2,1.1,2.4,2.7,4,3.7c1,0.6,3.2,0.9,3.8,0.3c1.2-1.4,2-3.3,2.3-5.1
			c0.1-0.7-1.8-2.2-2.9-2.3c-3.1-0.3-6.3-0.2-9.4-0.1c-5,0.2-6,1.9-4.2,7.3C490.4,567.7,492.4,566.5,494.7,565.1z M596,552.9
			c5.3,0,8.8,0,13.4,0c-0.8-3.3-0.6-7.1-2.2-8.1c-1.9-1.2-5.9-0.8-7.9,0.5C597.5,546.5,597.2,549.8,596,552.9z M639.3,544.7
			c0,0.2,0-2.1-0.5-2.2c-2-0.4-4.2-0.3-6.2,0c-2.1,0.4-4.1,1.6-6.2,1.8c-3.8,0.3-7.6,0.1-12.3,0.1c3.9,5.9,5.3,6,8.6,4.8
			C627.8,547.4,633.2,546.3,639.3,544.7z M464.5,492.9c2.5,3.3,4.6,7.2,8.9,3.1c0.4-0.3,2,0.5,2.9,1c3.8,1.6,6.9-0.1,7.6-4.1
			C477.4,492.9,470.9,492.9,464.5,492.9z M600.1,561.7c-3.9,0-6.9-0.1-9.8,0c-5.9,0.1-6.8,1.8-3.6,7.8c3.8-4.5,7.9-1.6,12.5,0.1
			C599.5,566.9,599.7,564.7,600.1,561.7z M475.2,378.8c0-5.2,0-9.2,0-13.3c-4.9,0-5.5,0.6-5.8,4.7c-0.1,1.3-0.9,2.5-1.3,3.8
			c-0.5,1.7-0.8,3.4-1.3,5c1.5-0.7,2.9-1.3,5.2-2.3C472.2,376.8,473.2,377.4,475.2,378.8z M418.9,526.9c-3.1-0.4-4.4,1.6-3.3,5.1
			c2,1.8,4,3.7,4.5,5.9c0.8,4,2.6,4.4,5.9,2.8c0-2.4,0-4.7,0-7c-0.3,0.2-0.6,0.4-0.8,0.5C423.3,531.9,421.4,529.8,418.9,526.9z
			 M467.4,568.6c3-0.3,5.7-1.1,8.3-0.9c4.9,0.4,5.5-0.1,5.1-5.6c-2.6-0.2-5.2-0.4-7.8-0.5C466.4,561.4,465.2,563.3,467.4,568.6z
			 M483.9,545.3c0,0.7-0.2,1.4,0,2c0.4,1,1.1,1.8,1.7,2.7c0.4-1.1,1.1-2.3,1.1-3.4c-0.2-3-6.1-7.7-8.5-7.2c-3.8,0.8-5.8,5.3-4.3,10
			C476.9,547.6,478.4,542.3,483.9,545.3z M440.5,455.8c-10,2.2-11.2,4.1-7.4,11.9c2.3-1.9,4.8-3.9,8-6.4
			C440.9,460.3,440.7,458.3,440.5,455.8z M516.1,490.1c1.6-1.1,2-1.2,2.1-1.4c1-5.4,2.1-10.7,2.8-16.2c0.1-1.1-1.6-2.4-2.5-3.6
			c-0.8,1-2.2,2-2.2,3C516,477.6,516.1,483.4,516.1,490.1z M650.7,511.9c-2.2-5.5-4.2-10.8-6.7-16.9c-1.2,5.4-2.2,9.9,0.7,14.2
			C646.3,511.6,648.2,513.4,650.7,511.9z M505.3,552.7c-1.9-3.5-2.9-6-4.5-7.9c-0.5-0.6-3.8-0.2-3.9,0.3c-0.8,2.5-1,5.2-1.5,8.5
			C498.8,553.2,501.1,553,505.3,552.7z M507.3,383.5c-0.5-0.3-1.1-0.5-1.6-0.8c-6.7,3.8-7.9,6.3-5.2,13.7
			C503.1,391.5,505.2,387.5,507.3,383.5z M695,581.7c-0.2-3.8-0.3-7-0.6-11.5c-2,1.3-4,1.9-4.2,2.8c-0.6,2.8-0.4,5.7-0.6,8.7
			C691.7,581.7,693,581.7,695,581.7z M458.8,550.1c2.3,2.6,3.6,4,5,5.5c1.1-1.8,2.7-3.4,3-5.3c0.2-1.2-1.3-2.8-2.1-4.2
			C463.1,547.2,461.5,548.3,458.8,550.1z M629.7,562.2c-5.5,0-11,0-17.5,0C616.3,565.7,625.7,565.7,629.7,562.2z M504.4,368
			c-0.2-2.8,0-5.2-0.6-7.4c-0.2-0.7-2.8-1.6-3.6-1.2c-1.9,0.9-3.3,2.7-5.2,4.3C498.4,365.3,500.6,366.3,504.4,368z M533.7,588.4
			c-6.7,0-12.1,0-18,0C518.6,591.8,527.8,591.9,533.7,588.4z M422.7,443.3c-2.2,3.8-8.1,5.3-7,11C419.1,451.3,424,449.2,422.7,443.3
			z M447.5,504.1c-0.4,0.4-0.9,0.9-1.3,1.3c0.9,1.5,2.3,4.3,2.7,4.1c2.1-0.8,4-2.2,6-3.4c-0.3-0.5-0.5-1.1-0.8-1.6
			C451.9,504.4,449.7,504.2,447.5,504.1z M505.2,414c-0.8,3.7-1.7,7.3-2.5,11C507.8,424.1,508.4,422,505.2,414z M539.6,430.4
			c0.2,0.3,0.3,0.7,0.5,1c1.6-1.5,4-2.7,4.7-4.5c0.7-2-0.2-4.5-0.4-6.8c-0.4,0.1-0.9,0.2-1.3,0.3C541.9,423.7,540.7,427,539.6,430.4
			z M481.6,425.9c0.5,0.1,1.1,0.3,1.6,0.4c0.9-2.8,1.9-5.6,2.9-8.7c-1.5-0.2-2.9-0.4-4.5-0.5C481.6,420.3,481.6,423.1,481.6,425.9z
			 M455.2,492.4c-0.3,0.4-0.6,0.8-0.9,1.3c1.4,1.3,2.7,2.6,4.1,3.9c1.1-1.4,2.2-2.8,4.2-5.2C458.9,492.4,457.1,492.4,455.2,492.4z
			 M487.3,532.4c2.9,0.2,5.8,0.9,5.2-2.8c-0.2-1.2-2.7-1.9-4.9-3.4C487.4,529.1,487.3,530.5,487.3,532.4z M642.8,558.4
			c3.2,0,5.6,0,8.6,0c-1.7-2.5-2.8-4.1-4-5.8C645.9,554.5,644.7,556.1,642.8,558.4z M487.7,395c0.6,0,1.3,0,1.9,0
			c-0.1-3.2-0.3-6.3-0.4-9.5c-0.5,0-1,0.1-1.5,0.1C487.7,388.8,487.7,391.9,487.7,395z M449,556.2c-4.9-0.7-5.6,1.5-4.7,5.2
			C449,562.4,449.6,560,449,556.2z M528.1,542.3c1.3,2.8,2.4,5.2,3.8,8.3C534.2,543.7,533.4,542.3,528.1,542.3z M503,540.4
			c0-0.6,0-1.1,0-1.7c-3.9,0.2-7.8,0.4-11.7,0.6c0,0.4,0,0.7,0,1.1C495.2,540.4,499.1,540.4,503,540.4z M475.7,504.3
			c-0.3,0.4-0.5,0.8-0.8,1.3c1.4,1.1,2.8,2.2,4.2,3.3c0.8-1.3,1.6-2.7,2.8-4.6C478.9,504.3,477.3,504.3,475.7,504.3z M447,498.5
			c2.6-2.6,4.1-4,5.5-5.5c-1.8-0.2-3.7-0.4-5.5-0.7C447,493.9,447,495.4,447,498.5z M411.1,491.4c0-0.4,0-0.7,0-1.1
			c-3.5,0-7,0-10.5,0c0,0.4,0,0.7,0,1.1C404.1,491.4,407.6,491.4,411.1,491.4z M435.4,439.9c-0.6-2.3-1-4-1.4-5.7
			c-1.6,1.4-3.1,2.8-5.7,5.1C431.5,439.6,432.9,439.7,435.4,439.9z M437.7,417c0.1-0.7,0.1-1.3,0.2-2c-2.5,0-5.1,0-7.6,0
			c0,0.4,0,0.9-0.1,1.3C432.7,416.6,435.2,416.8,437.7,417z M517.5,405.4c-0.6,0.8-1.2,1.6-1.7,2.4c1.6,1.1,3.3,2.2,4.9,3.2
			c0.4-0.8,1.3-2,1.1-2.2C520.5,407.6,519,406.5,517.5,405.4z"/>
		<path d="M668.2,386.5c-0.7,1.1-1.4,2.1-2.2,3.3c10,3.8,18.6-0.9,27.6-2.6c0-0.4,0.1-0.9,0.1-1.3c-2.9-0.5-5.7-1-9.1-1.6
			c3.8-4.8,12.3,1.5,13.9-6.9c1.4,0.3,2.8,0.6,4.9,1.1c0.3-3.2,0.7-6.3,1.1-10.1c1.2-0.2,2.8-0.6,4.5-0.9c0.9,2.9,1.6,5.3,2.4,7.8
			c-8.8,3.8-13,9.7-12.8,18.3c5.3,0.4,10.6,0.7,15.9,1.1c0,0.5,0,1,0.1,1.5c-5.4,0.2-10.9,0.8-16.3,0.4c-1.4-0.1-2.6-3.3-4.7-6.2
			c-2,1.6-5.1,3-6.2,5.4c-1.5,3.1-3.5,3.4-6,3c-6.3-1-12.6-2.3-18.3-3.3c0.2-2.4,0.4-4.7,0.6-7c-0.7-0.2-1.4-0.5-2.1-0.7
			c-1.6,2.6-3.3,5.1-4.9,7.7c0.3,0.3,0.6,0.6,0.9,0.9c-2.7,0.4-5.4,0.9-9.6,1.5c5.8,4.1,11.6,1.2,17.3,3.4
			c-14.4,2.2-28.2-0.5-41.7,2.2c-0.1,0.6-0.1,1.3-0.2,1.9c2.1,0.3,4.2,1,6.2,1c14.8,0.1,29.6,0,44.4,0c1.8,0,3.6,0,5.5,1.2
			c-1.6,0.1-3.2,0.2-4.8,0.2c-15,0-30,0.2-44.9-0.1c-6.6-0.1-12.3,1.8-18,4.5c-2.5,1.2-5.4,1.6-8.5,2.5c-0.3-2.5-0.5-4-0.7-5.7
			c1.3-0.2,2.2-0.6,3.1-0.5c9.5,0.9,16.5-6.1,20.2-13.6c1.2-2.4,2.7-4.7,5.1-6.7c0.4,2.8,0.8,5.5,1.2,8.1c13.6,2.8,22-4.4,29.2-13.3
			C663.6,384.2,665.7,385.3,668.2,386.5z"/>
		<path d="M547.6,312.8c-1.7,0.4-3.1,0.7-4.5,1c0.6,7.1,6.5,4.6,12.1,5.5c-3.9,3.5-6.3,7.1-9.6,8.3c-12.8,4.6-13.7,4.4-20,1.1
			c5.2-2.6,10.2-5.1,16.5-8.3c-3.2-2.2-5.8-3.3-7.1-5.2c-1.3-1.8-2-4.8-1.4-6.8c0.5-1.9,2.9-4.1,4.8-4.6
			C543.8,302.7,546.9,305.7,547.6,312.8z"/>
		<path d="M709.6,521.6c3.6-0.2,7.2-0.4,10.8-0.5c7.8-0.1,8.8,1,9.8,8.8c0.2,1.5,1.1,2.8,1.8,4.5c-0.5,0.8-1.3,1.9-2.4,3.3
			c2,0.8,3.6,1.4,5.1,2.1c0,0.3-0.1,0.6-0.1,0.9c-7.6,0-15.2,0-22.9,0c0-0.3-0.1-0.6-0.1-0.9c3.8-0.5,7.6-1,11.4-1.5
			c-6.8-5.6-14.9-0.4-23.1-4c5.4-1.3,9.5-2.3,12.7-3.1c2.8,0.6,4.9,1.1,7.1,1.6c0.2-0.6,0.3-1.3,0.5-1.9c-1.5-0.6-3.1-1.2-5.3-2
			c1.6-1.2,2.7-2.1,5.2-4c-4.4-0.7-7.5-1.1-10.5-1.6C709.6,522.7,709.6,522.2,709.6,521.6z"/>
		<path d="M703,459.7c-0.9,0.1-2,0.7-2.4,0.3c-4.8-3.7-9.3-1.6-14.3-0.3c-6.4,1.7-12.7,0.7-17.6-4.9c-1.7-2-4.4-3.1-7.1-5
			c1.6-0.6,2.9-1,4.7-1.6c-0.1-2.1-0.1-4.4-0.4-6.7c-0.3-2.5,0.3-3.8,3.1-4.6c3-0.9,5.6-3,8.5-4.1c2.6-0.9,5.4-1.1,8.1-1.6
			c0.1,0.6,0.3,1.1,0.4,1.7c-0.9,0.4-1.8,1-2.7,1.1c-2.7,0.3-5.2,0.1-6,3.8c-0.2,1-2.8,1.3-4,2.2c-1.5,1.1-3.5,2.2-4,3.8
			c-1.3,3.7,4.2,11.2,8.2,11c4.5-0.2,9-1,13.4-2.2C694.2,451.9,699.6,454.6,703,459.7z"/>
		<path d="M516.3,303.5c6.5-5.7,11.8-12.7,21.3-13.9c4.6-0.6,8.9-3.7,13.5-4.6c2.5-0.5,5.5,1.2,8.2,2.8
			C544.7,293.1,532.1,302.7,516.3,303.5z"/>
		<path d="M374.1,585.7c5-2.1,13.6-1.1,15.8,1.9c0.8,1.1,1.5,3.6,0.9,4.2c-3.6,3.7-1.7,6.3,1.5,8.7c-4.9,4-6.2,3.8-9.4-1.3
			C380.1,594.8,377.2,590.4,374.1,585.7z"/>
		<path d="M570.6,507.3c2.5-0.8,5.1-1.5,7.9-2.4c2.8,3.3,7.6,2.7,10.9,1.3c6.5-2.7,8.6-8.9,7.8-16.4c3,3.5,3.6,16.7,1.7,23.4
			c-6.5-1.2-13-2.3-19.4-3.6c-3-0.6-5.9-1.6-8.8-2.5C570.7,507.2,570.6,507.3,570.6,507.3z"/>
		<path d="M593.4,487.1c-3.7-0.7-7.1-0.7-9.7-2.2c-1.2-0.7-0.9-4.2-1.4-7.1c5.6-0.8,10.7-1.5,16.5-2.3c0.2,2,0.8,3.9,0.2,5.2
			c-0.4,0.8-2.7,0.7-4.4,1.1C594.3,483.3,593.9,485,593.4,487.1z"/>
		<path d="M731.9,421.8c-12.7,2.7-26.2-1.6-39.8,2.8c1.1-1.4,2.2-4.1,3.4-4.1c12.1-0.3,24.3-0.2,36.4-0.2
			C731.8,420.8,731.8,421.3,731.9,421.8z"/>
		<path d="M705,553.6c2.9-2.8,5.8-5.5,9.2-8.6c0.8,1.9,1.4,3.4,2.3,5.5c2.1-2.4,3.9-4.3,5.8-6.5c1.6,1.7,2.8,3,4.9,5.2
			c-3.6,2.2-7.1,4.4-11.1,6.9c-0.7-2-1.2-3.6-1.8-5.6c-2.6,1.8-5.1,3.5-7.6,5.2C706,555.1,705.5,554.4,705,553.6z"/>
		<path d="M626.8,412.3c15.4,0,30.8,0,46.2,0c0,0.2,0,0.5,0,0.8c-15.4,0-30.9,0-46.3,0C626.7,412.8,626.7,412.6,626.8,412.3z"/>
		<path d="M391.9,420.3c-2.6-1-4.1-0.3-5.7,2.1c-1,1.7-3.4,2.5-5.9,3c6.1-4.2-0.9-13.8,7.5-17c1.4,4.2,2.7,8.1,3.9,12L391.9,420.3z"
			/>
		<path d="M391.7,420.4c6-0.4,12.1-0.7,18.5-1.1c-0.3-1.8-0.5-3.2-0.8-5.3c2.2,1.7,3.8,2.9,5.7,4.4c-2.1,2.7-4.1,5.4-6.2,8.2
			c0,0,0.1-0.1,0.1-0.1c-3.2-3.4-7.2-3.6-11.5-3.7c-1.8,0-3.6-1.6-5.5-2.4C391.9,420.3,391.7,420.4,391.7,420.4z"/>
		<path d="M732,454.8c0.6,6,6.1,5.3,10.3,6.4c-0.4,0.8-0.8,1.6-1.1,2.4c-2.8-0.7-5.6-1.4-8.3-2.1c-0.4-0.1-0.7-0.7-1.2-0.8
			c-1.6-0.5-3.3-0.9-5-1.3C728.2,457.9,729.8,456.6,732,454.8z"/>
		<path d="M341.9,564.4c2-3.5,3.2-5.6,4.7-8.3c1,0.1,2.5,0.3,4.8,0.7c-1.4,1.6-2.3,2.6-3.4,3.9c2.1,0.8,3.7,1.4,5.4,1.9
			c0,0.4,0,0.8,0,1.2C349.8,564,346.2,564.2,341.9,564.4z"/>
		<path d="M722.5,411.9c4.8-0.2,8.7-0.4,12.6-0.6C727.2,417.9,726.4,418,722.5,411.9z"/>
		<path d="M467.2,594.1c5.8-2.3,7.4-1.5,8.6,4.1C470.2,600.8,467.5,599.5,467.2,594.1z"/>
		<path d="M704.5,461.2c5.9,0,11.8,0,17.7,0c0,0.5,0,1,0,1.5c-5.9,0-11.8,0-17.7,0C704.5,462.2,704.5,461.7,704.5,461.2z"/>
		<path d="M571.7,484.7c0.4-3.4-6.7-3.9-2.9-8.5c0.7-0.8,2.7-0.5,4.1-0.8c0.2,3,0.4,6,0.6,9C572.9,484.6,572.3,484.6,571.7,484.7z"
			/>
		<path d="M350.5,430.3c1.5-2.5,2.9-4.9,4.8-8c1.5,1.9,2.6,3.3,4.3,5.6c-2.7,1.5-5.1,2.8-7.5,4.2
			C351.6,431.5,351.1,430.9,350.5,430.3z"/>
		<path class="st0" d="M617.9,498.3c4,0,8,0.1,12,0.1C627.1,503.8,621.4,503.7,617.9,498.3z"/>
		<ellipse cx="728.8" cy="479.1" rx="11.7" ry="0.5"/>
		<path d="M370.9,425.3c0.8,4.8-1,5.9-4.1,5.2c-1.1-0.3-2.1-1.5-3.1-2.3C366.1,427.3,368.4,426.3,370.9,425.3z"/>
		<path d="M701.9,523.4c-4.5,0-9.1,0-13.6,0c0-0.3,0-0.6,0-1c4.6,0,9.1,0,13.7,0C701.9,522.8,701.9,523.1,701.9,523.4z"/>
		<path d="M703.9,579c1.9,1.4,3.9,2.7,5.8,4.1c-0.1,0.4-0.1,0.7-0.2,1.1c-2.6,0.2-5.3,0.4-7.9,0.6c0-1-0.4-2.2,0-3.1
			c0.5-1.1,1.6-1.9,2.4-2.9C704,578.9,703.9,579,703.9,579z"/>
		<path d="M683.1,543.5c-3.9,0-7.7,0-11.6,0c0-0.4,0-0.8,0-1.2c3.9,0,7.7,0,11.6,0C683.1,542.7,683.1,543.1,683.1,543.5z"/>
		<path class="st0" d="M641.1,699.1c0-4.8-0.1-9.6,0-14.5c0.1-4.3,2.1-6.9,6.8-6.5c5.5,0.5,11.1,0.9,16.6,1.5
			c4.2,0.4,5.5,4.3,6.6,7.3c3.6,9-1,18.5-9.8,22.4c-4.5,2-8.5,5.1-12.9,7.4c-1.6,0.8-3.8,1.3-5.5,0.9c-0.9-0.2-1.6-2.6-1.7-4.1
			C641,708.7,641.1,703.9,641.1,699.1z"/>
		<path class="st0" d="M653.7,773c-13.7-0.2-12.5,2.2-12.4-12.5c0-4-1.5-8.5,2.4-11.6c2.2-1.7,4.7-3.1,7.2-4.4
			c3.4-1.9,6.8-4,10.3-5.5c1.4-0.6,4.1-0.7,4.9,0.2c3,3.2,6.6,6.2,5.6,11.5c-0.5,2.4-0.4,5,0,7.5c1.1,6-1.9,10.1-6,13.8
			c-0.8,0.8-2.3,1-3.5,1.1C659.3,773.1,656.5,773,653.7,773z"/>
		<path class="st0" d="M561.5,405.6c-3.2,2.8-6.2,5.3-9.4,8c-2.8-3.2-5.7-3.4-9.2,0.6c-1.4-2.4-3.3-4.4-3.5-6.6
			c-0.6-4.7-1.2-9.6,3.1-13.3c2.8-2.4,2.7-2.5,0.2-4.4c1.5-1.1,3.1-2.3,4.7-3.5c0.8,1.1,0.5,5.5,5.2,4.6c0.5-0.1,1.4,2.3,2.1,3.4
			c1.7,0.1,3.4-0.1,4.8,0.5c5.1,2.3,5.3,2.3,5.6-3.4c0.1-2.2,0-4.4,0.4-6.5c0.1-0.8,1.3-2,2.1-2.1c0.9-0.1,2.7,0.9,2.7,1.4
			c-0.2,3.1-0.4,6.3-1.3,9.2c-0.8,2.6-2.5,4.9-2.9,8.1c1.2-0.7,2.4-1.4,4-2.3c0.6,1.8,1.1,3.3,1.8,5.6c0.8-1.4,1.6-2.2,1.8-3.1
			c1.1-4.8,1.8-9.7,3.1-14.4c0.5-1.9,2.2-3.4,3.4-5.1c1,0.8,2.6,1.4,3,2.5c1,2.8,1.5,5.9,2.2,8.8c0.6,0,1.2,0.1,1.8,0.1
			c0.7-2.9,1.5-5.7,2.2-8.6c0.4,0,0.7-0.1,1.1-0.1c0.3,1.1,0.6,2.1,0.9,3.2c0.5,1.5,0.4,3.8,1.4,4.5c6.6,4.8,4.1,11.5,4.5,18.5
			c-8.5,0-16.5,0-24.6-0.1c-0.8,0-1.6-1-2.5-1.3c-1-0.4-2.7-1.3-3.1-0.9C561,414.9,562,408.5,561.5,405.6z"/>
		<path class="st0" d="M569.2,440.4c-2.9,5.7-8.4,0.8-12.7,3.5c-1.5-6-0.9-10.9,1-15.8c0.6-1.7,1.5-3.4,1.4-5.1
			c-0.3-3.9,0.8-6.7,5.4-8.3c2.6,3,5.5,6.3,9.1,10.5c2.3-3.2,4.8-6.8,7.7-11c4.3,0,9.9,0,15.8,0c0,9.7,0,19,0,29.3
			C587.7,441.4,578.1,446.2,569.2,440.4z"/>
		<path class="st0" d="M465.5,468.7c-0.2-4.5-0.4-8.2-0.5-11.8c-0.3-8.9-0.8-17.9-0.6-26.8c0.1-1.9,3.1-3.7,5.1-5.9
			c-4.5-3.7-1.8-6.9,1.8-10.2c3.3,2.3,4.7,5.1,4.3,9.3c-0.5,5.1,0.1,10.3-0.6,15.4c-0.2,1.6-2.9,3-4.6,4.3c-0.9,0.6-2.3,0.6-3.1,0.8
			c1.5,2.6,2.8,4.8,4.2,7.1c0.4-1.3,0.8-2.7,1.2-4.4c1.7,0.1,3.3,0.2,5.6,0.3c-0.3-7,0-14,8-17.8c1.4,5.5,2.8,10.7,4.2,16.3
			c-2.4,0.5-4,0.8-5.9,1.2c-0.2,2.2-1.3,4.2,2.1,5.9c1.9,1,3.2,4.3,3.7,6.7c0.6,3,0.1,6.2,0.1,9.2c-6.2,1.6-6.2,1.6-10.6,10.1
			c-3.4-7.4-0.7-14.8-3.2-21.7c-0.5,4-1,8-1.5,12.2C471.5,468.7,468.3,468.7,465.5,468.7z"/>
		<path class="st0" d="M443.4,467.8c0.9,9.4,1.7,17.3-1.6,25.1c-0.6,1.5,0.1,3.7,0.5,5.5c0.2,1.2,1.2,2.4,1.2,3.6
			c0.1,10.1,0.1,20.2,0.1,32c-2.6-1.3-4.4-2-6-3.1c-1.8-1.2-3.8-2.4-4.8-4.1c-1.7-2.7-6.2-5.2-1.6-9.3c0.9-0.8,1.1-4.1,0.4-4.6
			c-3.6-2.5-2.2-6-2.2-9.1c-0.2-8,0-16-0.1-23.9c-0.1-4.6,1.4-7.5,6.4-8.4C438.1,471.2,440.2,469.5,443.4,467.8z"/>
		<path class="st0" d="M521.8,421.9c-1.6,2.7-3.2,5.4-4.8,8.1c0.4,0.1,0.8,0.2,1.2,0.3c-0.5,2.2-0.6,4.7-1.6,6.7
			c-1.4,3.1-1,8.4,1.4,10.4c4.4,3.7,4.6,4.7,2.6,13c-1.3-3.1-2.2-5.2-3.1-7.3c-1.4,6.3-2.8,12.4-3.8,16.9c-5.4,1.9-9.3,3.5-13.3,4.6
			c-3.6,1-6.4-0.5-7.1-4.2c-0.8-3.7-1-7.5-1.1-11.3c0-1.4,1-2.9,1.6-4.4c1.2,0.7,2.5,1.4,3.6,2.1c0.8-8.5-6.5-15.8-3.9-25.1
			c1.5,0.7,2.6,1.3,4.1,2c0.7-2.4,1.3-4.6,2.1-7.6c3.2,3.5,3.6,7.1,1.6,10c-2.7,3.9-3.4,6.9-0.8,11.2c2,3.3,2.6,7.6,3.7,11.5
			c0.4,1.5,0.6,3,2,4.6c0.7-2,1.3-3.9,2.5-7.4c1.1,3.3,1.7,5.1,2.3,6.9c0.4,0,0.9-0.1,1.3-0.1c0-4.5,1.7-10.1-0.4-13.2
			c-3.3-4.9-1-9.3-1.6-13.9c-0.6-4.8-0.1-9.8,0.4-15.3C514.4,427.4,517.6,417.4,521.8,421.9z"/>
		<path class="st0" d="M510.8,508.5c3.9-0.6,6.8-1.1,10.4-1.7c0.2,2.2,0.3,3.8,0.5,5.4c-0.6,0.4-1.2,0.8-1.9,1.2
			c-0.5-1.5-1.1-3-1.6-4.4c-0.5,0.2-1,0.5-1.6,0.7c-0.1,3.8-1.5,7.7,1.2,11.2c3.4,4.4,5,9.1,3.5,15c-4.1-0.4-8.9-2.1-10.1,4.6
			c-0.4-1.6-0.9-3.2-1.3-4.8c-4.6,0.2-9.2,0.4-14.2,0.7c0-8.9,0-17,0-25.1c0-0.5,0.2-1,0.5-1.4C498.7,506.1,508.5,505.7,510.8,508.5
			z"/>
		<path class="st0" d="M481.1,535.3c-3.7,0.4-6.8,0.9-9.9,0.9c-3.7,0-6.9-3.3-7.1-7.1c-0.1-2.8-0.1-5.6,0-8.5
			c0.1-6,8.2-11.2,13.2-7.9c2.1,1.4,3.4,4.9,3.7,7.6C481.6,525.1,481.1,529.9,481.1,535.3z"/>
		<path class="st0" d="M489.3,358.9c0.4,5.7,0.7,10.3,1.1,15.3c1.3-0.3,3-0.1,3.4-0.7c2.4-3.8,6.2-2.5,9.5-2.8
			c2.4-0.2,3.9,1.1,3.8,4c-0.1,2.6-0.5,5-3.5,5c-5.9,0.1-11.9-0.1-17.8-0.4c-1.1-0.1-2-1.7-2.9-2.5c-1.3,0.8-2.5,1.5-3.8,2.3
			c-0.3-1.5-1.2-3.3-0.7-4.5c1.8-4.8,3.9-9.4,6.3-14C485.2,359.7,487.2,359.6,489.3,358.9z"/>
		<path class="st0" d="M509.5,390.4c0.3,1.3,0.8,2.5,0.8,3.8c0,4.3-1.5,8.8,2.3,12.5c0.7,0.7,0.3,2.5,0.4,4.6
			c-5.3,0-10.4,0.1-15.5-0.1c-0.9,0-1.5-2.1-2.6-2.8c-1.3-0.9-2.9-1.9-4.3-1.8c-2,0.2-3.8,1.4-6.3,1.1c3.5-5.3,7-10.5,10.4-15.7
			c1.2,3.3,6.6,6.4,1.9,12c1.1,0.9,2.1,1.8,3.4,3c0.5-0.7,0.8-1.2,1.1-1.7c2.8-4.9,5.6-9.8,8.4-14.8L509.5,390.4z"/>
		<path class="st0" d="M550.5,449.2c-0.3,1.7-0.5,3.4-1,5.1c-0.5,1.9-1.3,3.7-1.9,5.5c0.6,0.2,1.2,0.4,1.9,0.6
			c0.7-1.5,1.4-3,2.2-4.6c2.3,2.6,3.8,16.1,1.5,18.2c-1.6,1.5-4.3,1.8-6.6,2.6c-0.3-0.4-0.6-0.8-0.9-1.3c-0.6,1.8-1.3,3.7-1.9,5.5
			c-3.6-11.7,0.5-21.8,4.5-32C549.1,449,549.8,449.1,550.5,449.2z"/>
		<path class="st0" d="M552.1,420.3c2.9-0.5,3.9,1.2,3.7,4c-0.4,4.8-1.1,9.7-1.4,14.5c-0.2,3-1.1,4.6-4.4,4.3
			c-3.4-0.3-6.9-0.4-10.4-0.5c-1.1-5.7,1-8.6,5.8-11.5C548.4,429.4,549.7,424.4,552.1,420.3z"/>
		<path class="st0" d="M509.5,390.5c0.5-2.3,0.9-4.7,1.5-7.6c1-0.3,2.5-0.8,4.1-1c6.1-0.9,6.7-0.4,6.7,5.9c0,1.7,0,3.3,0.2,5
			c0.5,3.7,0.9,7.1-4.5,7.4c-1.2,0.1-2.2,1.7-3.5,2.8C511.1,398.8,515.8,392.7,509.5,390.5C509.5,390.4,509.5,390.5,509.5,390.5z"/>
		<path class="st0" d="M424.6,518.2c-1.1-2.4-2.2-4.7-3.3-7.1c-1.2-3-3.1-5.9-3.4-9c-0.3-3,0.5-6.3,1.7-9.2c1.2-3,3.5-5.5,6-9.4
			c0,12.3,0,23.3,0,34.4C425.3,517.9,424.9,518,424.6,518.2z"/>
		<path class="st0" d="M568.4,373.7c-1.2,1-2.2,2.2-3.6,2.9c-2,1-4.2,2.1-6.2,1.9c-1-0.1-2.3-3-2.5-4.7c-0.3-2.7,0.2-5.5,0.4-8.6
			c2.1,0,3.8,0.3,5.3-0.1c1.2-0.3,2.1-1.3,3.2-2c-1.2-0.4-2.4-1-3.6-1.2c-0.8-0.2-1.7,0.3-2.5,0.1c-0.9-0.3-1.7-1-2.6-1.5
			c0.8-0.6,1.6-1.6,2.5-1.6c2.9-0.1,5.8,0.2,9.3,0.4c0,4.8,0,9.7,0,14.5C568.2,373.8,568.4,373.7,568.4,373.7z"/>
		<path class="st0" d="M412.6,461.9c-0.3,2.1-0.8,4.4-0.8,6.6c0,4.6-2,6.5-6.9,6.9c-4.3,0.3-4.8-2.2-4.8-5.5c0-0.9-0.4-1.8-0.9-4.1
			c-1.4,2.8-2.1,4.3-3,6c-3.4-3.3,2.3-11.1,7.5-10.7C406.7,461.3,409.7,461.6,412.6,461.9z"/>
		<path class="st0" d="M475,388.9c0.4,7.2,0.7,14.5,1.1,22c-3.4,0-5.6,0-8,0c0.4-1.9,0.8-3.5,1.1-5c-1.5-0.2-3.1-0.5-4.6-0.7
			c-0.2-3.6,0.2-4,7.2-6.6c-0.9-0.7-1.6-1.2-2.4-1.6c-0.7-0.4-1.5-0.6-2.6-1.1c2.2-2.6,4.2-4.9,6.1-7.2
			C473.8,388.7,474.4,388.8,475,388.9z"/>
		<path class="st0" d="M552.5,368c-0.7,3.1-1.4,5.1-1.5,7.1c-0.1,4.9-1.5,5.5-8.6,3.7c-0.9-3.3-1.7-6.6-2.7-10.2
			C546.1,363.4,549.6,363.3,552.5,368z"/>
		<path class="st0" d="M433.1,538.8c3.6,1.6,7.7,2.4,9.9,4.9c1.6,1.8,0.9,5.8,1.2,9c-7.2,1.7-11-2-14.3-6.4
			C431,543.7,431.9,541.5,433.1,538.8z"/>
		<path class="st0" d="M511.4,570.5c-1.7-5.6,0.3-8.7,5.1-8.9c4.5-0.1,8.9,0,15.2,0c-1.6,3.2-2.1,6-3.7,7.1
			c-1.4,0.9-4.4,0.3-6.2-0.6C517.8,566.1,514.7,567.2,511.4,570.5z"/>
		<path class="st0" d="M412.1,576c1.7-0.6,3.3-1.2,5-1.8c0.9-0.3,1.9-0.9,2.7-0.7c4.7,1.4,9.3,3.1,13.1,4.3c-1,0.9-2.4,2.4-4.1,3.6
			c-0.9,0.6-2.2,0.7-3.3,0.7c-4.3-0.1-8.5-0.4-13.2-0.6c0-1.9,0-3.8,0-5.7L412.1,576z"/>
		<path class="st0" d="M536.7,568.3c-2.2-4.7-1.3-6.5,4.8-6.5c3.8,0,7.6-0.1,11.4,0.2c3.4,0.2,4,2.4,1.8,4.6c-2.1,2-4,5.1-8.2,2
			C544.5,567.1,540.7,568.3,536.7,568.3z"/>
		<path class="st0" d="M521.6,358.7c-3,6.7-6.1,13.3-9.2,20.1c-2.8-2.4-3.6-7.9-1.7-11.1c0.3-0.5,1.2-0.9,1.3-1.4
			c0.4-5.8,0.3-5.8,6.6-7.7c0.6-0.2,1.1-0.6,1.6-0.9C520.7,358,521.1,358.4,521.6,358.7z"/>
		<path class="st0" d="M554.1,491.9c-0.8,0.1-2.1,0-2.3,0.4c-2.7,5.6-5.4,2.8-8.1-0.4c-1.2,1.1-2.1,2-4.1,3.8
			c-0.1-3.1-0.8-5.3-0.2-7.1c0.6-2,2.3-3.7,3.6-5.5c2.3,2.3,4.6,4.6,7,7.1c0.1-0.8,0.1-2.2,0.5-3.5c0.3-1.1,1-2,1.5-3
			c0.6,1.1,1.6,2.1,1.8,3.3c0.3,1.6,0.1,3.3,0.1,5C554,492.1,554.1,491.9,554.1,491.9z"/>
		<path class="st0" d="M417.2,520.1c-2.4,1.6-4.7,3.2-6.9,4.7c-0.4-0.4-0.8-0.7-1.2-1.1c1.3-5.3-8.1-10.9,2.1-16.8
			C413.2,511.3,415.1,515.4,417.2,520.1z"/>
		<path class="st0" d="M531.4,505.2c0-18.2,0-36.5,0-54.7c0.2,0,0.5,0,0.7,0c0,18.3,0,36.5,0,54.8
			C531.9,505.2,531.7,505.2,531.4,505.2z"/>
		<path class="st0" d="M581.2,562.3c-2,3-3.3,6.7-4.7,6.7c-3.4,0.1-6.9-1.5-11-2.6c-0.3,0.4-1.1,1.7-2.4,3.8c-0.5-3-0.9-5.2-1.4-7.9
			C567.7,562.3,573.4,562.3,581.2,562.3z"/>
		<path class="st0" d="M506.5,551.6c1.4-2.3,2.3-5.8,4.3-6.5c2.6-0.9,6,0,8.9,0.9c0.9,0.3,1.5,3.2,1.3,4.8c-0.1,0.9-1.9,2.3-3,2.4
			c-3.4,0.3-6.8,0.1-10.2,0.1C507.4,552.7,507,552.1,506.5,551.6z"/>
		<path class="st0" d="M494.7,565.1c-2.3,1.4-4.3,2.6-6.4,3.8c-1.7-5.5-0.7-7.2,4.2-7.3c3.1-0.1,6.3-0.2,9.4,0.1
			c1.1,0.1,3,1.7,2.9,2.3c-0.3,1.8-1.1,3.7-2.3,5.1c-0.5,0.6-2.7,0.3-3.8-0.3C497.2,567.8,495.9,566.2,494.7,565.1z"/>
		<path class="st0" d="M596,552.9c1.2-3.1,1.6-6.5,3.3-7.6c2-1.3,6-1.7,7.9-0.5c1.6,1,1.4,4.8,2.2,8.1
			C604.8,552.9,601.2,552.9,596,552.9z"/>
		<path class="st0" d="M639.3,544.7c-6.1,1.6-11.5,2.6-16.6,4.5c-3.2,1.2-4.6,1-8.6-4.8c4.7,0,8.5,0.2,12.3-0.1
			c2.1-0.2,4.1-1.4,6.2-1.8c2-0.3,4.2-0.4,6.2,0C639.2,542.6,639.3,544.9,639.3,544.7z"/>
		<path class="st0" d="M464.5,492.9c6.5,0,13,0,19.5,0c-0.6,4-3.8,5.7-7.6,4.1c-1-0.4-2.6-1.3-2.9-1
			C469.1,500.1,467,496.1,464.5,492.9z"/>
		<path class="st0" d="M600.1,561.7c-0.4,3-0.6,5.2-0.9,7.9c-4.6-1.6-8.7-4.6-12.5-0.1c-3.1-5.9-2.3-7.7,3.6-7.8
			C593.3,561.7,596.2,561.7,600.1,561.7z"/>
		<path class="st0" d="M475.2,378.8c-2-1.3-3.1-2-3.2-2.1c-2.2,1-3.7,1.7-5.2,2.3c0.4-1.7,0.8-3.4,1.3-5c0.4-1.3,1.2-2.5,1.3-3.8
			c0.3-4,1-4.7,5.8-4.7C475.2,369.5,475.2,373.6,475.2,378.8z"/>
		<path class="st0" d="M418.9,526.9c2.5,2.9,4.4,5.1,6.3,7.2c0.3-0.2,0.6-0.4,0.8-0.5c0,2.3,0,4.6,0,7c-3.3,1.6-5,1.3-5.9-2.8
			c-0.5-2.2-2.5-4.1-4.5-5.9C414.5,528.5,415.8,526.4,418.9,526.9z"/>
		<path class="st0" d="M467.4,568.6c-2.2-5.3-1-7.2,5.6-7c2.6,0.1,5.2,0.3,7.8,0.5c0.5,5.5-0.2,6-5.1,5.6
			C473.1,567.5,470.4,568.2,467.4,568.6z"/>
		<path class="st0" d="M483.9,545.3c-5.5-3-7,2.3-10,4.1c-1.5-4.7,0.6-9.2,4.3-10c2.4-0.5,8.3,4.3,8.5,7.2c0.1,1.1-0.7,2.2-1.1,3.4
			c-0.6-0.9-1.3-1.8-1.7-2.7C483.7,546.7,483.9,546,483.9,545.3z"/>
		<path class="st0" d="M440.5,455.8c0.2,2.5,0.4,4.5,0.5,5.5c-3.1,2.5-5.6,4.5-8,6.4C429.3,459.9,430.5,458,440.5,455.8z"/>
		<path class="st0" d="M516.1,490.1c0-6.7-0.1-12.4,0.1-18.2c0-1,1.5-2,2.2-3c0.9,1.2,2.6,2.5,2.5,3.6c-0.7,5.4-1.8,10.8-2.8,16.2
			C518.1,488.9,517.7,489,516.1,490.1z"/>
		<path class="st0" d="M650.7,511.9c-2.5,1.5-4.4-0.3-6-2.7c-2.8-4.3-1.9-8.8-0.7-14.2C646.5,501.1,648.5,506.4,650.7,511.9z"/>
		<path class="st0" d="M412.2,575.9c-2.6-0.2-5.2-0.4-8.6-0.7c-3.6-3-3.2-6.4,0.6-9.6c2.6,2.7,5.2,5.3,7.7,8.1
			c0.4,0.5,0.1,1.5,0.2,2.3C412.1,576,412.2,575.9,412.2,575.9z"/>
		<path class="st0" d="M505.3,552.7c-4.2,0.4-6.6,0.6-10,0.9c0.5-3.3,0.7-6,1.5-8.5c0.2-0.5,3.4-1,3.9-0.3
			C502.4,546.7,503.4,549.1,505.3,552.7z"/>
		<path class="st0" d="M507.3,383.5c-2.1,4-4.2,8-6.8,12.9c-2.7-7.4-1.5-9.9,5.2-13.7C506.3,383,506.8,383.2,507.3,383.5z"/>
		<path class="st0" d="M695,581.7c-2,0-3.3,0-5.3,0c0.1-3,0-5.9,0.6-8.7c0.2-0.9,2.2-1.5,4.2-2.8C694.6,574.7,694.8,577.9,695,581.7
			z"/>
		<path class="st0" d="M458.8,550.1c2.7-1.8,4.3-2.9,5.9-4c0.8,1.4,2.3,3,2.1,4.2c-0.4,1.9-1.9,3.6-3,5.3
			C462.5,554.1,461.1,552.7,458.8,550.1z"/>
		<path class="st0" d="M629.7,562.2c-4,3.5-13.5,3.5-17.5,0C618.7,562.2,624.2,562.2,629.7,562.2z"/>
		<path class="st0" d="M504.4,368c-3.8-1.7-6-2.7-9.4-4.2c1.9-1.7,3.4-3.4,5.2-4.3c0.9-0.4,3.4,0.4,3.6,1.2
			C504.4,362.9,504.3,365.3,504.4,368z"/>
		<path class="st0" d="M533.7,588.4c-5.9,3.5-15.1,3.4-18,0C521.6,588.4,527,588.4,533.7,588.4z"/>
		<path class="st0" d="M422.7,443.3c1.3,5.9-3.6,7.9-7,11C414.6,448.6,420.5,447.1,422.7,443.3z"/>
		<path class="st0" d="M447.5,504.1c2.2,0.1,4.4,0.3,6.6,0.4c0.3,0.5,0.5,1.1,0.8,1.6c-2,1.2-3.9,2.7-6,3.4
			c-0.4,0.1-1.8-2.7-2.7-4.1C446.6,504.9,447,504.5,447.5,504.1z"/>
		<path class="st0" d="M505.2,414c3.2,8,2.5,10.1-2.5,11C503.5,421.3,504.4,417.7,505.2,414z"/>
		<path class="st0" d="M539.6,430.4c1.2-3.4,2.3-6.7,3.5-10.1c0.4-0.1,0.9-0.2,1.3-0.3c0.2,2.3,1.1,4.9,0.4,6.8
			c-0.7,1.8-3.1,3.1-4.7,4.5C539.9,431.1,539.7,430.7,539.6,430.4z"/>
		<path class="st0" d="M481.6,425.9c0-2.8,0-5.6,0-8.8c1.6,0.2,3,0.4,4.5,0.5c-1,3.1-2,5.9-2.9,8.7
			C482.7,426.2,482.1,426,481.6,425.9z"/>
		<path class="st0" d="M455.2,492.4c1.9,0,3.7,0,7.4,0c-2,2.4-3.1,3.8-4.2,5.2c-1.4-1.3-2.7-2.6-4.1-3.9
			C454.6,493.2,454.9,492.8,455.2,492.4z"/>
		<path class="st0" d="M487.3,532.4c0.1-1.8,0.1-3.3,0.3-6.2c2.2,1.4,4.7,2.2,4.9,3.4C493.1,533.3,490.2,532.6,487.3,532.4z"/>
		<path class="st0" d="M642.8,558.4c1.9-2.4,3.1-3.9,4.7-5.8c1.2,1.7,2.2,3.3,4,5.8C648.4,558.4,646,558.4,642.8,558.4z"/>
		<path class="st0" d="M487.7,395c0-3.1,0-6.2,0-9.3c0.5,0,1-0.1,1.5-0.1c0.1,3.2,0.3,6.3,0.4,9.5C489,395,488.3,395,487.7,395z"/>
		<path class="st0" d="M449,556.2c0.6,3.8,0,6.2-4.7,5.2C443.4,557.7,444.1,555.4,449,556.2z"/>
		<path class="st0" d="M528.1,542.3c5.3-0.1,6.1,1.4,3.8,8.3C530.5,547.5,529.4,545.2,528.1,542.3z"/>
		<path class="st0" d="M503,540.4c-3.9,0-7.8,0-11.7,0c0-0.4,0-0.7,0-1.1c3.9-0.2,7.8-0.4,11.7-0.6C503,539.3,503,539.8,503,540.4z"
			/>
		<path class="st0" d="M475.7,504.3c1.6,0,3.2,0,6.2,0c-1.2,1.9-2,3.2-2.8,4.6c-1.4-1.1-2.8-2.2-4.2-3.3
			C475.2,505.2,475.5,504.7,475.7,504.3z"/>
		<path class="st0" d="M447,498.5c0-3.1,0-4.6,0-6.1c1.8,0.2,3.7,0.4,5.5,0.7C451,494.5,449.6,496,447,498.5z"/>
		<path class="st0" d="M411.1,491.4c-3.5,0-7,0-10.4,0c0-0.4,0-0.7,0-1.1c3.5,0,7,0,10.5,0C411.1,490.7,411.1,491,411.1,491.4z"/>
		<path class="st0" d="M457.5,469.5c1,0.4,2.9,0.7,3,1.2c0.3,2.3,0.1,4.6,0.1,6.9c-0.6,0-1.3,0-1.9,0c-0.4-2.8-0.7-5.5-1.1-8.3
			C457.6,469.4,457.5,469.5,457.5,469.5z"/>
		<path class="st0" d="M435.4,439.9c-2.6-0.2-4-0.3-7.1-0.6c2.5-2.3,4.1-3.7,5.7-5.1C434.5,435.9,434.9,437.6,435.4,439.9z"/>
		<path class="st0" d="M438.2,445.9c-1.5,2-3,3.9-5.2,6.9c-1.5-6.6,1.9-6.6,5.3-6.7C438.3,446.1,438.2,445.9,438.2,445.9z"/>
		<path class="st0" d="M437.7,417c-2.5-0.2-5-0.4-7.5-0.7c0-0.4,0-0.9,0.1-1.3c2.5,0,5.1,0,7.6,0C437.8,415.7,437.8,416.4,437.7,417
			z"/>
		<path class="st0" d="M517.5,405.4c1.5,1.1,3,2.2,4.3,3.4c0.2,0.2-0.7,1.4-1.1,2.2c-1.6-1.1-3.3-2.2-4.9-3.2
			C516.4,407,516.9,406.2,517.5,405.4z"/>
	</g>
</g>
</svg>
