<?xml version="1.0" encoding="utf-8"?>
<!-- Generator: Adobe Illustrator 26.0.3, SVG Export Plug-In . SVG Version: 6.00 Build 0)  -->
<svg version="1.1" id="Layer_1" xmlns="http://www.w3.org/2000/svg" xmlns:xlink="http://www.w3.org/1999/xlink" x="0px" y="0px"
	 viewBox="0 0 1080 1080" style="enable-background:new 0 0 1080 1080;" xml:space="preserve">
<style type="text/css">
	.st0{fill:#010101;}
	.st1{fill:#FFFFFF;}
	.st2{fill:none;stroke:#000000;stroke-width:0.7193;stroke-linecap:round;stroke-linejoin:round;stroke-miterlimit:10;}
	.st3{opacity:0.2;enable-background:new    ;}
</style>
<g>
	<path class="st0" d="M149.6,624.2c-2.5-2.6-3.8-5.7-3.8-9.3V465.2c0-3.6,1.2-6.7,3.8-9.2c2.6-2.6,5.7-3.9,9.3-3.9
		c3.5,0,6.6,1.3,9.2,3.9c2.5,2.5,3.8,5.5,3.8,9.2v149.7c0,3.6-1.2,6.7-3.8,9.3c-2.6,2.5-5.7,3.8-9.2,3.8
		C155.2,627.9,152.2,626.7,149.6,624.2z"/>
	<path class="st0" d="M242.8,553c-13.9,0-25.8-4.9-35.6-14.7c-9.9-9.9-14.9-21.8-14.9-35.7c0-13.9,5-25.7,14.9-35.6
		c9.8-9.9,21.7-14.9,35.6-14.9h100.9c3.5,0,6.6,1.3,9.2,3.9c2.5,2.5,3.8,5.5,3.8,9.2c0,3.7-1.2,6.7-3.8,9.2
		c-2.6,2.5-5.7,3.8-9.2,3.8H242.8c-6.8,0-12.6,2.4-17.3,7.2c-4.4,4.4-6.7,9.5-7.1,15.4c-0.5,7.7,2.6,15.4,8.4,20.5
		c4.4,3.9,9.8,5.9,16,5.9h54.7h8.7c13.9,0,25.9,5,35.7,14.9c9.8,9.8,14.7,21.7,14.7,35.6s-4.9,25.8-14.7,35.6
		C332,623,320,628,306.1,628H205.4c-3.6,0-6.7-1.2-9.3-3.8c-2.5-2.6-3.8-5.7-3.8-9.3c0-3.5,1.2-6.6,3.8-9.2c2.6-2.5,5.7-3.8,9.3-3.8
		h100.7c6.8,0,12.6-2.4,17.3-7.2c4.8-4.7,7.2-10.5,7.2-17.3c0-6.7-2.4-12.5-7.2-17.3c-4.7-4.8-10.5-7.2-17.3-7.2h-8.7L242.8,553
		L242.8,553z"/>
	<path class="st0" d="M542.3,624.2c-2.5-2.6-3.8-5.7-3.8-9.3V494.8l-58.9,54.7c-2.5,2.3-5.4,3.4-8.8,3.4c-3.4,0-6.4-1.1-8.8-3.4
		l-58.9-54.7v120.1c0,3.6-1.2,6.7-3.8,9.3c-2.6,2.5-5.7,3.8-9.2,3.8c-3.6,0-6.7-1.2-9.3-3.8c-2.5-2.6-3.8-5.7-3.8-9.3V465.2
		c0-5.7,2.6-9.6,7.7-11.9c5.2-2.2,10-1.5,14.1,2.3l71.9,66.8l71.8-66.8c4.1-3.8,8.8-4.6,14.1-2.3c5.1,2.2,7.7,6.2,7.7,11.9v149.7
		c0,3.6-1.3,6.7-3.9,9.3c-2.5,2.5-5.5,3.8-9.2,3.8C547.9,627.9,544.9,626.7,542.3,624.2z"/>
	<path class="st0" d="M621.1,627.9c-9.9,0-18.4-3.5-25.4-10.6c-7-7-10.6-15.5-10.6-25.4V488.2c0-10,3.5-18.4,10.6-25.6
		c7-7,15.5-10.6,25.4-10.6h92.2c9.9,0,18.4,3.5,25.4,10.6c7,7.1,10.6,15.6,10.6,25.6v103.7c0,9.9-3.5,18.4-10.6,25.4
		c-7,7-15.5,10.6-25.4,10.6H621.1z M621.1,478c-2.8,0-5.1,1-7.1,3c-2,2-3,4.4-3,7.2v103.7c0,2.8,1,5.1,3,7.1c2,2,4.4,3,7.1,3h92.2
		c2.8,0,5.1-1,7.1-3c2-2,3-4.4,3-7.1V488.2c0-2.8-1-5.3-3-7.2c-2-2-4.4-3-7.1-3H621.1z M658.2,554.9c-2.6-2.5-3.9-5.5-3.9-9.2v-11.5
		c0-3.6,1.3-6.7,3.9-9.2c2.5-2.5,5.5-3.8,9.2-3.8c3.5,0,6.6,1.2,9.2,3.8c2.5,2.5,3.8,5.5,3.8,9.2v11.5c0,3.6-1.2,6.7-3.8,9.2
		c-2.6,2.6-5.7,3.9-9.2,3.9C663.7,558.8,660.6,557.5,658.2,554.9z"/>
	<path class="st0" d="M916.9,469.5c-11.6-11.6-25.5-17.4-41.8-17.4H783c-0.1,0-0.2,0-0.2,0c-0.1,0-0.2,0-0.2,0
		c-3.6,0-6.7,1.3-9.3,3.9c-2.5,2.5-3.8,5.5-3.8,9.2V615c0,3.6,1.2,6.7,3.8,9.3c2.6,2.5,5.7,3.8,9.3,3.8c0.1,0,0.2,0,0.2,0
		c0.1,0,0.2,0,0.2,0h92.1c16.3,0,30.2-5.7,41.8-17.3c11.6-11.6,17.3-25.6,17.3-41.8v-57.7C934.1,494.9,928.4,481.1,916.9,469.5z
		 M908.2,568.8c0,9.1-3.2,16.9-9.6,23.5c-6.4,6.4-14.2,9.6-23.5,9.6h-79.7V478h79.7c9.2,0,17,3.3,23.5,9.8
		c6.4,6.4,9.6,14.2,9.6,23.3V568.8z"/>
</g>
</svg>
