<?xml version="1.0" encoding="utf-8"?>
<!-- Generator: Adobe Illustrator 26.0.3, SVG Export Plug-In . SVG Version: 6.00 Build 0)  -->
<svg version="1.1" id="Layer_1" xmlns="http://www.w3.org/2000/svg" xmlns:xlink="http://www.w3.org/1999/xlink" x="0px" y="0px"
	 viewBox="0 0 1080 1080" style="enable-background:new 0 0 1080 1080;" xml:space="preserve">
<style type="text/css">
	.st0{fill:#010101;}
	.st1{fill:#FFFFFF;}
	.st2{fill:none;stroke:#000000;stroke-width:0.7193;stroke-linecap:round;stroke-linejoin:round;stroke-miterlimit:10;}
	.st3{opacity:0.2;enable-background:new    ;}
</style>
<g id="_x30_WKpGW.tif">
	<g>
		<path class="st1" d="M692.1,488.6c-0.9-0.1-1.6-0.2-2.3-0.2c-44.9,0-89.9-0.4-134.8,0.1c-12.5,0.1-22.4,7.5-29.1,17.8
			c-7,10.8-7.7,22.8-3.6,35.1c4.2,12.9,21.8,25.2,34.4,25.1c33.6-0.3,67.2-0.1,100.8-0.1c8.5,0,16,5,18,13.4
			c1.3,5.2,1.1,10.8,1.2,16.2c0.1,8.2-8.3,17.6-18,17.5c-42-0.5-84.1-0.2-126.1-0.2c-1.7,0-3.4,0-4.9,0c0,7.9,0,15.1,0,22.6
			c2.1,0,3.8,0,5.5,0c42.8,0,85.5-0.2,128.3,0.1c13.7,0.1,23.2-6.4,30.8-16.6c5.3-7.1,8.2-15.2,7.6-24.3c-0.4-6,0.3-12.2-0.7-18.2
			c-1.5-8.5-5.7-15.8-12.3-21.9c-7.1-6.5-15.1-11.4-24.6-11.5c-34.2-0.4-68.4-0.1-102.5-0.2c-8.3,0-13.9-4.8-16.1-13.4
			c-1.7-6.3,2.5-14.2,9.2-16.9c3.2-1.3,7-2,10.5-2c41.2-0.1,82.3-0.1,123.5-0.1c1.8,0,3.7-0.2,5.5-0.3
			C692.1,503.1,692.1,495.9,692.1,488.6z M818.2,635.8c15.3,0,30.5,0,45.8,0c1.7,0,3.5-0.2,5.1-0.6c10.9-2.7,19.6-8.7,27-17.2
			c8.4-9.6,12.3-20.6,12.5-33c0.2-14.8,0.1-29.6,0-44.4c-0.1-9.4-1.7-18.6-7.4-26.4c-3.9-5.3-8.3-10.5-13.2-14.9
			c-7.7-6.9-17.2-10.7-27.5-10.9c-27.8-0.3-55.5-0.1-83.3-0.1c-1.6,0-3.2,0.1-4.7,0.4c-12.3,2.1-22.9,7.7-31,17.1
			c-7.5,8.7-12.5,18.6-12.2,30.8c0.5,18,0,36,0.2,54c0,3.7,0.4,7.6,1.8,10.9c2,4.8,4.7,9.5,7.8,13.7c9,12.4,20.6,20.7,36.7,20.6
			C790,635.7,804.1,635.8,818.2,635.8z M259.1,604.9c-1.4-0.7-2.2-0.9-2.8-1.4c-10-8.7-19.9-17.5-29.9-26.3
			c-10.7-9.5-21.3-19.1-32.1-28.6c-11-9.7-22.1-19.3-33.2-29c-10.8-9.4-21.6-18.9-32.4-28.3c-4.7-4-10.2-4.1-15.5-2.1
			c-6.1,2.3-10.2,6.5-10.1,13.9c0.1,42.5,0.1,85,0.1,127.5c0,1.6,0,3.1,0,4.9c7.8,0,15.1,0,22.9,0c0-38.3,0-76.4,0-114.9
			c2,1.2,3.6,1.9,4.9,3c10.9,9.5,21.7,19.1,32.6,28.7c13,11.5,25.8,23.1,38.8,34.6c12.5,11.1,25.1,22.3,37.7,33.3
			c4.9,4.3,9.8,8.7,14.9,12.8c5.7,4.6,18.1,3.8,23-1.6c3.2-3.5,4.5-7.8,4.5-12.6c-0.1-42.1,0-84.2,0-126.2c0-1.4-0.1-2.8-0.2-4.1
			c-7.9,0-15.2,0-23.1,0C259.1,527.4,259.1,565.9,259.1,604.9z M311.1,488.5c0,1.9,0,3.6,0,5.3c0,26,0.2,52-0.1,77.9
			c-0.1,8.5,1.7,16.5,4.4,24.3c3,8.9,8.5,16.5,15.3,22.9c10.7,10,22.7,16.9,38,16.8c22.7-0.1,45.4,0,68.1,0c1.6,0,3.2-0.1,4.7-0.5
			c19.9-4.5,33.9-16.4,43.2-34.1c4-7.6,6.2-15.8,6.1-24.6c-0.2-27.6-0.1-55.1-0.1-82.7c0-1.7,0-3.4,0-5.4c-8,0-15.5,0-23.4,0
			c0,1.8,0,3.3,0,4.9c0,26.3-0.1,52.5,0.1,78.8c0,8.6-1.7,16.6-6.4,23.8c-7.2,10.7-17.3,16.9-30.3,17.1c-17.9,0.3-35.8,0-53.7,0.1
			c-7.2,0.1-13.9-0.9-20.7-4c-10.2-4.7-20.9-19.9-20.8-31.4c0.2-28.2,0.1-56.3,0.1-84.5c0-1.6,0-3.1,0-4.9
			C327.2,488.5,319.4,488.5,311.1,488.5z M943.9,444.3c0,14.9,0,29.5,0,44.2c2.2,0,4.2,0,6.1,0c0-10.6,0-20.8,0-31
			c3.3,8,5.7,16.1,8.4,24.1c0.4,1.2,2,2.1,3,3.2c1-1.1,2.6-2,3.1-3.2c1.7-5,2.9-10.1,4.4-15.1c1-3.4,2.2-6.7,3.3-10
			c0.2,0.1,0.4,0.2,0.6,0.2c0,10.6,0,21.1,0,32c1.4-0.1,2.7-0.1,4-0.2c0-15.1,0-29.7,0-44.3c-4.1-1-6.2-0.1-7.3,4.3
			c-2.3,8.8-5.3,17.4-8.1,26.4c-2.7-8.6-5.2-16.9-7.9-25.2C951.3,443.3,951.2,443.4,943.9,444.3z M919.8,448.8
			c0.1,1.5,0.3,2.6,0.3,3.7c0,10.9-0.1,21.7,0.1,32.6c0,1.1,1.4,2.9,2.5,3.2c2.6,0.7,2.5-1.5,2.5-3.3c0-4.8,0-9.6,0-14.3
			c0-7.2,0-14.4,0-22.2c4.6,0,8.7,0,13.1,0c-0.2-1.9-0.3-3.1-0.4-4.4c-10.1,0-19.9,0-29.9,0c0,1.6,0,2.9,0,4.7
			C912.2,448.8,915.9,448.8,919.8,448.8z"/>
		<path d="M692.1,488.6c0,7.3,0,14.5,0,22.2c-1.8,0.1-3.7,0.3-5.5,0.3c-41.2,0-82.3,0-123.5,0.1c-3.5,0-7.2,0.7-10.5,2
			c-6.7,2.7-10.9,10.6-9.2,16.9c2.3,8.6,7.8,13.3,16.1,13.4c34.2,0.1,68.4-0.2,102.5,0.2c9.5,0.1,17.5,5,24.6,11.5
			c6.6,6,10.8,13.3,12.3,21.9c1,5.9,0.4,12.1,0.7,18.2c0.6,9.1-2.4,17.2-7.6,24.3c-7.6,10.2-17.1,16.7-30.8,16.6
			c-42.8-0.3-85.5-0.1-128.3-0.1c-1.7,0-3.4,0-5.5,0c0-7.5,0-14.7,0-22.6c1.5,0,3.2,0,4.9,0c42,0,84.1-0.3,126.1,0.2
			c9.8,0.1,18.2-9.3,18-17.5c-0.1-5.4,0.1-11-1.2-16.2c-2-8.3-9.4-13.4-18-13.4c-33.6,0-67.2-0.2-100.8,0.1
			c-12.6,0.1-30.2-12.2-34.4-25.1c-4-12.3-3.4-24.4,3.6-35.1c6.7-10.2,16.6-17.6,29.1-17.8c44.9-0.5,89.9-0.2,134.8-0.1
			C690.5,488.3,691.2,488.5,692.1,488.6z"/>
		<path d="M818.2,635.8c-14.1,0-28.2-0.1-42.3,0c-16.2,0.1-27.7-8.2-36.7-20.6c-3.1-4.2-5.8-8.9-7.8-13.7c-1.4-3.3-1.7-7.3-1.8-10.9
			c-0.2-18,0.3-36-0.2-54c-0.3-12.2,4.7-22.1,12.2-30.8c8-9.4,18.7-14.9,31-17.1c1.6-0.3,3.2-0.4,4.7-0.4c27.8,0,55.5-0.2,83.3,0.1
			c10.3,0.1,19.8,4,27.5,10.9c4.9,4.4,9.3,9.6,13.2,14.9c5.7,7.8,7.3,16.9,7.4,26.4c0.1,14.8,0.2,29.6,0,44.4
			c-0.2,12.4-4.1,23.4-12.5,33c-7.4,8.5-16,14.5-27,17.2c-1.7,0.4-3.4,0.6-5.1,0.6C848.7,635.8,833.4,635.8,818.2,635.8z M818,613.2
			c12.6,0,25.3-0.3,37.9,0.1c6.7,0.2,12.4-1.4,17.6-5.5c7.2-5.6,11.4-12.9,11.5-22.1c0.2-15.5,0.3-31-0.1-46.5
			c-0.1-4.4-1.5-9.1-3.6-12.9c-5.8-10.7-15.7-15.2-27.5-15.2c-23.7-0.1-47.4-0.1-71.1,0c-6,0-12,1.1-17.2,4.6
			c-9.4,6.2-13.6,15.1-13.5,26.2c0.1,13.9-0.3,27.9,0.2,41.8c0.1,4.8,1.1,10.1,3.3,14.3c4.7,9.2,12.1,15.3,23.3,15.2
			C791.8,613.1,804.9,613.2,818,613.2z"/>
		<path d="M259.1,604.9c0-39.1,0-77.6,0-116.3c7.9,0,15.2,0,23.1,0c0.1,1.3,0.2,2.7,0.2,4.1c0,42.1,0,84.2,0,126.2
			c0,4.8-1.3,9.1-4.5,12.6c-4.9,5.4-17.3,6.2-23,1.6c-5.1-4.1-10-8.5-14.9-12.8c-12.6-11.1-25.1-22.2-37.7-33.3
			c-12.9-11.5-25.8-23.1-38.8-34.6c-10.8-9.6-21.7-19.2-32.6-28.7c-1.3-1.1-2.9-1.8-4.9-3c0,38.5,0,76.5,0,114.9
			c-7.8,0-15.1,0-22.9,0c0-1.8,0-3.3,0-4.9c0-42.5,0.1-85-0.1-127.5c0-7.4,4-11.6,10.1-13.9c5.3-2,10.8-1.9,15.5,2.1
			c10.8,9.4,21.6,18.9,32.4,28.3c11.1,9.7,22.2,19.3,33.2,29c10.7,9.5,21.4,19.1,32.1,28.6c9.9,8.8,19.9,17.6,29.9,26.3
			C256.9,604,257.7,604.2,259.1,604.9z"/>
		<path d="M311.1,488.5c8.3,0,16.1,0,24.4,0c0,1.8,0,3.3,0,4.9c0,28.2,0.2,56.3-0.1,84.5c-0.1,11.5,10.6,26.6,20.8,31.4
			c6.8,3.2,13.4,4.1,20.7,4c17.9-0.2,35.8,0.2,53.7-0.1c13.1-0.2,23.1-6.4,30.3-17.1c4.8-7.1,6.5-15.2,6.4-23.8
			c-0.1-26.3-0.1-52.5-0.1-78.8c0-1.6,0-3.1,0-4.9c7.9,0,15.4,0,23.4,0c0,2,0,3.7,0,5.4c0,27.6-0.1,55.1,0.1,82.7
			c0.1,8.8-2.1,17-6.1,24.6c-9.3,17.6-23.4,29.6-43.2,34.1c-1.5,0.3-3.1,0.5-4.7,0.5c-22.7,0-45.4-0.1-68.1,0
			c-15.2,0.1-27.3-6.8-38-16.8c-6.9-6.5-12.3-14-15.3-22.9c-2.7-7.8-4.5-15.8-4.4-24.3c0.4-26,0.1-51.9,0.1-77.9
			C311.1,492.2,311.1,490.5,311.1,488.5z"/>
		<path d="M943.9,444.3c7.3-1,7.4-1,9.5,5.4c2.7,8.3,5.2,16.7,7.9,25.2c2.8-9,5.8-17.6,8.1-26.4c1.1-4.3,3.3-5.3,7.3-4.3
			c0,14.6,0,29.2,0,44.3c-1.3,0.1-2.6,0.1-4,0.2c0-10.9,0-21.5,0-32c-0.2-0.1-0.4-0.2-0.6-0.2c-1.1,3.3-2.3,6.6-3.3,10
			c-1.5,5-2.7,10.1-4.4,15.1c-0.4,1.3-2,2.2-3.1,3.2c-1-1-2.6-1.9-3-3.2c-2.7-8-5.1-16.1-8.4-24.1c0,10.2,0,20.4,0,31
			c-2,0-3.9,0-6.1,0C943.9,473.8,943.9,459.2,943.9,444.3z"/>
		<path d="M919.8,448.8c-3.9,0-7.6,0-11.6,0c0-1.8,0-3.1,0-4.7c10,0,19.8,0,29.9,0c0.1,1.3,0.2,2.6,0.4,4.4c-4.4,0-8.5,0-13.1,0
			c0,7.8,0,15,0,22.2c0,4.8,0,9.6,0,14.3c0,1.8,0.1,4-2.5,3.3c-1.1-0.3-2.5-2.1-2.5-3.2c-0.2-10.9-0.1-21.7-0.1-32.6
			C920.1,451.4,920,450.3,919.8,448.8z"/>
		<path class="st1" d="M818,613.2c-13.1,0-26.2-0.1-39.2,0c-11.2,0.1-18.6-6-23.3-15.2c-2.2-4.3-3.1-9.5-3.3-14.3
			c-0.4-13.9-0.1-27.8-0.2-41.8c-0.1-11.1,4.2-19.9,13.5-26.2c5.2-3.5,11.2-4.5,17.2-4.6c23.7-0.2,47.4-0.1,71.1,0
			c11.9,0.1,21.7,4.5,27.5,15.2c2.1,3.8,3.5,8.6,3.6,12.9c0.4,15.5,0.3,31,0.1,46.5c-0.1,9.2-4.3,16.4-11.5,22.1
			c-5.2,4.1-10.9,5.7-17.6,5.5C843.3,612.9,830.6,613.2,818,613.2z"/>
	</g>
</g>
</svg>
