<?xml version="1.0" encoding="utf-8"?>
<!-- Generator: Adobe Illustrator 26.0.3, SVG Export Plug-In . SVG Version: 6.00 Build 0)  -->
<svg version="1.1" id="Layer_1" xmlns="http://www.w3.org/2000/svg" xmlns:xlink="http://www.w3.org/1999/xlink" x="0px" y="0px"
	 viewBox="0 0 1080 1080" style="enable-background:new 0 0 1080 1080;" xml:space="preserve">
<style type="text/css">
	.st0{fill:#010101;}
	.st1{fill:#FFFFFF;}
	.st2{fill:none;stroke:#000000;stroke-width:0.7193;stroke-linecap:round;stroke-linejoin:round;stroke-miterlimit:10;}
	.st3{opacity:0.2;enable-background:new    ;}
</style>
<g id="_x32_2bCf9.tif">
	<g>
		<path class="st1" d="M242.6,850.4c0-38,0-76,0-114c4.4,14.4,14.4,20.3,29.2,18.2c-0.3,7.6-5.2,9.3-10.2,8.6
			c-5.6-0.8-6.7,2.1-7.8,6.1c15.9,4.3,27.9,0.4,32.2-14.6c5.3,0,10.6,0.1,16,0c8.2-0.2,16.6,1.4,23.9-4c0.7-0.5,2.4-0.2,3.3,0.3
			c9.3,5.2,18.5,3.8,27.9,0.1c1.4-0.6,3.6-0.6,5,0.1c6.8,3.6,14.1,4.2,21,1.8c4.4-1.5,10.9-5.5,11.3-8.9c1.3-12.7,0.5-25.7,0.5-38.6
			c-12.2,1.1-12.2,1.1-12.2,12.7c0,6.2,0.1,12.4,0,18.6c-0.1,6.2-3.2,8.4-10.2,8.6c-6,0.2-7.9-2.2-7.5-8.1
			c0.5-8.1,0.1-16.2,0.1-24.7c-2.3,0.3-3.5,0.6-4.7,0.6c-6.7,0.1-9.4,3-8.5,10c0.7,5.1,0.3,10.3,0,15.5c-0.3,5-4.2,6.9-11.2,6.7
			c-5-0.1-6.7-2.2-6.5-7.2c0.4-7.7,0.1-15.5,0.1-23.5c-2.2,0.3-3.6,0.6-5,0.8c-5.9,0.6-8.5,3.4-7.7,9.7c0.6,4.9,0.5,9.9-0.1,14.8
			c-0.2,1.8-2.6,4.7-4.1,4.7c-10.6,0.4-21.3,0.2-32.4,0.2c0-10.2,0.2-19.6-0.1-29.1c-0.1-1.9-1.6-4.7-3.1-5.4
			c-16-6.9-32.1-0.6-39,14.8c0-167.7,0-335.4,0-503c91.7,0,183.4,0,275.1,0c-1.6,0.3-3.1,1-4.7,1c-33.2,0.8-64.4,9.2-93.5,24.9
			c-34.9,18.9-63,45.4-83.2,79.8c-25.8,44-34.2,91.3-26.9,141.6c4.8,33.1,17.2,63.1,36.4,90.2c23.5,33.3,54,58,91.6,73.8
			c25.8,10.9,52.7,16.8,80.5,16.9c46,0.3,88.2-12.5,125.9-39.3c46.4-33.1,75.3-77.5,86.5-133.4c8.6-42.9,4.2-84.7-12.8-124.8
			c-14.8-35-37.7-64-68.1-87c-34.9-26.3-74.1-40.5-117.8-42.6c-3-0.1-6-0.8-9-1.2c104.9,0,209.8,0,314.7,0c0,211.9,0,423.7,0,635.6
			c-22.7,0-45.4,0-68.1,0c1.6-0.4,3.2-0.8,4.8-1.1c11.4-1.9,21.1-11,23.4-21.8c3-13.7,0.7-26.2-11.1-34.8c-12.1-8.7-33.9-8-43.6,9.2
			c-7.9,14.1-5.9,35.2,10.7,44.3c3.7,2,8,2.8,12.1,4.1c-16.9,0-33.9,0-50.8,0c1-0.3,1.9-0.7,2.9-1c9.2-2.1,14.6-6.7,15.7-13.7
			c1.4-8.9-1.4-14.6-10.2-19.9c-3.2-1.9-6.9-3.2-9.5-5.7c-2.2-2.2-4.8-6-4.2-8.4c0.5-2.1,5.1-4.4,7.9-4.5c4.2-0.1,8.5,1.7,12.8,2.7
			c1.1-9.7,0.5-10.7-8.7-11.8c-3.6-0.4-7.5-0.5-11,0.3c-10.9,2.4-16.7,13.4-11.5,23.2c2.2,4.2,7.1,7.1,11,10.2
			c3.3,2.7,7.5,4.5,10.3,7.6c3.2,3.5,2.5,7.8-2.1,9.6c-3.2,1.2-7.1,1.1-10.6,0.7c-2.9-0.4-5.6-2.1-8.4-3.2c-1.4,2.6-2.7,4.9-4.6,8.4
			c5.8,2,11.1,3.8,16.4,5.6c-12.8,0-25.6,0-38.4,0c0.9-0.3,1.8-0.8,2.8-1c7.8-1.9,13.7-5.8,15.2-14.2c1.5-8.3-2.3-14.4-9.2-18.7
			c-3.7-2.3-7.9-3.8-11.1-6.6c-2.1-1.9-4.3-5.7-3.7-8.1c0.5-2.1,4.7-4.6,7.2-4.6c4.5,0,8.9,1.7,13.4,2.8c0.8-10.1,0.3-10.8-9.5-12
			c-2.4-0.3-5-0.4-7.4-0.1c-9.2,1-13.9,5.2-15.9,13.8c-1.4,6.3,1.8,13.4,8.5,17.7c4,2.6,8.6,4.3,12,7.4c2.2,2,4,6.2,3.4,8.8
			c-0.5,2.1-4.8,4.8-7.4,4.7c-4.7,0-9.4-1.8-15-3.1c-1,1.6-2.4,4-4.4,7.5c5.8,2.1,10.9,3.9,15.9,5.7c-94.2,0-188.3,0-282.5,0
			c1.1-0.4,2.3-0.8,3.4-1.1c6.9-1.8,12.7-5.4,14.6-12.6c2.1-7.8-0.5-14.2-7.3-18.7c-4.1-2.7-8.8-4.7-12.4-7.9c-2.3-2-4.9-6-4.3-8.3
			c0.6-2.2,5.2-4.5,8-4.5c4.3,0,8.5,1.9,12.8,2.9c1.6-9.6,0.8-10.9-8.9-12.1c-2.4-0.3-4.9-0.5-7.4-0.2c-7.5,0.8-13.5,3.9-16,11.4
			c-2.4,7-0.2,13.8,6.6,19c4,3.1,9.1,4.9,12.9,8.2c2.4,2.1,4.9,6.7,4.1,8.9c-0.9,2.5-5.6,4.9-8.7,4.9c-4.4,0-8.9-2.1-13.9-3.5
			c-1.1,2.1-2.4,4.5-4.3,8c5.6,2,10.7,3.8,15.8,5.6c-39.2,0-78.5,0-117.7,0c0.8-0.3,1.5-0.7,2.3-0.9c7.5-1.4,13.9-4.4,16-12.5
			c2.2-8.7-0.4-14.8-8.7-20.5c-4-2.8-8.7-4.8-12.4-8c-1.8-1.5-3.1-5.4-2.4-7.4c0.8-2,4.4-4.1,6.6-4c4.8,0.2,9.5,1.8,15.1,2.9
			c-0.5-3.1,0.1-8-1.8-9.3c-9.2-6.2-26-3.2-30,4.8c-4.8,9.4-1.5,19.8,8.9,25.5c3.2,1.8,7,3.1,9.5,5.6c2.2,2.2,4.6,6.4,3.8,8.6
			c-0.9,2.4-5.3,4.9-8.1,4.9c-4.7,0-9.4-1.9-14.4-3.1C245.7,846.1,244.2,848.2,242.6,850.4z M752.1,715.4c0,8,0.1,15.5,0,22.9
			c-0.1,5.4-3,7.1-9.9,7.2c-5.2,0-7.4-1.8-7.1-7.3c0.4-7.7,0.1-15.5,0.1-23.9c-3.1,0.8-5,1.6-7,1.7c-6,0.2-6.8,3.7-6.4,8.7
			c0.3,4.7-0.1,9.5,0.1,14.2c0.2,4.3-1.8,6.1-5.8,6.1c-4.1,0.1-8.3,0-12.4,0c-8.1-0.1-10.1-2.1-10.1-10.4c0-9.7,0-19.3,0-29.4
			c-2.3,0.3-3.9,0.7-5.5,0.8c-5.8,0.5-8.6,2.9-8,9.4c0.7,7.8,0,15.7,0.2,23.5c0.1,4.3-1.7,6-5.8,6c-11.6-0.1-23.1,0.2-34.7-0.1
			c-7.6-0.2-10.6-3.6-10.6-11.2c0-9.4,0-18.8,0-28.5c-2.1,0.3-3.3,0.4-4.5,0.6c-8.8,1.8-8.8,1.8-8.8,10.5c0,7,0.1,14-0.1,21.1
			c-0.2,6.2-2.7,7.9-9.8,8c-5.7,0.1-7.4-2.4-7.1-7.9c0.4-8.1,0.1-16.3,0.1-24.9c-2.6,0.5-4.2,1.1-5.8,1c-6.9-0.3-8,3.6-7.5,9.4
			c0.4,4.7,0.3,9.5,0,14.2c-0.3,6.2-3.3,8.2-10.5,8.3c-6.2,0.1-6.8-3.2-6.6-8.2c0.3-7.5,0.1-15,0.1-23c-2.9,0.7-4.9,1.5-6.9,1.6
			c-5.7,0.3-7,3.4-6.6,8.6c0.4,4.9-0.1,9.9,0.1,14.9c0.2,4-1.5,5.7-5.3,5.7c-8.1,0-16.1,0-24.2,0c-4.5,0-6.8-2.5-7-6.9
			c-0.1-2.9-0.1-5.8-0.1-8.7c0-12.5,0-25.1,0-38.6c-5,1.3-9,2.3-13.3,3.4c0,15.7-0.2,31,0.1,46.2c0.1,5.7,3.6,10.4,8.8,11.6
			c14.7,3.6,29.6,5.1,44.3-0.7c1.3-0.5,3.3-0.9,4.4-0.3c9.3,5.2,18.6,3.7,27.9,0.2c1.4-0.5,3.3-0.1,5,0.1c6.2,0.8,12.5,2.7,18.6,2.1
			c5.8-0.5,11.1-1,17-0.2c11.6,1.6,23.4,1.6,35.2,1.3c5.8-0.1,11.6-2.3,17.4-3.4c1.4-0.3,3.1-0.4,4.4,0.1c13.3,5.3,26.4,5,39.7-1.1
			c7.2,5.3,15.7,5.4,23.9,2.8c5.5-1.7,10-1.6,15.5,0c5.4,1.5,12.1,1.3,17.5-0.4c4-1.3,9.6-5.9,9.9-9.4c1.2-12.3,0.5-24.9,0.5-38.1
			c-4.5,1.1-8.4,2.1-12.6,3.1c0,10.4,0.1,20.3-0.1,30.2c-0.1,5.3-3.2,7.2-10.1,7.2c-4.8,0-7.6-1.2-7.3-7c0.5-8.4,0.1-16.8,0.1-25.6
			C760.8,713.7,756.8,714.5,752.1,715.4z M490.9,705.3c-2.3,0.3-3.7,0.7-5.1,0.7c-6.2,0.2-8.4,3.2-7.8,9.5c0.6,7,0.2,14,0.1,21
			c-0.1,6.5-2,8.4-8.5,8.5c-10.5,0.1-21.1,0.1-31.6,0c-7.9,0-9.5-1.6-9.5-9.4c0-10,0-20.1,0-30.1c-13,0.9-13,0.9-13,12.8
			c0,11.6,0,23.1-0.3,34.7c-0.1,5.3-2.7,9.7-8.5,9.3c-5.8-0.4-7.5,2.7-9.4,8.7c6.9-0.5,13.1-0.1,18.9-1.5c8.1-1.9,11-9.1,12.4-15.9
			c17.6,0,34.3,0.4,50.9-0.2c7.6-0.3,11.1-4.7,11.3-12.2C491.2,729.5,490.9,717.8,490.9,705.3z M456.4,856.1c0-20.4,0-40.1,0-60
			c-3.7,0-7.1,0-11.1,0c0,8.4,0,16.3,0,24.2c-7.7,0-14.6,0-22.2,0c0-8.3,0-16.2,0-24.3c-3.9,0-7.1,0-10.4,0c0,20.2,0,40.1,0,59.8
			c3.7,0,6.8,0,10.6,0c0-8.7,0-16.8,0-25.2c7.7,0,14.8,0,22.6,0c0,8.8,0,17.1,0,25.4C449.8,856.1,452.8,856.1,456.4,856.1z
			 M290.5,795.9c0,20.4,0,40.1,0,60.1c3.6,0,6.8,0,10.8,0c0-8.6,0-17,0-25.4c7.7,0,14.6,0,22.2,0c0,8.8,0,17.1,0,25.3
			c3.9,0,7.1,0,10.4,0c0-20.2,0-39.9,0-59.8c-3.7,0-7,0-11,0c0,8.4,0,16.3,0,24c-7.5,0-14.4,0-22,0c0-8.4,0-16.3,0-24.3
			C297.1,795.9,294,795.9,290.5,795.9z M575.6,833c0.6-0.5,1.2-1.1,1.8-1.6c2.1,1.5,4.6,2.6,6.1,4.5c3.3,4.5,6,9.3,9,14
			c4.5,7.3,6.2,7.9,15.5,5.4c-5.3-8.9-10.5-17.7-15.8-26.6c1.4-1.2,2.9-2.3,4.2-3.6c9.8-9.8,6.5-24.7-6.9-28
			c-7.8-1.9-16.2-1.3-24.5-1.9c0,21,0,40.8,0,60.8c3.7,0,6.8,0,10.6,0C575.6,848.1,575.6,840.5,575.6,833z M472.6,856.1
			c6.5-15.9,6.5-15.9,23.6-15.3c0.8,0,1.6,0.2,2.3,0.3c7.8,16.8,7.8,16.8,17.6,14.1c-7.1-18.4-14-36.8-21.3-55
			c-0.8-2.1-3.5-4.1-5.8-4.8c-3.9-1.3-5.1,2.1-6.3,5c-4.5,11.9-9,23.8-13.5,35.7c-2.4,6.5-4.6,13-7,19.9
			C466.2,856.1,469.4,856.1,472.6,856.1z M521.9,855.9c3.9,0,7.1,0,10.9,0c0-7,0-13.5,0-20.2c3.5-0.5,6.6-0.7,9.6-1.3
			c9.5-2.1,15.9-9.9,15.9-19.4c0.1-9.7-5.3-17.1-15.3-18.7c-6.8-1.1-13.8-0.2-21.1-0.2C521.9,816.1,521.9,835.8,521.9,855.9z
			 M625.2,829.6c6.4,0,12.4,0,18.5,0c0-3.4,0-6,0-9.1c-6.3,0-12.2,0-18.5,0c0-5.4,0-10.2,0-15.8c4.2,0,8.1,0,11.9,0
			c8,0,8.1-0.1,8.1-8.7c-10.2,0-20.5,0-30.8,0c0,20.2,0,40.1,0,60c10.8,0,21,0,31.6,0c0-3.1,0-5.9,0-9.4c-7.1,0-14,0-20.9,0
			C625.2,840.7,625.2,835.6,625.2,829.6z M346.1,795.9c0,20.4,0,40.1,0,59.9c3.7,0,7.1,0,10.4,0c0-20.2,0-39.9,0-59.9
			C352.9,795.9,349.7,795.9,346.1,795.9z M802.7,669.2c0,10.3,6.3,16.8,16.3,16.9c10,0.1,17.3-7,17.3-16.9c0-9.7-7-17-16.6-17.1
			C809.7,652.1,802.7,659.1,802.7,669.2z M776.1,694c0-1,0-1.9,0.1-2.9c-2.6-1.7-5-4.4-7.8-4.9c-4-0.8-7.3,1.5-7.6,6
			c-0.3,4.9,3.7,6.7,7.3,6.4C770.8,698.4,773.4,695.7,776.1,694z M757.4,693.7c0-0.9,0-1.9,0.1-2.8c-2.9-1.7-5.6-4.2-8.6-4.7
			c-3.7-0.6-6.9,1.8-6.9,6.1c-0.1,4.8,3.8,6.7,7.4,6.3C752.1,698.3,754.7,695.5,757.4,693.7z M609.8,693.9c0-1,0-2,0-2.9
			c-2.8-1.7-5.5-4.2-8.5-4.7c-3.7-0.6-6.7,1.7-6.8,6.1c-0.1,4.9,3.6,6.7,7.3,6.3C604.6,698.3,607.1,695.6,609.8,693.9z M592.1,688.7
			c3.3-3.9,6.7-6.1,7.2-8.9c0.8-4.1-2.9-5.8-6.8-6c-4.2-0.2-7.9,1.7-7.5,6C585.3,682.4,588.8,684.7,592.1,688.7z M582.4,685.9
			c-4.1,0.6-7.8,2.6-6.7,6.9c0.6,2.5,4.4,5.4,7.1,5.8c3.2,0.5,6.9-1.5,6.8-6.1C589.6,687.8,586.5,686.4,582.4,685.9z M477.6,775.7
			c3.4-3.9,6.7-6.1,6.9-8.7c0.2-1.7-3.6-4.9-6.1-5.7c-3.7-1.1-7.5,1.2-7.2,5.3C471.5,769.3,474.6,771.6,477.6,775.7z M758.2,688.7
			c3.5-3.8,6.9-5.8,7.5-8.4c1-4.6-2.7-6.4-6.9-6.4c-3.8,0-7.6,1.3-6.8,5.8C752.4,682.4,755.3,684.7,758.2,688.7z M663.7,775.6
			c3.1-3.9,6-6,6.3-8.5c0.6-4.1-2.6-6.1-6.6-6c-3.9,0-7.5,1.6-6.6,5.9C657.3,769.5,660.4,771.6,663.7,775.6z M682.5,775.7
			c3.1-4.1,5.9-6.2,6.3-8.7c0.7-4.1-2.5-6.8-6.4-5.8c-2.6,0.7-6.3,3.6-6.3,5.5C676,769.1,679.2,771.5,682.5,775.7z"/>
		<path d="M522.7,222.2c3,0.4,6,1.1,9,1.2c43.7,2.1,82.9,16.3,117.8,42.6c30.4,23,53.3,52,68.1,87c17,40.1,21.4,81.9,12.8,124.8
			c-11.2,55.9-40.1,100.3-86.5,133.4C606.2,638,564,650.8,518,650.5c-27.8-0.2-54.7-6.1-80.5-16.9c-37.7-15.9-68.2-40.6-91.6-73.8
			c-19.1-27.1-31.6-57.1-36.4-90.2c-7.2-50.4,1.2-97.7,26.9-141.6c20.2-34.4,48.2-60.9,83.2-79.8c29-15.7,60.3-24.1,93.5-24.9
			c1.6,0,3.1-0.7,4.7-1C519.3,222.2,521,222.2,522.7,222.2z M522.9,535c-0.5-4.2-0.9-6.7-1.1-9.2c-1.5-13.8,0.8-21.5,13.1-22.7
			c3.8-0.4,7.7,0.4,11.5,0.3c6-0.1,9.1-2.9,8.4-8.6c-0.8-6.8-3.2-13.3-4.3-20c-2.1-13.7-0.1-22.7,17.8-23.2c17-0.5,34-0.3,50.9,0
			c8.1,0.2,14.6-1.3,21.3-7c17.3-14.6,35.6-28,53.4-42c1-0.8,1.7-3.1,1.4-4.5c-1.6-7.1-3.4-14.1-5.5-21
			c-7.1-23.8-20.7-43.9-36.9-62.2c-17.8-20-39.4-35.4-64.5-44.6c-14.9-5.5-30.5-9.3-46.2-11.8c-11.3-1.8-23.2-0.8-34.8-0.2
			c-10.6,0.5-21.2,2.2-29.9,3.2c-3.2,12.4-6,23.2-8.8,33.9c-0.8,3.2-3.3,6.9-2.3,9.4c1.8,4.9,5.4,9.1,8.5,13.9
			c7.9-10.4,8.7-21,8.6-32c4.2,11.1,4.3,22.2,0.8,33.4c-0.6,1.8-0.2,5.1,1,6c9.6,7.4,20,13.8,29.2,21.7
			c13.7,11.7,18.2,20.4,14.6,38.6c-1,5.2-4.2,11.2-2.7,15.6c3.5,10.4,3.8,20.8,3.7,31.4c-0.1,14.9-5.6,27.8-14.5,39.5
			c-6.6,8.6-13.7,17-16.3,28.1c-0.1-6.3-0.1-12.6,0.6-18.7c1.3-11.1,9.6-18.4,15.7-26.8c10.1-13.9,15.4-26.9,5.7-40.5
			c-5.2-7.3-12.1-13.6-19.1-19.2c-14.8-11.9-32.3-20.4-44.5-35.6c-5.7,5-8.6,13.7-5.2,18.7c2.5,3.6,6,6.8,9.6,9.4
			c10.2,7.1,20.6,14.1,31.2,20.7c18.9,11.9,17.1,31.7,8.6,46.5c-3.1,5.4-7.5,10.2-10,15.9c-4,9.1-7,18.7-10.9,29.2
			c0-9.5-1.1-18.2,0.3-26.5c1.6-9.4,8.5-16.4,15.2-23.1c9.5-9.5,10.3-16.8,1.6-24.3c-6.3-5.4-14.1-9.2-21.3-13.6
			c-6-3.7-12.3-7.1-17.9-11.3c-12.9-9.6-13-33.8-7.5-45.2c1.8-3.8,2.5-6.8,1.2-11.2c-1.9-6.8-3.2-14.1-2.6-21
			c1.1-13.5,7.1-25.5,13.5-37.3c4-7.4,6.8-15.4,10.7-24.2c-83.2,26.8-131.2,91.2-133.1,171.7c-1.6,71.5,39.1,134.1,101.2,162.2
			c0-1.7,0.1-3.4,0-5c-0.5-11.7,4.5-20.3,15.4-24.4c7.1-2.7,14.7-4,22.2-5.4c6.5-1.1,8.9-3.2,9.5-9.9c0.3-3.7,0.5-7.4,1.3-10.9
			c2.8-13.1,12.1-15.4,20-10.8C513.8,532,517.5,533,522.9,535z M463.9,351.7c19.9,14.9,39.7,29.6,59.5,44.3c4-6.5,2.5-22.7-4.9-28.6
			c-13.8-11.1-27.6-22-41.4-33C472.5,340.5,468.5,345.7,463.9,351.7z M462.6,308.6c-7.2,11.5-13.7,21.9-4,35
			c3.4-5.4,7.6-10.5,9.9-16.4c0.9-2.4-2.3-6.4-3.5-9.7C464.1,314.9,463.6,312.1,462.6,308.6z"/>
		<path d="M242.6,725.2c7-15.4,23.1-21.7,39-14.8c1.6,0.7,3.1,3.5,3.1,5.4c0.3,9.4,0.1,18.9,0.1,29.1c11.1,0,21.8,0.2,32.4-0.2
			c1.5-0.1,3.9-2.9,4.1-4.7c0.6-4.9,0.7-9.9,0.1-14.8c-0.8-6.3,1.8-9.1,7.7-9.7c1.4-0.1,2.8-0.4,5-0.8c0,8,0.3,15.8-0.1,23.5
			c-0.3,5,1.4,7.1,6.5,7.2c7,0.2,10.9-1.7,11.2-6.7c0.3-5.1,0.7-10.4,0-15.5c-0.9-6.9,1.8-9.9,8.5-10c1.2,0,2.4-0.3,4.7-0.6
			c0,8.5,0.4,16.6-0.1,24.7c-0.3,5.9,1.5,8.3,7.5,8.1c7-0.2,10.1-2.5,10.2-8.6c0.1-6.2,0-12.4,0-18.6c0-11.5,0-11.5,12.2-12.7
			c0,12.9,0.8,25.9-0.5,38.6c-0.4,3.4-6.9,7.4-11.3,8.9c-6.9,2.4-14.2,1.8-21-1.8c-1.3-0.7-3.5-0.7-5-0.1
			c-9.4,3.8-18.6,5.1-27.9-0.1c-0.9-0.5-2.7-0.8-3.3-0.3c-7.3,5.4-15.8,3.8-23.9,4c-5.4,0.1-10.7,0-16,0
			c-4.3,15-16.3,18.9-32.2,14.6c1.1-4,2.2-6.9,7.8-6.1c5.1,0.7,10-0.9,10.2-8.6c-14.9,2.1-24.9-3.8-29.2-18.2
			C242.6,732.7,242.6,729,242.6,725.2z M271.7,744.7c0.3-0.9,0.5-1.2,0.5-1.6c0-7.4,0.2-14.8,0-22.2c0-2.1-0.6-5.6-1.5-5.9
			c-2.6-0.6-5.9-0.6-8.2,0.5c-5.4,2.6-7.9,13.7-5.4,21.3C259.4,744.1,262.2,745.6,271.7,744.7z"/>
		<path d="M765.5,857.8c-4-1.3-8.4-2.1-12.1-4.1c-16.6-9-18.6-30.2-10.7-44.3c9.7-17.2,31.6-17.9,43.6-9.2
			c11.8,8.5,14.1,21,11.1,34.8c-2.3,10.8-12,19.8-23.4,21.8c-1.6,0.3-3.2,0.7-4.8,1.1C768,857.8,766.7,857.8,765.5,857.8z
			 M786.6,826.1c0.5-0.2,1-0.5,1.5-0.7c-2.5-5.4-3.8-11.9-7.7-16c-9.7-10-26-4.7-29.3,8.8c-2.8,11.5,0.4,22.5,8,27.1
			c6,3.6,12.1,3.6,18.1,0.2C784.8,841.3,786.5,834.1,786.6,826.1z"/>
		<path d="M380.2,857.8c-5.1-1.8-10.2-3.6-15.8-5.6c1.9-3.5,3.2-5.9,4.3-8c5,1.4,9.4,3.5,13.9,3.5c3.1,0,7.7-2.4,8.7-4.9
			c0.8-2.2-1.8-6.8-4.1-8.9c-3.8-3.3-8.9-5.1-12.9-8.2c-6.8-5.2-9-12-6.6-19c2.6-7.6,8.6-10.7,16-11.4c2.4-0.2,4.9-0.1,7.4,0.2
			c9.7,1.3,10.5,2.5,8.9,12.1c-4.3-1.1-8.5-3-12.8-2.9c-2.9,0-7.4,2.3-8,4.5c-0.6,2.3,2,6.3,4.3,8.3c3.7,3.2,8.3,5.2,12.4,7.9
			c6.8,4.5,9.4,10.9,7.3,18.7c-1.9,7.3-7.7,10.8-14.6,12.6c-1.2,0.3-2.3,0.7-3.4,1.1C383.5,857.8,381.8,857.8,380.2,857.8z"/>
		<path d="M667.6,857.8c-5.1-1.8-10.1-3.6-15.9-5.7c2-3.5,3.4-5.9,4.4-7.5c5.5,1.2,10.2,3.1,15,3.1c2.6,0,6.9-2.6,7.4-4.7
			c0.6-2.6-1.3-6.8-3.4-8.8c-3.4-3.1-8.1-4.8-12-7.4c-6.6-4.3-9.9-11.4-8.5-17.7c2-8.6,6.7-12.8,15.9-13.8c2.4-0.3,4.9-0.2,7.4,0.1
			c9.8,1.2,10.4,2,9.5,12c-4.5-1-8.9-2.8-13.4-2.8c-2.6,0-6.8,2.5-7.2,4.6c-0.5,2.4,1.6,6.2,3.7,8.1c3.2,2.8,7.4,4.4,11.1,6.6
			c6.9,4.3,10.7,10.4,9.2,18.7c-1.5,8.4-7.5,12.3-15.2,14.2c-1,0.2-1.9,0.7-2.8,1C670.9,857.8,669.3,857.8,667.6,857.8z"/>
		<path d="M711,857.8c-5.3-1.8-10.6-3.6-16.4-5.6c1.9-3.5,3.2-5.8,4.6-8.4c2.8,1.1,5.5,2.8,8.4,3.2c3.5,0.4,7.5,0.6,10.6-0.7
			c4.6-1.8,5.3-6.1,2.1-9.6c-2.8-3.1-7-4.9-10.3-7.6c-3.9-3.2-8.8-6-11-10.2c-5.2-9.8,0.5-20.8,11.5-23.2c3.5-0.8,7.4-0.7,11-0.3
			c9.2,1.1,9.8,2,8.7,11.8c-4.3-1-8.5-2.8-12.8-2.7c-2.8,0.1-7.4,2.4-7.9,4.5c-0.6,2.4,2,6.3,4.2,8.4c2.6,2.5,6.3,3.8,9.5,5.7
			c8.7,5.3,11.6,11,10.2,19.9c-1.1,7-6.4,11.6-15.7,13.7c-1,0.2-1.9,0.6-2.9,1C713.5,857.8,712.2,857.8,711,857.8z"/>
		<path d="M242.6,850.4c1.5-2.1,3.1-4.3,4.3-5.9c5,1.2,9.7,3.2,14.4,3.1c2.9,0,7.3-2.5,8.1-4.9c0.8-2.2-1.6-6.4-3.8-8.6
			c-2.5-2.5-6.2-3.9-9.5-5.6c-10.4-5.7-13.7-16.1-8.9-25.5c4.1-8,20.8-11,30-4.8c1.9,1.3,1.3,6.2,1.8,9.3
			c-5.6-1.2-10.4-2.8-15.1-2.9c-2.3-0.1-5.9,2-6.6,4c-0.7,1.9,0.6,5.8,2.4,7.4c3.7,3.2,8.3,5.2,12.4,8c8.3,5.7,10.9,11.8,8.7,20.5
			c-2.1,8.1-8.5,11.1-16,12.5c-0.8,0.1-1.5,0.6-2.3,0.9c-1.2,0-2.5,0-3.7,0c-5.4-2.1-10.7-4.1-16.1-6.2
			C242.6,851.2,242.6,850.8,242.6,850.4z"/>
		<path class="st1" d="M242.6,851.6c5.4,2.1,10.7,4.1,16.1,6.2c-5.4,0-10.7,0-16.1,0C242.6,855.7,242.6,853.7,242.6,851.6z"/>
		<path d="M752.1,715.4c4.7-0.9,8.8-1.7,13.5-2.6c0,8.8,0.4,17.3-0.1,25.6c-0.4,5.9,2.4,7,7.3,7c6.8,0,10-1.9,10.1-7.2
			c0.2-9.9,0.1-19.8,0.1-30.2c4.1-1,8-2,12.6-3.1c0,13.2,0.8,25.8-0.5,38.1c-0.4,3.6-5.9,8.2-9.9,9.4c-5.4,1.7-12.1,2-17.5,0.4
			c-5.5-1.5-10-1.7-15.5,0c-8.2,2.6-16.7,2.5-23.9-2.8c-13.3,6.2-26.4,6.5-39.7,1.1c-1.3-0.5-3-0.4-4.4-0.1
			c-5.8,1.1-11.6,3.3-17.4,3.4c-11.7,0.2-23.6,0.3-35.2-1.3c-5.9-0.8-11.3-0.3-17,0.2c-6.1,0.5-12.4-1.4-18.6-2.1
			c-1.7-0.2-3.5-0.7-5-0.1c-9.4,3.6-18.6,5.1-27.9-0.2c-1.1-0.6-3.1-0.2-4.4,0.3c-14.7,5.8-29.6,4.3-44.3,0.7
			c-5.2-1.3-8.7-5.9-8.8-11.6c-0.2-15.3-0.1-30.5-0.1-46.2c4.3-1.1,8.4-2.1,13.3-3.4c0,13.5,0,26,0,38.6c0,2.9-0.1,5.8,0.1,8.7
			c0.2,4.4,2.6,6.9,7,6.9c8.1,0.1,16.1,0,24.2,0c3.8,0,5.5-1.7,5.3-5.7c-0.3-4.9,0.3-9.9-0.1-14.9c-0.4-5.2,0.9-8.3,6.6-8.6
			c2-0.1,4-0.9,6.9-1.6c0,8,0.2,15.5-0.1,23c-0.2,5,0.4,8.3,6.6,8.2c7.2-0.1,10.2-2.1,10.5-8.3c0.2-4.7,0.4-9.5,0-14.2
			c-0.5-5.8,0.6-9.7,7.5-9.4c1.6,0.1,3.2-0.5,5.8-1c0,8.6,0.3,16.8-0.1,24.9c-0.3,5.5,1.4,8,7.1,7.9c7.1-0.1,9.7-1.8,9.8-8
			c0.2-7,0-14,0.1-21.1c0-8.7,0-8.7,8.8-10.5c1.2-0.2,2.4-0.3,4.5-0.6c0,9.7,0,19.1,0,28.5c0,7.6,3,11,10.6,11.2
			c11.6,0.3,23.1,0,34.7,0.1c4.1,0,5.9-1.7,5.8-6c-0.2-7.8,0.5-15.7-0.2-23.5c-0.6-6.5,2.2-8.9,8-9.4c1.6-0.1,3.2-0.5,5.5-0.8
			c0,10.1,0,19.7,0,29.4c0,8.3,2,10.3,10.1,10.4c4.1,0,8.3,0,12.4,0c4-0.1,6-1.9,5.8-6.1c-0.2-4.7,0.2-9.5-0.1-14.2
			c-0.3-5,0.5-8.5,6.4-8.7c2-0.1,3.9-0.9,7-1.7c0,8.4,0.3,16.1-0.1,23.9c-0.3,5.5,1.9,7.4,7.1,7.3c7-0.1,9.8-1.8,9.9-7.2
			C752.2,730.8,752.1,723.4,752.1,715.4z"/>
		<path d="M490.9,705.3c0,12.5,0.3,24.2-0.1,36c-0.2,7.5-3.8,11.9-11.3,12.2c-16.6,0.6-33.3,0.2-50.9,0.2c-1.5,6.8-4.4,14-12.4,15.9
			c-5.8,1.4-12,1-18.9,1.5c2-6,3.6-9.1,9.4-8.7c5.8,0.4,8.4-4,8.5-9.3c0.3-11.6,0.2-23.1,0.3-34.7c0-11.9,0-11.9,13-12.8
			c0,10.1,0,20.1,0,30.1c0,7.8,1.6,9.3,9.5,9.4c10.5,0.1,21.1,0.1,31.6,0c6.6-0.1,8.5-2,8.5-8.5c0.1-7,0.5-14.1-0.1-21
			c-0.5-6.3,1.6-9.3,7.8-9.5C487.2,706,488.6,705.6,490.9,705.3z"/>
		<path d="M456.4,856.1c-3.6,0-6.6,0-10.5,0c0-8.3,0-16.7,0-25.4c-7.9,0-14.9,0-22.6,0c0,8.3,0,16.5,0,25.2c-3.8,0-6.9,0-10.6,0
			c0-19.7,0-39.6,0-59.8c3.3,0,6.5,0,10.4,0c0,8,0,16,0,24.3c7.6,0,14.6,0,22.2,0c0-7.8,0-15.8,0-24.2c4,0,7.4,0,11.1,0
			C456.4,816,456.4,835.7,456.4,856.1z"/>
		<path d="M290.5,795.9c3.5,0,6.6,0,10.4,0c0,7.9,0,15.8,0,24.3c7.6,0,14.5,0,22,0c0-7.7,0-15.7,0-24c4,0,7.3,0,11,0
			c0,19.9,0,39.6,0,59.8c-3.3,0-6.5,0-10.4,0c0-8.1,0-16.5,0-25.3c-7.6,0-14.5,0-22.2,0c0,8.4,0,16.7,0,25.4c-4,0-7.2,0-10.8,0
			C290.5,836,290.5,816.3,290.5,795.9z"/>
		<path d="M575.6,833c0,7.5,0,15.1,0,23c-3.8,0-7,0-10.6,0c0-20,0-39.8,0-60.8c8.3,0.6,16.7,0,24.5,1.9c13.4,3.3,16.7,18.2,6.9,28
			c-1.3,1.3-2.8,2.4-4.2,3.6c5.3,8.9,10.5,17.7,15.8,26.6c-9.4,2.4-11,1.8-15.5-5.4c-2.9-4.7-5.7-9.6-9-14c-1.4-1.9-4-3-6.1-4.5
			C576.8,831.9,576.2,832.4,575.6,833z M576.1,823.2c5.5,1.1,10.5,0.6,13-4.6c1.2-2.5,1.4-6.5,0.2-9c-2.6-5.3-7.9-4.7-13.2-4.2
			C576.1,811.5,576.1,817.4,576.1,823.2z"/>
		<path d="M472.6,856.1c-3.2,0-6.4,0-10.3,0c2.4-6.9,4.6-13.5,7-19.9c4.4-11.9,9-23.8,13.5-35.7c1.1-3,2.3-6.3,6.3-5
			c2.3,0.7,4.9,2.7,5.8,4.8c7.3,18.2,14.3,36.6,21.3,55c-9.8,2.7-9.8,2.7-17.6-14.1c-0.7-0.1-1.5-0.2-2.3-0.3
			C479.1,840.3,479.1,840.3,472.6,856.1z M488.8,811.9c-2.6,7.1-4.8,13.2-7.1,19.7c4.8,0,9,0,13.6,0
			C493.2,825.2,491.3,819.2,488.8,811.9z"/>
		<path d="M521.9,855.9c0-20.1,0-39.8,0-59.9c7.2,0,14.3-0.9,21.1,0.2c9.9,1.6,15.4,9,15.3,18.7c-0.1,9.5-6.4,17.3-15.9,19.4
			c-3,0.7-6,0.9-9.6,1.3c0,6.7,0,13.3,0,20.2C529.1,855.9,525.9,855.9,521.9,855.9z M533.2,805.6c0,7,0,13.4,0,20.1
			c5.2,1,10,0.5,12.1-4.2c1.4-3.2,1.9-7.9,0.6-11C543.9,805.7,538.9,804.7,533.2,805.6z"/>
		<path d="M625.2,829.6c0,6,0,11.1,0,16.9c6.9,0,13.8,0,20.9,0c0,3.5,0,6.3,0,9.4c-10.6,0-20.8,0-31.6,0c0-19.9,0-39.8,0-60
			c10.3,0,20.6,0,30.8,0c-0.1,8.6-0.1,8.7-8.1,8.7c-3.9,0-7.7,0-11.9,0c0,5.6,0,10.5,0,15.8c6.3,0,12.2,0,18.5,0c0,3.1,0,5.6,0,9.1
			C637.7,829.6,631.6,829.6,625.2,829.6z"/>
		<path d="M346.1,795.9c3.6,0,6.8,0,10.4,0c0,20,0,39.7,0,59.9c-3.3,0-6.7,0-10.4,0C346.1,836,346.1,816.4,346.1,795.9z"/>
		<path d="M802.7,669.2c0-10.1,7-17.1,17-17c9.5,0.1,16.5,7.3,16.6,17.1c0,9.9-7.3,17-17.3,16.9
			C808.9,686.1,802.7,679.5,802.7,669.2z M819.5,655.7c-6.9-0.1-13.2,6.3-13.2,13.6c0,7.3,6.1,13.7,13.1,13.7
			c6.7,0,12.8-6.3,13-13.3C832.6,662.6,826.3,655.8,819.5,655.7z"/>
		<path d="M776.1,694c-2.7,1.6-5.2,4.4-8,4.6c-3.6,0.3-7.5-1.5-7.3-6.4c0.2-4.5,3.6-6.8,7.6-6c2.8,0.5,5.2,3.2,7.8,4.9
			C776.1,692.1,776.1,693.1,776.1,694z"/>
		<path d="M757.4,693.7c-2.7,1.7-5.3,4.6-8.1,4.9c-3.6,0.4-7.5-1.5-7.4-6.3c0.1-4.3,3.3-6.6,6.9-6.1c3.1,0.5,5.8,3.1,8.6,4.7
			C757.4,691.9,757.4,692.8,757.4,693.7z"/>
		<path d="M609.8,693.9c-2.7,1.7-5.2,4.4-8,4.7c-3.6,0.4-7.4-1.4-7.3-6.3c0.1-4.3,3.2-6.6,6.8-6.1c3,0.5,5.7,3.1,8.5,4.7
			C609.8,691.9,609.8,692.9,609.8,693.9z"/>
		<path d="M592.1,688.7c-3.4-4-6.8-6.3-7.1-8.8c-0.4-4.3,3.3-6.2,7.5-6c3.9,0.1,7.6,1.8,6.8,6C598.8,682.6,595.4,684.8,592.1,688.7z
			"/>
		<path d="M582.4,685.9c4,0.4,7.2,1.9,7.3,6.6c0.1,4.6-3.6,6.5-6.8,6.1c-2.7-0.4-6.5-3.3-7.1-5.8
			C574.6,688.5,578.3,686.5,582.4,685.9z"/>
		<path d="M477.6,775.7c-3-4.1-6.1-6.5-6.3-9.1c-0.3-4.1,3.5-6.3,7.2-5.3c2.5,0.7,6.3,3.9,6.1,5.7
			C484.3,769.6,480.9,771.8,477.6,775.7z"/>
		<path d="M758.2,688.7c-2.9-4-5.7-6.3-6.2-9c-0.8-4.5,2.9-5.8,6.8-5.8c4.2,0,7.9,1.8,6.9,6.4C765.1,682.9,761.7,684.9,758.2,688.7z
			"/>
		<path d="M663.7,775.6c-3.3-3.9-6.4-6-6.9-8.6c-0.9-4.3,2.7-5.9,6.6-5.9c4.1,0,7.3,1.9,6.6,6C669.6,769.5,666.7,771.6,663.7,775.6z
			"/>
		<path d="M682.5,775.7c-3.2-4.2-6.5-6.6-6.5-9c0-1.9,3.8-4.8,6.3-5.5c4-1,7.1,1.7,6.4,5.8C688.3,769.5,685.5,771.6,682.5,775.7z"/>
		<path class="st1" d="M522.9,535c-5.4-2.1-9.1-3-12.3-4.8c-8-4.6-17.2-2.3-20,10.8c-0.8,3.6-1,7.3-1.3,10.9c-0.6,6.7-3,8.7-9.5,9.9
			c-7.5,1.3-15.2,2.7-22.2,5.4c-10.9,4.1-15.9,12.7-15.4,24.4c0.1,1.6,0,3.3,0,5c-62.1-28.1-102.8-90.7-101.2-162.2
			c1.9-80.5,49.8-144.9,133.1-171.7c-3.8,8.8-6.7,16.8-10.7,24.2c-6.4,11.8-12.4,23.8-13.5,37.3c-0.6,6.9,0.8,14.3,2.6,21
			c1.2,4.4,0.6,7.4-1.2,11.2c-5.5,11.4-5.4,35.6,7.5,45.2c5.6,4.2,12,7.5,17.9,11.3c7.2,4.5,15,8.2,21.3,13.6
			c8.7,7.5,7.9,14.8-1.6,24.3c-6.7,6.7-13.5,13.7-15.2,23.1c-1.4,8.3-0.3,17-0.3,26.5c3.9-10.6,6.8-20.2,10.9-29.2
			c2.5-5.7,6.9-10.4,10-15.9c8.5-14.8,10.3-34.6-8.6-46.5c-10.6-6.6-21-13.6-31.2-20.7c-3.6-2.5-7.2-5.7-9.6-9.4
			c-3.4-5-0.5-13.7,5.2-18.7c12.2,15.1,29.7,23.7,44.5,35.6c7,5.6,13.9,12,19.1,19.2c9.8,13.6,4.4,26.6-5.7,40.5
			c-6.1,8.4-14.3,15.7-15.7,26.8c-0.7,6.2-0.8,12.5-0.6,18.7c2.6-11.1,9.7-19.5,16.3-28.1c9-11.7,14.4-24.6,14.5-39.5
			c0.1-10.6-0.2-21-3.7-31.4c-1.5-4.4,1.7-10.3,2.7-15.6c3.6-18.2-0.9-26.9-14.6-38.6c-9.2-7.8-19.6-14.3-29.2-21.7
			c-1.2-0.9-1.5-4.2-1-6c3.5-11.2,3.4-22.3-0.8-33.4c0.1,10.9-0.7,21.6-8.6,32c-3.1-4.9-6.7-9-8.5-13.9c-0.9-2.5,1.5-6.2,2.3-9.4
			c2.8-10.7,5.6-21.4,8.8-33.9c8.7-1,19.3-2.6,29.9-3.2c11.6-0.6,23.4-1.6,34.8,0.2c15.6,2.5,31.3,6.3,46.2,11.8
			c25.1,9.2,46.7,24.6,64.5,44.6c16.3,18.2,29.8,38.4,36.9,62.2c2.1,6.9,3.9,14,5.5,21c0.3,1.4-0.4,3.7-1.4,4.5
			c-17.8,14-36.1,27.4-53.4,42c-6.7,5.6-13.2,7.1-21.3,7c-17-0.3-34-0.5-50.9,0c-17.9,0.5-20,9.5-17.8,23.2c1,6.7,3.4,13.3,4.3,20
			c0.7,5.7-2.4,8.5-8.4,8.6c-3.8,0.1-7.7-0.7-11.5-0.3c-12.3,1.2-14.6,8.9-13.1,22.7C522,528.3,522.4,530.8,522.9,535z"/>
		<path class="st1" d="M463.9,351.7c4.6-5.9,8.6-11.2,13.3-17.3c13.7,10.9,27.6,21.9,41.4,33c7.4,5.9,8.8,22.1,4.9,28.6
			C503.6,381.3,483.8,366.5,463.9,351.7z"/>
		<path class="st1" d="M462.6,308.6c0.9,3.5,1.5,6.3,2.4,8.9c1.1,3.3,4.4,7.3,3.5,9.7c-2.3,5.8-6.4,11-9.9,16.4
			C448.9,330.5,455.4,320.1,462.6,308.6z"/>
		<path class="st1" d="M271.7,744.7c-9.5,0.8-12.3-0.7-14.6-7.8c-2.5-7.6,0-18.7,5.4-21.3c2.3-1.1,5.6-1.2,8.2-0.5
			c1,0.2,1.5,3.8,1.5,5.9c0.2,7.4,0,14.8,0,22.2C272.2,743.5,272,743.9,271.7,744.7z"/>
		<path class="st1" d="M786.6,826.1c-0.1,7.9-1.9,15.2-9.4,19.4c-6,3.4-12.2,3.4-18.1-0.2c-7.6-4.6-10.8-15.6-8-27.1
			c3.3-13.6,19.6-18.9,29.3-8.8c3.9,4,5.2,10.6,7.7,16C787.6,825.7,787.1,825.9,786.6,826.1z"/>
		<path class="st1" d="M576.1,823.2c0-5.9,0-11.7,0-17.7c5.3-0.6,10.7-1.1,13.2,4.2c1.2,2.4,1,6.4-0.2,9
			C586.6,823.8,581.6,824.3,576.1,823.2z"/>
		<path class="st1" d="M488.8,811.9c2.4,7.4,4.4,13.3,6.4,19.7c-4.5,0-8.8,0-13.6,0C484.1,825.1,486.3,819,488.8,811.9z"/>
		<path class="st1" d="M533.2,805.6c5.7-0.9,10.7,0.1,12.7,4.9c1.3,3.1,0.9,7.8-0.6,11c-2.1,4.7-6.9,5.2-12.1,4.2
			C533.2,819.1,533.2,812.6,533.2,805.6z"/>
		<path class="st1" d="M819.5,655.7c6.9,0.1,13.1,6.9,12.9,14c-0.2,7-6.3,13.2-13,13.3c-7,0-13.1-6.3-13.1-13.7
			C806.3,662,812.6,655.6,819.5,655.7z M814.2,678.5c0.6,0.1,1.2,0.2,1.7,0.3c0.6-2.2,1.2-4.4,1.8-6.9c2.6,2.6,4.8,5,7.1,7.3
			c0.5-0.4,1-0.9,1.5-1.3c-1.4-2.6-2.8-5.2-4.1-7.9c1.6-2.4,3.2-6.4,2.2-7.2c-2.7-2.1-6.4-2.8-10.2-4.2
			C814.2,666.4,814.2,672.4,814.2,678.5z"/>
		<path d="M814.2,678.5c0-6.1,0-12.1,0-19.9c3.8,1.4,7.6,2.1,10.2,4.2c1,0.8-0.6,4.8-2.2,7.2c1.4,2.6,2.8,5.2,4.1,7.9
			c-0.5,0.4-1,0.9-1.5,1.3c-2.3-2.3-4.5-4.6-7.1-7.3c-0.6,2.5-1.2,4.7-1.8,6.9C815.3,678.7,814.8,678.6,814.2,678.5z"/>
	</g>
</g>
</svg>
