<?xml version="1.0" encoding="utf-8"?>
<!-- Generator: Adobe Illustrator 26.0.3, SVG Export Plug-In . SVG Version: 6.00 Build 0)  -->
<svg version="1.1" id="Layer_1" xmlns="http://www.w3.org/2000/svg" xmlns:xlink="http://www.w3.org/1999/xlink" x="0px" y="0px"
	 viewBox="0 0 1080 1080" style="enable-background:new 0 0 1080 1080;" xml:space="preserve">
<style type="text/css">
	.st0{fill:#010101;}
	.st1{fill:#FFFFFF;}
	.st2{fill:none;stroke:#000000;stroke-width:0.7193;stroke-linecap:round;stroke-linejoin:round;stroke-miterlimit:10;}
	.st3{opacity:0.2;enable-background:new    ;}
</style>
<g id="hhPlwu.tif">
	<g>
		<path class="st1" d="M697.2,622.1c6.2,0,12.4,0.2,18.6-0.1c9.1-0.4,18.2-0.4,27.1-1.9c17.8-3,30.9-12.6,37.1-30.2
			c2.8-7.8,3-15.9,2.5-24.1c-1.8-24.8-17.7-41.7-42.3-44.1c-12.2-1.1-24.4-0.7-36.6-1.4c-5.8-0.3-11.8-1.1-17.5-2.3
			c-2.2-0.5-4.8-2.4-6-4.3c-4.9-7.9-0.2-18.6,8.8-20.5c4-0.9,8.1-1.1,12.2-1.2c19.2-0.1,38.4-0.1,57.6-0.1c8.9-0.1,16-6.8,16.8-15.7
			c0.7-8.4-5.3-16.1-13.9-17.7c-0.9-0.2-1.9-0.3-2.8-0.3c-22.2,0.1-44.5,0.1-66.7,0.5c-9.2,0.2-18.2,1.8-26.7,5.8
			c-18.4,8.7-29.6,29.5-27.5,50.6c2.2,21,13.6,34.3,34.2,38.6c8.3,1.8,17,2.2,25.6,2.7c10.4,0.6,20.8,0.3,31.2,0.8
			c9,0.5,12.7,4.6,13,13.7c0.1,1.3,0.1,2.5-0.1,3.7c-0.5,6.7-3.8,11-10.4,12.2c-4.5,0.9-9.1,1.3-13.6,1.3
			c-18.9,0.1-37.8,0.1-56.8,0.1c-7.6,0-13.4,3.3-16.5,10.3c-5,11.1,3.4,23.4,16,23.5C672.7,622.1,685,622.1,697.2,622.1z"/>
		<path d="M992.4,545.7c-0.3,1-0.7,1.9-1.1,2.9c-2.6,7.3-9.1,11.8-17.3,11.8c-13.2,0.1-26.4,0-39.6,0c-1.1,0-2.2,0-3.7,0
			c0,1.4,0,2.6,0,3.7c0,13,0,26,0,39c0,11.5-7.5,19-19,19c-2.1,0-4.2,0.1-6.3-0.2c-9-1.4-15.2-8.5-15.3-17.7
			c-0.1-13.4,0-26.8,0-40.1c0-1,0-2.1,0-3.4c-1.3-0.1-2.4-0.2-3.5-0.2c-12.2,0-24.3-0.3-36.4,0.1c-10.4,0.3-18-3.3-21.8-13.6
			c0,0.9,0,1.8,0,2.7c0,17.9,0,35.9,0,53.9c0,11-7.5,18.6-18.5,18.6c-2.3,0-4.6,0.1-6.9-0.2c-8.9-1.4-15.3-8.6-15.3-17.7
			c-0.1-42.7-0.1-85.4,0-128.1c0-9.1,6.3-16.3,15.3-17.6c3.1-0.4,6.3-0.5,9.4-0.1c9.5,1.1,15.9,8.3,15.9,17.9
			c0.1,18.2,0,36.3,0,54.5c0,0.9,0,1.7,0,2.5c0.1,0.1,0.2,0.1,0.3,0.1c0.3-0.7,0.6-1.5,0.9-2.2c2.7-6.8,9-11.2,16.5-11.2
			c13.5-0.1,26.9,0,40.4,0c1,0,2.1,0,3.6,0c0-1.3,0-2.2,0-3.3c0-13.2,0-26.4,0-39.6c0-11.4,7.5-18.9,18.8-18.9c2.9,0,6,0.1,8.8,0.7
			c7.9,2,12.9,8.9,13,17.5c0.1,13.4,0.1,26.8-0.1,40.1c0,2.6,0.6,3.4,3.3,3.3c12.9-0.2,25.8-0.1,38.7-0.1c10.4,0,16,4,19.3,14
			c0.1,0.2,0.2,0.3,0.3,0.4C992.4,538.1,992.4,541.9,992.4,545.7z"/>
		<path d="M631.2,457.4c0.1,1.1,0.4,2.2,0.4,3.3c-0.2,53-0.5,106-0.7,158.9c0,1-0.1,1.9-0.2,2.9c-11.9,0-23.7,0-35.5,0
			c-0.1-1.3-0.1-2.5-0.1-3.7c0-17.7,0-35.3,0-53c0-1.1,0-2.2,0-3.3c-19,0-37.5,0-56.2,0c0,1.4,0,2.5,0,3.7c0,17.7,0,35.3,0,53
			c0,1.1-0.2,2.2-0.3,3.4c-12.2,0-24.5,0-36.7,0c0-17.2,0.1-34.3,0.1-51.5c0-25.9-0.1-51.7,0.1-77.6c0-4.3,0.7-8.8,1.9-13
			c4.3-14.1,14.7-20.8,28.8-22.5c1-0.1,2-0.4,3-0.6C567.3,457.4,599.2,457.4,631.2,457.4z M594.7,530.1c0-14,0-27.8,0-41.6
			c-14.4,0-28.7-0.1-42.9,0.1c-2.4,0-4.9,0.8-7.2,1.8c-4,1.8-6,5-6,9.6c0.1,6.4,0.1,12.8,0.1,19.2c0,3.6,0,7.2,0,11
			C557.4,530.1,575.9,530.1,594.7,530.1z"/>
		<path d="M87.6,503.3c0.5-2.1,0.9-4.3,1.4-6.4c5.2-20.4,20.5-34.1,42.3-37.1c7.3-1,14.8-1.5,22.2-1.7c18.2-0.2,36.3-0.1,54.5-0.1
			c12.4,0.1,20.6,11.9,16.1,23c-2.6,6.4-8.8,10.6-15.9,10.6c-19,0.1-38,0-57,0.1c-4.2,0.1-8.4,0.3-12.5,1.2
			c-9,1.9-13.6,12.7-8.7,20.6c1.3,2,4,3.8,6.4,4.4c5.7,1.2,11.5,1.9,17.3,2.2c12.3,0.6,24.7,0.3,36.9,1.4
			c23.2,2.1,38.8,18,41.6,41.3c1,8.8,0.9,17.6-1.9,26.1c-6,18.1-19.3,27.8-37.4,31c-8.4,1.5-17.1,1.8-25.7,1.9
			c-18.8,0.3-37.7,0.2-56.5,0.1C98.3,622,90,610.6,94,599.4c2.5-6.9,8.9-11.2,17-11.2c18.9,0,37.8,0.1,56.8-0.1
			c4.5-0.1,9-0.5,13.4-1.3c6.5-1.2,9.7-4.9,10.4-11.5c0.3-2.9,0.1-6-0.4-8.8c-0.9-5-4-8.3-9.2-8.8c-6.5-0.6-13-0.9-19.4-1.2
			c-11.9-0.6-23.9-0.6-35.7-1.8c-5.9-0.6-12-2.7-17.4-5.4c-12-6-18.9-16.2-21.2-29.5c-0.1-0.7-0.4-1.4-0.6-2.2
			C87.6,512.9,87.6,508,87.6,503.3z"/>
		<path d="M243.1,458.6c0.7-0.1,1.2-0.1,1.7-0.1c26.8,0,53.5,0,80.3,0.1c7.9,0.1,15.7,0.8,23.1,3.7c19,7.4,29.1,21.7,31.9,41.6
			c1.4,9.8,0.9,19.6-1.6,29.3c-5.4,20.8-20.2,34.5-41.7,36.5c-14.6,1.4-29.4,1.1-44,1.5c-3.3,0.1-6.7,0-10.3,0c0,17,0,33.8,0,50.7
			c-13.2,0-26.1,0-39.2,0C243.1,567.4,243.1,513.1,243.1,458.6z M282.3,536.7c12.3,0,24.4,0.1,36.3-0.1c2.6,0,5.2-0.4,7.7-0.9
			c6.4-1,10.4-4.9,12-11.1c1.6-6.2,1.9-12.4,0.5-18.7c-1.8-7.9-5.6-11.4-13.6-12.5c-2.1-0.3-4.2-0.6-6.2-0.6
			c-11.6-0.1-23.3-0.1-34.9-0.1c-0.5,0-1.1,0.2-1.7,0.3C282.3,507.6,282.3,522,282.3,536.7z"/>
		<path d="M431.4,458.5c0,1.5,0,2.8,0,4c0.1,31.4,0,62.8,0.2,94.3c0.1,5.2,0.9,10.4,1.7,15.6c0.8,4.9,3.8,8.4,8.3,10.7
			c5.9,3.1,12.3,4.3,18.8,4.4c8.9,0.2,17.8,0.1,26.7,0.1c1,0,2.1,0,3.3,0c0,11.5,0,22.6,0,34.1c-0.5,0.1-1,0.3-1.5,0.3
			c-14.3-0.2-28.7-0.1-42.9-0.7c-14-0.6-26.7-5.1-37.1-15.1c-9.4-9.1-14.1-20.3-15.5-33c-0.7-6.7-1.1-13.3-1.1-20
			c-0.1-30.4-0.1-60.7-0.1-91.1c0-1.1,0-2.2,0-3.5C405.3,458.5,418.2,458.5,431.4,458.5z"/>
		<path d="M697.2,622.1c-12.2,0-24.5,0.1-36.7,0c-12.7-0.1-21-12.4-16-23.5c3.2-7,8.9-10.3,16.5-10.3c18.9-0.1,37.8,0.1,56.8-0.1
			c4.5-0.1,9.2-0.5,13.6-1.3c6.6-1.3,10-5.5,10.4-12.2c0.1-1.3,0.1-2.5,0.1-3.7c-0.3-9.1-4-13.2-13-13.7
			c-10.4-0.5-20.8-0.2-31.2-0.8c-8.5-0.5-17.2-0.9-25.6-2.7c-20.6-4.4-32-17.7-34.2-38.6c-2.2-21.1,9.1-42,27.5-50.6
			c8.4-4,17.5-5.7,26.7-5.8c22.2-0.4,44.5-0.4,66.7-0.5c0.9,0,1.9,0.2,2.8,0.3c8.5,1.6,14.6,9.3,13.9,17.7
			c-0.7,8.8-7.9,15.6-16.8,15.7c-19.2,0.1-38.4,0-57.6,0.1c-4.1,0-8.3,0.3-12.2,1.2c-9,1.9-13.6,12.7-8.8,20.5
			c1.2,1.9,3.8,3.8,6,4.3c5.7,1.2,11.6,2,17.5,2.3c12.2,0.6,24.5,0.2,36.6,1.4c24.7,2.4,40.5,19.4,42.3,44.1
			c0.6,8.1,0.3,16.3-2.5,24.1c-6.2,17.6-19.3,27.2-37.1,30.2c-8.9,1.5-18.1,1.5-27.1,1.9C709.6,622.3,703.4,622.1,697.2,622.1z"/>
	</g>
</g>
</svg>
